<svg width="89" height="89" viewBox="0 0 89 89" fill="none" xmlns="http://www.w3.org/2000/svg">
<path d="M78.7672 36.3953C78.0562 36.6797 77.6297 37.5328 77.9141 38.2437C79.1937 41.6562 79.7625 45.2109 79.9047 48.9078H76.35C76.2078 48.9078 75.7813 48.7656 75.6391 48.7656L73.7906 47.9125C71.3734 46.775 68.6719 46.6328 66.1125 47.4859L62.9844 48.4812C61.8469 48.9078 60.8516 49.4766 59.8562 50.1875C59.2875 50.6141 59.1453 51.6094 59.5719 52.1781C59.8562 52.4625 60.2828 52.7469 60.7094 52.7469C60.9938 52.7469 61.2781 52.6047 61.5625 52.4625C62.2734 51.8937 62.9844 51.4672 63.8375 51.1828L66.9656 50.1875C68.9562 49.6187 70.8047 49.7609 72.6531 50.6141L74.5016 51.4672C75.0703 51.7516 75.7813 51.8937 76.35 51.8937H80.0469C79.4781 66.8234 69.525 79.4781 56.0172 84.0281L56.8703 81.0422C57.2969 79.4781 56.8703 77.7719 55.7328 76.7766L51.0406 72.0844C50.4719 71.5156 50.4719 70.9469 50.6141 70.6625C50.6141 70.2359 50.8984 69.8094 51.325 69.525L54.5953 67.3922C56.4437 66.1125 57.1547 63.8375 56.0172 61.7047L55.3062 60.2828C55.0219 59.7141 55.1641 59.0031 55.5906 58.5766L56.1594 58.0078C56.7281 57.4391 56.7281 56.5859 56.1594 56.0172C55.5906 55.4484 54.7375 55.4484 54.1687 56.0172L53.6 56.5859C52.3203 57.8656 51.8937 59.9984 52.7469 61.7047L53.4578 63.1266C53.8844 63.8375 53.6 64.6906 52.8891 65.1172L49.6187 67.25C48.4812 67.9609 47.7703 69.0984 47.6281 70.5203C47.4859 71.9422 47.9125 73.2219 48.9078 74.2172L53.6 78.9094C54.0266 79.3359 54.0266 79.9047 53.8844 80.4734L52.6047 85.1656C50.1875 85.45 47.3437 85.7344 44.5 85.7344C43.9312 85.7344 43.2203 85.7344 42.6516 85.7344C41.9406 85.7344 41.2297 86.3031 41.2297 87.1562C41.2297 88.0094 41.7984 88.5781 42.6516 88.5781H44.6422C65.8281 88.5781 83.0328 71.3734 83.0328 50.1875C83.0328 45.7797 82.3219 41.3719 80.7578 37.2484C80.3312 36.3953 79.4781 36.1109 78.7672 36.3953Z" fill="#FF732D" stroke="#FF732D" stroke-width="0.5"/>
<path d="M34.5469 84.3125C32.8406 83.8859 31.1344 83.175 29.5703 82.4641L30.85 81.6109C31.9875 80.7578 32.5563 79.6203 32.6984 78.3406C32.8406 77.0609 32.2719 75.7813 31.4187 74.7859L28.8594 72.2266C28.7172 72.0844 28.575 71.8 28.4328 71.6578L26.4422 65.5438C26.1578 64.8328 26.4422 64.2641 26.8688 63.9797C28.1484 62.7 28.575 60.5672 27.7219 58.8609L24.3094 52.1781C23.3141 50.0453 20.6125 49.1922 18.3375 50.3297L16.6312 51.325C16.2047 51.4672 15.7781 51.6094 15.3516 51.4672L8.95312 49.1922C8.95312 47.4859 9.09531 45.7797 9.37969 44.2156C9.52188 43.5047 8.95312 42.6516 8.24219 42.5094C7.53125 42.3672 6.67813 42.9359 6.53594 43.6469C6.25156 45.7797 6.10938 48.0547 6.10938 50.1875C6.10938 67.25 17.4844 82.3219 33.6937 87.0141H34.1203C34.6891 87.0141 35.2578 86.5875 35.5422 86.0188C35.6844 85.3078 35.2578 84.5969 34.5469 84.3125ZM26.7266 81.0422C16.4891 75.0703 9.66406 64.2641 9.09531 52.1781L14.4984 53.8844C15.4937 54.3109 16.6312 54.1688 17.7687 53.7422H17.9109L19.7594 52.7469C20.0438 52.6047 20.6125 52.6047 20.8969 52.6047C21.3234 52.7469 21.6078 53.0313 21.75 53.3156L25.1625 59.9984C25.4469 60.5672 25.3047 61.2781 24.8781 61.7047C23.5984 62.9844 23.1719 64.6906 23.8828 66.2547L25.8734 72.3687C26.0156 72.9375 26.4422 73.6484 26.8688 74.075L29.4281 76.6344C29.7125 76.9187 29.8547 77.4875 29.8547 77.9141C29.8547 78.4828 29.5703 78.9094 29.1438 79.1938L26.7266 81.0422Z" fill="#FF732D" stroke="#FF732D" stroke-width="0.5"/>
<path d="M35.9688 16.9156C36.8219 16.9156 37.3906 16.3469 37.3906 15.4938V3.26562H37.9594L48.9078 25.1625C49.1922 25.5891 49.6187 26.0156 50.1875 26.0156H71.0891C74.7859 26.3 77.2031 27.7219 77.2031 28.8594C77.2031 29.4281 76.6344 29.9969 75.7812 30.4234C74.3594 31.2766 72.2266 31.7031 70.0938 31.7031H65.2594C64.4062 31.7031 63.8375 32.2719 63.8375 33.125C63.8375 33.9781 64.4062 34.5469 65.2594 34.5469H70.0938C72.7953 34.5469 75.3547 33.9781 77.2031 32.9828C79.0516 31.9875 80.0469 30.5656 80.0469 28.8594C80.0469 25.8734 76.4922 23.4563 71.2312 23.1719H51.0406L40.0922 1.275C39.8078 0.70625 39.3813 0.421875 38.8125 0.421875H35.9688C35.1156 0.421875 34.5469 0.990625 34.5469 1.84375V15.4938C34.5469 16.2047 35.1156 16.9156 35.9688 16.9156Z" fill="#FF732D"/>
<path d="M43.7891 46.0641C43.0781 45.7797 42.225 46.0641 41.9406 46.6328L37.9594 54.4531H37.3906V33.125C37.3906 32.2719 36.8219 31.7031 35.9688 31.7031H16.0625C15.4938 31.7031 15.0672 31.9875 14.7828 32.5563L12.3656 37.3906H11.7969V20.3281H12.3656L14.7828 25.1625C15.0672 25.5891 15.4938 26.0156 16.0625 26.0156H35.9688C36.8219 26.0156 37.3906 25.4469 37.3906 24.5938V21.3234C37.3906 20.4703 36.8219 19.9016 35.9688 19.9016C35.1156 19.9016 34.5469 20.4703 34.5469 21.3234V23.1719H16.9156L14.4984 18.3375C14.2141 17.7688 13.7875 17.4844 13.2188 17.4844H10.375C9.52188 17.4844 8.95312 18.0531 8.95312 18.9062V38.8125C8.95312 39.6656 9.52188 40.2344 10.375 40.2344H13.2188C13.7875 40.2344 14.2141 39.95 14.4984 39.3812L16.9156 34.5469H34.5469V55.875C34.5469 56.7281 35.1156 57.2969 35.9688 57.2969H38.8125C39.3813 57.2969 39.8078 57.0125 40.0922 56.4438L44.3578 47.9125C44.7844 47.2016 44.5 46.3484 43.7891 46.0641Z" fill="#FF732D"/>
<path d="M23.1719 10.375C23.1719 7.95781 21.3234 6.10938 18.9062 6.10938C18.0531 6.10938 17.4844 6.67812 17.4844 7.53125C17.4844 8.38438 18.0531 8.95312 18.9062 8.95312C19.7594 8.95312 20.3281 9.52187 20.3281 10.375C20.3281 11.2281 19.7594 11.7969 18.9062 11.7969H4.6875C3.83437 11.7969 3.26562 11.2281 3.26562 10.375C3.26562 9.52187 3.83437 8.95312 4.6875 8.95312C5.54063 8.95312 6.10938 8.38438 6.10938 7.53125C6.10938 6.67812 6.67812 6.10938 7.53125 6.10938H7.67344C8.38437 6.39375 9.2375 6.25156 9.52188 5.54062C10.2328 4.11875 11.6547 3.26562 13.2188 3.26562C13.6453 3.26562 14.0719 3.26562 14.4984 3.40781C15.2094 3.69219 16.0625 3.26563 16.2047 2.4125C16.4891 1.70156 16.0625 0.848438 15.2094 0.70625C14.6406 0.564063 13.9297 0.421875 13.2188 0.421875C10.9437 0.421875 8.81094 1.41719 7.53125 3.26562C5.68281 3.26562 3.97656 4.54531 3.40781 6.25156C1.70156 6.82031 0.421875 8.38438 0.421875 10.375C0.421875 12.7922 2.27031 14.6406 4.6875 14.6406H18.9062C21.3234 14.6406 23.1719 12.7922 23.1719 10.375Z" fill="#FF732D"/>
<path d="M85.5922 11.9391C85.0234 8.66875 82.1797 6.10938 78.625 6.10938C77.7719 6.10938 77.2031 6.67812 77.2031 7.53125C77.2031 8.38438 77.7719 8.95312 78.625 8.95312C81.0422 8.95312 82.8906 10.8016 82.8906 13.2188C82.8906 14.0719 83.4594 14.6406 84.3125 14.6406C85.1656 14.6406 85.7344 15.2094 85.7344 16.0625C85.7344 16.9156 85.1656 17.4844 84.3125 17.4844H70.0938C69.2406 17.4844 68.6719 16.9156 68.6719 16.0625C68.6719 15.2094 69.2406 14.6406 70.0938 14.6406C70.9469 14.6406 71.5156 14.0719 71.5156 13.2188C71.5156 12.3656 72.0844 11.7969 72.9375 11.7969H73.0797C73.7906 12.0813 74.6438 11.7969 74.9281 11.2281C75.2125 10.5172 74.9281 9.66406 74.3594 9.37969C73.6484 8.95313 73.3641 8.95312 72.9375 8.95312C70.9469 8.95312 69.3828 10.2328 68.8141 11.9391C67.1078 12.5078 65.8281 14.0719 65.8281 16.0625C65.8281 18.4797 67.6766 20.3281 70.0938 20.3281H84.3125C86.7297 20.3281 88.5781 18.4797 88.5781 16.0625C88.5781 14.2141 87.2984 12.5078 85.5922 11.9391Z" fill="#FF732D"/>
<path d="M47.4859 34.5469C48.2125 34.6876 48.9078 34.6891 49.3344 33.9781C50.1875 32.5563 51.6094 31.7031 53.0312 31.7031C54.5953 31.7031 56.0172 32.5562 56.7281 33.6937C57.1547 34.5469 57.2969 35.2578 57.2969 35.9688C57.2969 36.8219 57.8656 37.3906 58.7188 37.3906C59.5719 37.3906 60.1406 37.9594 60.1406 38.8125C60.1406 39.6656 59.5719 40.2344 58.7188 40.2344C57.8656 40.2344 57.2969 40.8031 57.2969 41.6562C57.2969 42.5094 57.8656 43.0781 58.7188 43.0781C61.1359 43.0781 62.9844 41.2297 62.9844 38.8125C62.9844 36.9641 61.7047 35.2578 59.9984 34.6891C59.8563 33.9781 59.5719 33.125 59.1453 32.4141C58.0078 30.2812 55.5906 28.8594 53.0312 28.8594C50.8984 28.8594 48.7656 29.9969 47.3438 31.7031C45.4953 31.7031 43.7891 32.9828 43.2203 34.6891C41.5141 35.2578 40.2344 36.8219 40.2344 38.8125C40.2344 41.2297 42.0828 43.0781 44.5 43.0781H53.0312C53.8844 43.0781 54.4531 42.5094 54.4531 41.6562C54.4531 40.8031 53.8844 40.2344 53.0312 40.2344H44.5C43.6469 40.2344 43.0781 39.6656 43.0781 38.8125C43.0781 37.9594 43.6469 37.3906 44.5 37.3906C45.3531 37.3906 45.7996 36.8133 45.9219 35.9688C46.1508 34.3976 47.4859 34.5469 47.4859 34.5469Z" fill="#FF732D"/>
</svg>
