<svg width="114" height="72" viewBox="0 0 114 72" fill="none" xmlns="http://www.w3.org/2000/svg">
<path d="M112.63 30.3787C111.402 28.5304 109.612 27.0751 108.304 26.0129C107.919 25.7 107.392 25.2716 107.263 25.1271C106.939 24.7329 106.624 24.3662 106.327 24.0204C105.61 23.1839 104.796 22.236 104.721 21.8076C104.702 21.6958 104.879 21.183 105.923 20.1678C109.295 16.8863 106.755 12.6483 105.237 10.1163C104.859 9.48515 104.314 8.57617 104.131 8.08546C104.518 7.32611 105.007 6.09675 104.592 4.70674C104.069 2.95629 102.389 1.87542 100.816 1.04947C100.609 0.940798 100.426 0.829651 100.249 0.722554C99.5823 0.319141 98.3422 -0.432786 96.8225 0.324541C95.9577 0.755179 95.2694 1.53838 94.054 3.13088C93.8299 3.42472 93.3364 3.86481 92.8141 4.33077C92.4567 4.64959 92.0517 5.01093 91.6417 5.40579C90.7527 6.26189 90.7167 7.68587 91.5617 8.58675C92.4065 9.4874 93.8123 9.52384 94.7016 8.66774C95.0507 8.3316 95.4062 8.01459 95.75 7.7077C96.436 7.09549 97.0841 6.51726 97.568 5.88345C97.9273 5.41277 98.1949 5.0764 98.3941 4.83678C98.5098 4.90293 98.6355 4.97268 98.7723 5.04468C99.5907 5.47419 100.009 5.77883 100.214 5.95567C100.175 6.03667 100.122 6.14152 100.049 6.27606C98.9478 8.29245 100.215 10.4069 101.441 12.4519C102.102 13.5539 102.785 14.6937 103.045 15.6513C103.276 16.504 103.048 16.7263 102.846 16.9225C98.2169 21.4271 100.856 24.5021 102.976 26.9728C103.254 27.2972 103.549 27.6412 103.854 28.0106C104.239 28.4777 104.778 28.916 105.525 29.5231C108.404 31.8621 110 33.5914 109.429 35.2154C108.098 35.0444 105.081 33.6643 103.872 32.6097C102.516 31.426 98.8963 29.1505 94.591 33.5801C91.2137 37.0549 89.7666 41.1397 90.7196 44.5065C91.2622 46.4239 92.588 47.8112 94.2656 48.2175C96.0572 48.6506 97.986 47.9178 99.5565 46.2045C99.8623 45.8713 101.15 45.6567 102.038 46.2493C103.435 47.1814 102.531 49.6962 102.078 50.7343C100.939 53.344 101.962 55.4146 102.71 56.9263C103.512 58.5506 104.043 59.6233 102.846 61.8179C101.839 63.6626 100.953 64.1777 100.584 64.2798C101.017 63.0144 100.829 62.0139 100.646 61.0442C100.543 60.4992 100.427 59.8816 100.371 59.0129C100.298 57.8751 99.682 56.938 98.68 56.4419C96.589 55.4063 93.4561 56.7954 92.5511 57.4182C92.5254 57.436 92.4567 57.4834 92.2435 57.4387C91.884 57.3631 91.542 57.1144 91.3874 56.947C91.0918 55.1021 89.6689 53.7033 87.7628 53.4225C85.5317 53.0952 83.3875 54.3436 82.5498 56.4611C81.6291 58.7895 81.7046 60.6313 81.8176 61.8398C81.7699 61.8404 81.7199 61.8407 81.6673 61.8407C79.0267 61.8407 77.8428 62.9481 77.1767 64.1005C75.7432 63.7873 74.2146 64.0924 72.8528 64.3644C72.6709 64.4006 72.4546 64.4438 72.2423 64.483C71.0295 61.2712 68.6816 60.2166 66.7335 60.3469C64.1804 60.5188 62.0573 62.6009 61.7948 65.1899C61.7068 66.0591 61.5028 66.3626 61.4486 66.4292C61.3862 66.4361 61.264 66.4163 61.1938 66.3875C57.8348 64.5262 55.664 66.1376 54.4965 67.0042C54.2591 67.1804 53.9055 67.443 53.7545 67.4965C52.2865 67.2819 51.0206 66.6638 49.6533 65.4948C48.7159 64.6931 47.3147 64.8135 46.5237 65.7632C45.7326 66.7129 45.8512 68.1321 46.7886 68.9338C48.8105 70.6626 50.8332 71.6227 53.154 71.9552C53.3681 71.986 53.5744 72 53.7736 72C55.2818 72 56.3713 71.1909 57.1219 70.6338C58.0627 69.9352 58.1837 69.8455 59.0718 70.3407C60.1045 70.9164 61.8876 71.2821 63.5144 70.4185C64.5824 69.8513 65.9176 68.5637 66.2129 65.6496C66.2565 65.2198 66.6866 64.8596 67.0277 64.8369C67.5066 64.7966 68.0393 65.6462 68.3318 66.883C68.5854 67.9557 69.5257 69.0967 71.4048 69.0967H71.4363C72.1443 69.092 72.9052 68.9401 73.7107 68.7794C74.5422 68.6136 75.7978 68.3628 76.2848 68.5108C78.4733 69.175 80.0278 68.5257 80.9062 66.581C80.9311 66.5261 80.9613 66.4593 80.987 66.4058C81.0876 66.3792 81.2971 66.3407 81.667 66.3407C83.109 66.3407 84.5763 66.1916 85.5395 65.1087C86.5062 64.022 86.371 62.7062 86.2722 61.7455C86.1729 60.7789 86.0603 59.6836 86.6728 58.135C86.7183 58.02 86.781 57.9528 86.8827 57.9098C86.9342 57.888 86.9846 57.8776 87.0284 57.874C87.2895 59.5363 88.783 60.8021 90.0238 61.3947C91.7698 62.229 93.6007 62.1363 95.0451 61.1418C95.2468 61.0086 95.6718 60.8417 96.0843 60.7218C96.1498 61.1828 96.2222 61.5668 96.2828 61.8883C96.4338 62.6898 96.4205 62.7231 96.3712 62.8479C95.5348 64.9604 96.4773 67.3831 98.5167 68.3641C100.648 69.389 104.079 68.8598 106.733 63.9947C109.061 59.7268 107.629 56.8291 106.681 54.9115C106.016 53.5663 105.876 53.1593 106.14 52.5547C108.95 46.1197 105.581 43.2254 104.481 42.4914C101.931 40.7896 98.1856 41.0873 96.3017 43.1421C95.7429 43.7514 95.3589 43.8477 95.3059 43.8437C95.2557 43.8194 95.0316 43.5937 94.9301 43.0047C94.6922 41.6248 95.3096 39.254 97.7557 36.7372C99.6103 34.8291 100.366 35.4883 100.973 36.0188C102.696 37.5231 107.649 40.1697 110.582 39.6567C111.628 39.4734 112.471 38.9118 112.965 38.0726C114.452 35.6748 114.333 32.9441 112.63 30.3787Z" fill="#FF732D"/>
<path d="M57.3162 28.5345C59.3379 26.5833 60.1841 25.9457 61.7349 26.4466C62.6716 26.7494 62.7698 26.9701 62.8834 27.2254C63.4307 28.456 64.6045 29.7182 67.0839 28.7407C68.485 28.1891 69.4731 27.8231 70.0362 27.6473C70.5152 27.937 71.1629 28.1717 72.1682 28.2566C76.8339 28.6497 78.0026 26.5638 78.7314 24.5764C79.0204 23.7888 79.1038 23.6577 79.4174 23.4995C79.4799 23.4681 79.5545 23.435 79.6382 23.3992C80.7694 22.9151 81.3012 21.5886 80.826 20.4361C80.3509 19.2834 79.0489 18.7413 77.9177 19.2257C77.7333 19.3047 77.5781 19.3762 77.4445 19.4436C75.5141 20.4173 74.9228 22.0288 74.5698 22.9916C74.4885 23.213 74.3678 23.5418 74.2956 23.6478C74.219 23.6851 73.7949 23.8519 72.5354 23.7453C72.4147 23.7351 72.3297 23.7227 72.2737 23.7127C70.8806 22.5236 69.5977 22.9067 66.2715 24.2079C65.6837 23.4248 64.7491 22.6714 63.0782 22.1311C58.8912 20.7779 56.2148 23.3614 54.2605 25.2477C51.824 27.5993 50.064 29.2979 45.3272 26.7976C44.2673 26.2381 43.1093 26.3063 42.1503 26.985C41.5967 27.3766 41.2253 27.8876 40.8974 28.3383C40.4051 29.0152 40.2398 29.175 40.0121 29.194C39.5521 29.2325 39.174 29.3676 38.8776 29.5095C38.7819 29.4091 38.6655 29.2789 38.5275 29.1116C37.7476 28.1663 36.7206 27.9673 35.6394 28.0626C36.3036 26.1336 36.741 24.0855 36.741 22.0365C36.741 13.3198 29.8272 6.17919 21.3152 6.08617C21.2877 6.08504 21.2601 6.08458 21.2326 6.08458L21.1944 6.08503C21.1351 6.0839 21.1029 6.08458 21.0666 6.08617C12.5545 6.17919 5.64063 13.3198 5.64063 22.0365C5.64063 25.8828 7.1821 29.7248 8.87085 32.7819C6.71648 33.8649 6.74181 36.1859 6.75647 37.466C6.77557 39.1355 6.72581 39.5936 5.40071 40.1162C4.76182 40.3681 4.27244 40.9065 4.07517 41.5751C3.69486 42.8629 3.62955 43.9525 4.54634 45.0823C4.55256 45.09 4.55945 45.0982 4.56611 45.1066C4.6021 45.2118 4.72606 45.6642 4.72606 46.898C4.72606 48.2026 4.96353 49.396 5.15413 50.3548C5.27742 50.9738 5.46158 51.8995 5.39383 52.2023C5.29808 52.2861 4.75627 52.6787 2.79561 52.9284C1.90881 53.0411 1.14507 53.4899 0.645463 54.1922C-0.32909 55.5613 0.00479459 57.3134 0.327572 59.0077C0.476632 59.7908 0.645907 60.6785 0.617472 61.2481C0.488628 63.8283 2.45173 64.5952 3.19059 64.8837C3.88723 65.1558 4.34752 65.3355 4.62098 67.2851C4.91577 69.3882 6.99505 70.9859 9.34713 70.9859C9.47153 70.9859 9.59682 70.9811 9.72233 70.9721C11.838 70.8188 14.3048 69.18 14.359 65.0741C15.0776 64.9374 16.2627 64.6533 17.1162 63.4877C17.9266 62.3809 18.1885 60.8756 17.9653 58.6064C17.8326 57.259 18.3951 56.5538 18.8365 56.4832C19.2042 56.4245 19.4668 57.0302 19.5796 57.5666C20.2152 60.5891 22.1638 63.808 25.0848 64.1866C26.6763 64.3933 28.9688 63.8297 30.8755 59.9872C30.8961 59.9755 30.931 59.958 30.9839 59.9379C32.1342 59.5029 32.7204 58.2001 32.2934 57.0284C31.8665 55.8567 30.588 55.2592 29.4378 55.6942C28.2957 56.126 27.4282 56.8915 26.9288 57.9077C26.2462 59.2967 25.7393 59.6244 25.6182 59.686C25.2492 59.5416 24.3006 58.4099 23.9241 56.6181C23.151 52.9424 20.3887 51.6519 18.1488 52.0108C15.6205 52.4146 13.1476 55.0215 13.5446 59.0575C13.6268 59.8938 13.5992 60.3711 13.563 60.6203C13.5155 60.6294 13.4677 60.6382 13.4248 60.6461C12.5571 60.8057 9.91671 61.2914 9.91671 64.9362C9.91671 65.9043 9.67857 66.3664 9.52862 66.4305C9.37334 66.4966 9.12321 66.4373 8.97637 66.3617C8.3277 62.3452 6.26508 61.2588 5.0555 60.7654C5.01751 59.8686 4.8449 58.9633 4.68896 58.1445C4.63764 57.8753 4.57433 57.5422 4.52413 57.2339C6.74936 56.8077 8.15687 56.0484 9.01391 54.8334C10.2346 53.1033 9.84896 51.165 9.50863 49.4546C9.3418 48.6154 9.16897 47.7476 9.16897 46.8971C9.16897 45.2578 8.99792 44.2076 8.69624 43.431C11.2469 41.5998 11.2154 38.8501 11.1989 37.4122C11.1965 37.1931 11.1932 36.9013 11.2029 36.6795C11.2374 36.6626 11.2674 36.6417 11.3011 36.6241C11.3931 36.7526 11.4837 36.8785 11.5713 36.998C12.5283 38.3046 17.4892 44.823 21.1908 44.823C24.8924 44.823 29.8536 38.3046 30.8104 36.998C31.5257 36.0211 32.3976 34.7362 33.2502 33.2445C33.6761 33.141 34.0857 33.0301 34.4656 32.926C34.8395 32.8235 35.3044 32.6959 35.6521 32.6214C36.4511 33.4654 37.4837 34.2437 38.7481 34.2435C39.3324 34.2435 39.9664 34.0774 40.6495 33.6745C42.545 33.4129 43.6298 32.1574 44.2689 31.3023C51.1709 34.4655 54.8468 30.918 57.3162 28.5345ZM21.191 40.2719C20.2922 39.9403 17.6416 37.8277 14.8379 33.8843C11.8165 29.6349 10.0838 25.3167 10.0838 22.0369C10.0838 15.777 15.0541 10.652 21.1635 10.6126C21.1728 10.6124 21.1819 10.6124 21.191 10.6121C21.2004 10.6124 21.2095 10.6124 21.2188 10.6126C27.328 10.652 32.2983 15.7768 32.2983 22.0369C32.2983 24.3451 31.4369 27.1681 29.8752 30.1191C29.8729 30.1231 29.8707 30.1274 29.8685 30.1315C29.2125 31.3695 28.4361 32.6295 27.5442 33.8841C24.7403 37.8277 22.0898 39.9403 21.191 40.2719Z" fill="#FF732D"/>
<path d="M21.5 15.2112C17.9159 15.2112 15 18.1682 15 21.8027C15 25.4373 17.9159 28.3943 21.5 28.3943C25.0841 28.3943 28 25.4373 28 21.8027C28 18.1682 25.0841 15.2112 21.5 15.2112ZM21.5 23.9999C20.3053 23.9999 19.3333 23.0143 19.3333 21.8027C19.3333 20.5912 20.3053 19.6055 21.5 19.6055C22.6947 19.6055 23.6667 20.5912 23.6667 21.8027C23.6667 23.0143 22.6947 23.9999 21.5 23.9999Z" fill="#FF732D"/>
<path d="M86.8994 17.7837C87.3668 18.0997 87.9339 18.2536 88.498 18.2536C89.2141 18.2536 89.9252 18.005 90.4196 17.5237L90.4208 17.5225C91.3046 16.6622 91.1607 15.384 90.1002 14.6669C89.0397 13.9504 87.463 14.0668 86.5795 14.9273C85.6957 15.7877 85.8389 17.0664 86.8994 17.7837Z" fill="#FF732D"/>
<path d="M41.8101 58.1797L41.8086 58.1787C40.6331 57.4454 39.0945 57.8175 38.371 59.0093C37.6474 60.2016 38.0148 61.7632 39.1905 62.497C39.5989 62.752 40.051 62.8732 40.4979 62.8732C41.3369 62.8732 42.1567 62.4448 42.6288 61.6667C43.3524 60.4746 42.9857 58.9133 41.8101 58.1797Z" fill="#FF732D"/>
</svg>
