<svg width="438" height="219" viewBox="0 0 438 219" fill="none" xmlns="http://www.w3.org/2000/svg">
<path d="M324.003 107.427H302.467C300.7 107.427 299.268 108.859 299.268 110.626C299.268 112.392 300.7 113.824 302.467 113.824H324.003C325.77 113.824 327.202 112.392 327.202 110.626C327.202 108.859 325.769 107.427 324.003 107.427Z" fill="white"/>
<path d="M324.003 123.01H302.467C300.7 123.01 299.268 124.442 299.268 126.209C299.268 127.975 300.7 129.407 302.467 129.407H324.003C325.77 129.407 327.202 127.975 327.202 126.209C327.202 124.442 325.769 123.01 324.003 123.01Z" fill="white"/>
<path d="M324.003 138.593H302.467C300.7 138.593 299.268 140.025 299.268 141.792C299.268 143.558 300.7 144.99 302.467 144.99H324.003C325.77 144.99 327.202 143.558 327.202 141.792C327.202 140.025 325.769 138.593 324.003 138.593Z" fill="white"/>
<path d="M324.003 154.176H302.467C300.7 154.176 299.268 155.608 299.268 157.375C299.268 159.142 300.7 160.574 302.467 160.574H324.003C325.77 160.574 327.202 159.142 327.202 157.375C327.202 155.609 325.769 154.176 324.003 154.176Z" fill="white"/>
<path d="M324.003 169.76H302.467C300.7 169.76 299.268 171.192 299.268 172.958C299.268 174.725 300.7 176.157 302.467 176.157H324.003C325.77 176.157 327.202 174.725 327.202 172.958C327.202 171.192 325.769 169.76 324.003 169.76Z" fill="white"/>
<path d="M401.961 107.427H350.24C348.473 107.427 347.041 108.859 347.041 110.626C347.041 112.392 348.473 113.824 350.24 113.824H401.961C403.727 113.824 405.159 112.392 405.159 110.626C405.159 108.859 403.727 107.427 401.961 107.427Z" fill="white"/>
<path d="M401.961 123.01H350.24C348.473 123.01 347.041 124.442 347.041 126.209C347.041 127.975 348.473 129.407 350.24 129.407H401.961C403.727 129.407 405.159 127.975 405.159 126.209C405.159 124.442 403.727 123.01 401.961 123.01Z" fill="white"/>
<path d="M401.961 76.2603H350.24C348.473 76.2603 347.041 77.6924 347.041 79.4589C347.041 81.2255 348.473 82.6575 350.24 82.6575H401.961C403.727 82.6575 405.159 81.2255 405.159 79.4589C405.159 77.6924 403.727 76.2603 401.961 76.2603Z" fill="white"/>
<path d="M401.961 91.844H350.24C348.473 91.844 347.041 93.276 347.041 95.0426C347.041 96.8091 348.473 98.2412 350.24 98.2412H401.961C403.727 98.2412 405.159 96.8091 405.159 95.0426C405.159 93.276 403.727 91.844 401.961 91.844Z" fill="white"/>
<path d="M434.486 171.218C443.068 158.049 435.09 140.433 419.659 138.088V133.672C419.659 131.905 418.227 130.473 416.46 130.473C414.694 130.473 413.262 131.905 413.262 133.672V138.07C410.336 138.496 407.503 139.559 405.072 141.063C404.742 139.648 403.475 138.593 401.96 138.593H350.24C348.473 138.593 347.041 140.025 347.041 141.791C347.041 143.558 348.473 144.99 350.24 144.99H400.371C397.933 147.699 396.294 150.874 395.465 154.176H350.24C348.473 154.176 347.041 155.608 347.041 157.375C347.041 159.142 348.473 160.574 350.24 160.574H394.849C395.022 163.8 395.917 166.942 397.452 169.76H350.24C348.473 169.76 347.041 171.192 347.041 172.958C347.041 174.725 348.473 176.157 350.24 176.157H395.934C394.098 181.642 394.618 187.491 396.885 192.279C378.622 186.743 359.558 183.679 340.336 182.806V60.0894H413.262V118.745C413.262 120.512 414.694 121.944 416.461 121.944C418.227 121.944 419.659 120.512 419.659 118.745V60.0894C419.659 56.5619 416.79 53.6922 413.262 53.6922H406.355V41.814C406.355 37.9097 403.179 34.7333 399.275 34.7333H352.925C349.021 34.7333 345.845 37.9097 345.845 41.814V53.6926H340.194C336.745 53.6926 333.94 56.4986 333.94 59.9474V89.9418H292.501C289.013 89.9418 286.176 92.7794 286.176 96.2676V186.269C278.788 187.584 271.557 189.239 264.533 191.219V188.613C271.776 187.129 277.24 180.706 277.24 173.031C277.24 170.152 276.454 167.335 274.995 164.885C276.455 162.436 277.24 159.617 277.24 156.739C277.24 147.969 270.105 140.834 261.335 140.834C249.07 140.834 241.341 154.258 247.674 164.885C246.215 167.335 245.429 170.153 245.429 173.031C245.429 180.706 250.894 187.129 258.136 188.614V193.13C245.33 197.178 233.3 202.333 222.402 208.519C220.231 209.751 219.2 212.203 219.838 214.62C220.477 217.039 222.586 218.665 225.087 218.665H320.714C322.48 218.665 323.912 217.233 323.912 215.466C323.912 213.7 322.48 212.267 320.714 212.267H228.847C281.723 183.888 356.502 181.436 413.205 204.889V212.267H335.638C333.872 212.267 332.44 213.7 332.44 215.466C332.44 217.233 333.872 218.665 335.638 218.665H432.544C438.125 218.664 440.086 211.242 435.234 208.491C431.804 206.546 428.258 204.706 424.615 202.967C437.13 197.798 441.868 182.546 434.486 171.218ZM352.243 41.814C352.243 41.4436 352.556 41.1305 352.926 41.1305C402.591 41.1305 399.959 40.8375 399.959 41.814V53.6922H352.243V41.814ZM261.334 163.578C259.568 163.578 258.136 165.011 258.136 166.777V181.985C254.462 180.668 251.825 177.152 251.825 173.031C251.825 170.806 252.611 168.642 254.037 166.936C255.03 165.748 255.03 164.02 254.037 162.832C248.876 156.662 253.293 147.23 261.334 147.23C266.577 147.23 270.843 151.495 270.843 156.739C270.843 158.964 270.058 161.128 268.632 162.833C267.639 164.021 267.639 165.749 268.632 166.937C272.86 171.993 270.766 179.751 264.533 181.984V166.777C264.532 165.011 263.1 163.578 261.334 163.578ZM333.94 182.594C320.311 182.312 306.076 183.187 292.573 185.201V96.339H333.94V182.594ZM428.838 212.266H419.601V207.68C422.756 209.132 425.841 210.658 428.838 212.266ZM419.601 197.855V163.507C419.601 161.741 418.169 160.309 416.403 160.309C414.636 160.309 413.204 161.741 413.204 163.507V179.452L411.928 178.536C410.493 177.506 408.495 177.834 407.465 179.27C406.435 180.705 406.763 182.703 408.199 183.733L413.204 187.325V197.855C401.937 195.429 397.481 181.956 404.745 173.27C405.242 172.676 405.49 171.947 405.49 171.218C405.49 169.771 404.741 169.263 403.939 168.111C399.329 161.495 400.672 152.433 407.097 147.437C421.679 136.085 439.421 155.583 428.06 169.166C427.067 170.354 427.067 172.082 428.06 173.27C435.373 182.014 430.749 195.455 419.601 197.855Z" fill="white"/>
<path d="M238.619 30.7378C238.58 30.4602 238.528 30.1847 238.462 29.9124C237.851 27.9031 238.34 26.048 239.444 24.3883C240.402 22.9442 241.636 21.7042 243.075 20.7398C244.26 19.9467 245.579 19.5648 246.935 19.2711C249.624 18.6924 252.112 19.2299 254.392 20.7398C255.577 21.5242 256.425 22.6258 257.087 23.8595C257.642 24.895 258.086 25.9834 258.239 27.1276C258.505 27.367 258.747 27.2363 258.982 27.1775C259.634 27.0039 260.314 26.9626 260.982 27.0559C261.649 27.1492 262.292 27.3754 262.871 27.721C263.688 28.1684 264.345 28.8595 264.75 29.6979C265.001 30.2252 265.212 30.7701 265.471 31.3753C265.794 31.3958 266.118 31.3929 266.44 31.3665C267.151 31.2637 267.74 31.5016 268.341 31.86C269.974 32.8308 270.258 34.282 269.98 35.7522C269.686 37.3194 268.846 38.5077 267.351 39.2318C265.556 40.1013 263.653 40.3613 261.711 40.3495C259.819 40.3393 257.929 40.2027 256.038 40.1072C253.943 39.9926 251.848 39.7943 249.751 39.7429C248.321 39.7083 246.89 39.7805 245.471 39.9588C242.709 40.3084 239.949 40.5331 237.169 40.3613C236.457 40.299 235.752 40.1757 235.061 39.9926C233.823 39.6989 233.055 38.8528 232.512 37.7366C232.074 36.8362 231.964 35.9021 231.987 34.9209C231.994 34.1971 232.26 33.4998 232.738 32.9557C234.145 31.3518 235.849 30.4147 238.068 30.7364C238.251 30.7465 238.435 30.747 238.619 30.7378ZM263.882 32.7324C263.811 32.3432 263.752 31.976 263.678 31.6132C263.396 30.2487 262.701 29.2382 261.351 28.7006C260.556 28.3848 259.819 28.3158 259.051 28.7183C258.72 28.8994 258.376 29.0564 258.023 29.1883C257.381 29.413 256.973 29.1883 256.782 28.52C256.729 28.3601 256.701 28.1932 256.698 28.025C256.721 26.9337 256.29 25.9569 255.846 25.0155C254.922 23.0723 253.47 21.6872 251.406 20.9528C249.632 20.3227 247.868 20.3447 246.079 20.8544C245.31 21.0721 244.58 21.4113 243.918 21.859C242.747 22.6434 241.828 23.6774 240.947 24.7496C240.376 25.4324 239.986 26.2483 239.814 27.1217C239.59 28.2806 239.551 29.4585 240.276 30.5278C240.516 30.9239 240.708 31.3469 240.85 31.788C240.891 31.8961 240.903 32.0131 240.884 32.1273C240.866 32.2415 240.817 32.3487 240.744 32.4382C240.671 32.5276 240.575 32.5961 240.467 32.6367C240.358 32.6773 240.241 32.6885 240.127 32.6693C239.836 32.6209 239.556 32.5215 239.3 32.3755C237.577 31.3988 235.589 32.1155 234.484 33.3273C234.177 33.6607 233.848 34.0617 233.75 34.4803C233.469 35.6803 233.735 36.8098 234.477 37.8129C234.961 38.468 235.668 38.7383 236.421 38.8749C237.831 39.1329 239.271 39.1824 240.696 39.0218C242.618 38.8029 244.539 38.5238 246.468 38.4093C249.873 38.2129 253.288 38.3003 256.679 38.6707C258.939 38.9182 261.215 38.9771 263.485 38.847C264.562 38.7838 265.541 38.4445 266.495 37.9804C266.946 37.7482 267.331 37.4069 267.617 36.9875C268.071 36.3574 268.285 35.6333 268.46 34.8945C268.518 34.668 268.513 34.43 268.446 34.2061C268.378 33.9823 268.251 33.781 268.078 33.624C267.931 33.4771 267.784 33.3214 267.624 33.1833C267.081 32.7324 266.515 32.4622 265.772 32.7427C265.215 32.963 264.618 32.9851 263.879 32.7324H263.882Z" fill="#7B7B7B"/>
<path d="M263.879 32.7324C264.613 32.9851 265.215 32.963 265.769 32.753C266.512 32.4695 267.078 32.7398 267.621 33.1936C267.781 33.3288 267.925 33.4874 268.075 33.6343C268.248 33.7913 268.375 33.9926 268.443 34.2164C268.51 34.4403 268.515 34.6783 268.457 34.9048C268.282 35.6392 268.068 36.3735 267.614 36.9978C267.329 37.4172 266.943 37.7585 266.492 37.9907C265.539 38.4548 264.559 38.7941 263.482 38.8573C261.213 38.9874 258.936 38.9285 256.676 38.681C253.285 38.3106 249.87 38.2231 246.465 38.4196C244.536 38.5341 242.615 38.8132 240.693 39.032C239.268 39.1927 237.828 39.1432 236.418 38.8852C235.665 38.7486 234.959 38.4783 234.474 37.8232C233.739 36.8201 233.466 35.6906 233.747 34.4906C233.845 34.0705 234.174 33.671 234.481 33.3376C235.589 32.1155 237.577 31.3988 239.3 32.3799C239.556 32.5259 239.836 32.6254 240.127 32.6737C240.241 32.6929 240.358 32.6817 240.467 32.6411C240.575 32.6005 240.671 32.532 240.744 32.4426C240.817 32.3531 240.866 32.2459 240.884 32.1317C240.903 32.0176 240.891 31.9005 240.85 31.7924C240.708 31.3513 240.516 30.9283 240.276 30.5322C239.551 29.4541 239.59 28.2762 239.814 27.1217C239.986 26.2483 240.376 25.4324 240.947 24.7496C241.828 23.6774 242.747 22.6434 243.918 21.8546C244.58 21.4069 245.31 21.0677 246.079 20.85C247.868 20.3403 249.632 20.3183 251.406 20.9484C253.462 21.6828 254.922 23.0723 255.837 25.0155C256.278 25.9569 256.719 26.9337 256.689 28.025C256.692 28.1932 256.72 28.3601 256.773 28.52C256.964 29.1824 257.372 29.413 258.014 29.1883C258.368 29.0564 258.711 28.8994 259.042 28.7183C259.81 28.3158 260.548 28.3848 261.342 28.7006C262.692 29.2382 263.387 30.2487 263.669 31.6132C263.75 31.976 263.808 32.3432 263.879 32.7324Z" fill="white"/>
<path d="M279.269 38.521C279.216 38.1613 279.143 37.8044 279.051 37.4517C278.204 34.8488 278.882 32.4456 280.413 30.2955C281.741 28.4247 283.451 26.8183 285.447 25.5691C287.09 24.5416 288.919 24.0469 290.798 23.6664C294.527 22.9167 297.976 23.6131 301.136 25.5691C302.78 26.5852 303.955 28.0122 304.873 29.6105C305.643 30.9519 306.258 32.3619 306.469 33.8441C306.838 34.1543 307.174 33.9849 307.5 33.9088C308.403 33.6839 309.346 33.6304 310.272 33.7513C311.198 33.8722 312.089 34.1651 312.892 34.6128C314.024 35.1924 314.934 36.0877 315.496 37.1739C315.844 37.857 316.138 38.5629 316.496 39.3468C316.944 39.3735 317.393 39.3696 317.84 39.3354C318.825 39.2022 319.642 39.5105 320.475 39.9747C322.739 41.2324 323.132 43.1124 322.747 45.017C322.34 47.0472 321.175 48.5865 319.102 49.5246C316.614 50.651 313.975 50.9878 311.283 50.9726C308.66 50.9592 306.04 50.7823 303.419 50.6586C300.513 50.5102 297.61 50.2533 294.702 50.1867C292.719 50.1419 290.736 50.2354 288.768 50.4664C284.94 50.9193 281.114 51.2104 277.259 50.9878C276.272 50.9071 275.295 50.7473 274.337 50.5102C272.621 50.1297 271.556 49.0337 270.802 47.5876C270.195 46.4212 270.043 45.2111 270.075 43.94C270.085 43.0024 270.454 42.0991 271.116 41.3942C273.067 39.3164 275.429 38.1024 278.505 38.5191C278.76 38.5322 279.015 38.5329 279.269 38.521ZM314.293 41.105C314.195 40.6007 314.114 40.1251 314.01 39.6551C313.619 37.8874 312.656 36.5783 310.784 35.8819C309.683 35.4729 308.66 35.3834 307.595 35.9048C307.137 36.1394 306.66 36.3429 306.17 36.5137C305.28 36.8048 304.714 36.5137 304.449 35.6479C304.377 35.4408 304.338 35.2246 304.333 35.0067C304.366 33.593 303.767 32.3276 303.152 31.108C301.872 28.5906 299.858 26.7964 296.997 25.845C294.537 25.0287 292.091 25.0573 289.611 25.7175C288.545 25.9996 287.534 26.4389 286.616 27.019C284.993 28.035 283.718 29.3746 282.496 30.7636C281.705 31.6481 281.165 32.705 280.927 33.8365C280.615 35.3378 280.562 36.8638 281.566 38.249C281.899 38.7621 282.166 39.31 282.362 39.8815C282.419 40.0215 282.436 40.1732 282.41 40.3211C282.384 40.469 282.317 40.6079 282.215 40.7238C282.114 40.8396 281.981 40.9283 281.831 40.9809C281.681 41.0335 281.518 41.0481 281.36 41.0231C280.957 40.9605 280.569 40.8317 280.214 40.6426C277.825 39.3773 275.068 40.3058 273.537 41.8756C273.111 42.3075 272.655 42.8269 272.519 43.3692C272.13 44.9238 272.498 46.387 273.527 47.6865C274.199 48.5352 275.178 48.8853 276.223 49.0622C278.177 49.3965 280.174 49.4606 282.148 49.2525C284.814 48.969 287.477 48.6075 290.151 48.4591C294.871 48.2046 299.606 48.3179 304.307 48.7977C307.44 49.1183 310.596 49.1947 313.743 49.0261C315.236 48.9442 316.594 48.5047 317.915 47.9034C318.541 47.6027 319.075 47.1605 319.471 46.6172C320.1 45.8009 320.397 44.8629 320.64 43.9058C320.72 43.6124 320.713 43.3041 320.62 43.0141C320.527 42.7241 320.35 42.4633 320.11 42.2599C319.907 42.0697 319.703 41.868 319.481 41.6891C318.728 41.105 317.944 40.7549 316.913 41.1183C316.142 41.4037 315.313 41.4322 314.289 41.105H314.293Z" fill="#7B7B7B"/>
<path d="M314.289 41.105C315.307 41.4322 316.142 41.4037 316.909 41.1316C317.94 40.7644 318.724 41.1145 319.477 41.7024C319.699 41.8775 319.899 42.083 320.106 42.2732C320.346 42.4766 320.523 42.7374 320.616 43.0274C320.709 43.3174 320.716 43.6257 320.636 43.9191C320.393 44.8705 320.096 45.8219 319.467 46.6305C319.071 47.1738 318.536 47.616 317.911 47.9168C316.59 48.518 315.231 48.9576 313.739 49.0394C310.592 49.208 307.436 49.1316 304.303 48.8111C299.602 48.3312 294.867 48.2179 290.147 48.4724C287.473 48.6208 284.81 48.9823 282.144 49.2658C280.17 49.474 278.173 49.4099 276.219 49.0755C275.174 48.8986 274.195 48.5485 273.523 47.6999C272.505 46.4003 272.126 44.9371 272.515 43.3825C272.651 42.8384 273.107 42.3208 273.533 41.8889C275.068 40.3058 277.825 39.3773 280.214 40.6483C280.569 40.8374 280.957 40.9662 281.36 41.0289C281.518 41.0538 281.681 41.0392 281.831 40.9866C281.981 40.9341 282.114 40.8453 282.215 40.7295C282.317 40.6136 282.384 40.4747 282.41 40.3268C282.436 40.1789 282.419 40.0272 282.362 39.8872C282.166 39.3157 281.899 38.7678 281.566 38.2547C280.562 36.858 280.615 35.3321 280.927 33.8365C281.165 32.705 281.705 31.6481 282.496 30.7636C283.718 29.3746 284.993 28.035 286.616 27.0133C287.534 26.4332 288.545 25.9939 289.611 25.7118C292.091 25.0516 294.537 25.023 296.997 25.8393C299.847 26.7907 301.872 28.5906 303.14 31.108C303.751 32.3276 304.362 33.5929 304.321 35.0067C304.325 35.2246 304.365 35.4408 304.437 35.6479C304.702 36.506 305.268 36.8048 306.158 36.5137C306.648 36.3429 307.124 36.1394 307.583 35.9048C308.648 35.3834 309.67 35.4729 310.772 35.8819C312.643 36.5783 313.607 37.8874 313.997 39.6551C314.109 40.1251 314.191 40.6007 314.289 41.105Z" fill="white"/>
<g clip-path="url(#clip0_150_271)">
<path d="M84.4775 74.4258V95.8125H105.864V74.4258H84.4775ZM99.4482 89.3965H90.8936V80.8418H99.4482V89.3965Z" fill="white"/>
<path d="M113.563 74.4258V95.8125H134.95V74.4258H113.563ZM128.534 89.3965H119.979V80.8418H128.534V89.3965Z" fill="white"/>
<path d="M84.4775 103.512V124.898H105.864V103.512H84.4775ZM99.4482 118.482H90.8936V109.928H99.4482V118.482Z" fill="white"/>
<path d="M113.563 103.512V124.898H134.95V103.512H113.563ZM128.534 118.482H119.979V109.928H128.534V118.482Z" fill="white"/>
<path d="M84.4775 130.887V152.273H105.864V130.887H84.4775ZM99.4482 145.857H90.8936V137.303H99.4482V145.857Z" fill="white"/>
<path d="M113.563 130.887V152.273H134.95V130.887H113.563ZM128.534 145.857H119.979V137.303H128.534V145.857Z" fill="white"/>
<path d="M185.209 41.1604L158.048 53.7846V33.8312L129.817 24.4211V20.3174C129.817 9.11459 120.703 0 109.5 0C98.2972 0 89.1826 9.11459 89.1826 20.3174V24.4211L60.9521 33.8312V62.0215V62.2978C53.9903 56.7274 49.8311 48.257 49.8311 39.1377V35.9297H17.751V39.1377C17.751 50.0903 11.7554 60.1112 2.10488 65.2898L0.213867 66.3044V219H218.786V56.7668L185.209 41.1604ZM60.9521 212.584H6.62988V155.695H60.9521V212.584ZM60.9521 149.279H6.62988V92.3906H60.9521V149.279ZM60.9521 85.9746H6.62988V70.0971C16.5717 64.143 23.0087 53.8269 24.0254 42.3457H43.5566C44.5733 53.8269 51.0103 64.143 60.9521 70.0971V85.9746ZM121.263 212.584H97.7373V178.151C97.7373 171.665 103.014 166.389 109.5 166.389C115.986 166.389 121.263 171.665 121.263 178.151V212.584ZM151.632 212.584H127.679V178.151C127.679 168.127 119.524 159.973 109.5 159.973C99.476 159.973 91.3213 168.127 91.3213 178.151V212.584H67.3682V62.0215H151.632V212.584ZM151.632 55.6055H67.3682V38.4559L95.5986 29.0457V20.3174C95.5986 12.6524 101.835 6.41602 109.5 6.41602C117.165 6.41602 123.401 12.6524 123.401 20.3174V29.0457L151.632 38.4559V55.6055ZM212.37 212.584H158.048V146.713H212.37V212.584ZM212.37 140.297H158.048V78.2754H212.37V140.297ZM212.37 71.8594H158.048V60.8602L185.209 48.236L212.37 60.8602V71.8594Z" fill="white"/>
<path d="M173.446 87.0439H167.03V126.396H173.446V87.0439Z" fill="white"/>
<path d="M188.417 87.0439H182.001V126.396H188.417V87.0439Z" fill="white"/>
<path d="M203.388 87.0439H196.972V126.396H203.388V87.0439Z" fill="white"/>
<path d="M22.0283 105.009H15.6123V134.95H22.0283V105.009Z" fill="white"/>
<path d="M36.999 105.009H30.583V134.95H36.999V105.009Z" fill="white"/>
<path d="M51.9697 105.009H45.5537V134.95H51.9697V105.009Z" fill="white"/>
<path d="M22.0283 169.597H15.6123V199.538H22.0283V169.597Z" fill="white"/>
<path d="M36.999 169.597H30.583V199.538H36.999V169.597Z" fill="white"/>
<path d="M51.9697 169.597H45.5537V199.538H51.9697V169.597Z" fill="white"/>
<path d="M173.446 158.476H167.03V197.827H173.446V158.476Z" fill="white"/>
<path d="M188.417 158.476H182.001V197.827H188.417V158.476Z" fill="white"/>
<path d="M203.388 158.476H196.972V197.827H203.388V158.476Z" fill="white"/>
<path d="M113.136 16.4678H106.72V22.8838H113.136V16.4678Z" fill="white"/>
<path d="M188.417 57.1025H182.001V63.5186H188.417V57.1025Z" fill="white"/>
<path d="M106.292 41.4902H99.876V47.9062H106.292V41.4902Z" fill="white"/>
<path d="M93.46 41.4902H87.0439V47.9062H93.46V41.4902Z" fill="white"/>
<path d="M119.124 41.4902H112.708V47.9062H119.124V41.4902Z" fill="white"/>
<path d="M131.956 41.4902H125.54V47.9062H131.956V41.4902Z" fill="white"/>
<path d="M140.511 177.938H134.095V199.324H140.511V177.938Z" fill="white"/>
<path d="M85.333 177.938H78.917V199.324H85.333V177.938Z" fill="white"/>
<path d="M31.2246 66.2988H25.2363V72.7148H31.2246V66.2988Z" fill="white"/>
<path d="M43.6289 59.0273H37.6406V65.4434H43.6289V59.0273Z" fill="white"/>
<path d="M34.2188 50.0449H28.2305V56.4609H34.2188V50.0449Z" fill="white"/>
<path d="M43.6289 70.5762H37.6406V76.9922H43.6289V70.5762Z" fill="white"/>
<path d="M55.6055 73.5703H49.6172V79.9863H55.6055V73.5703Z" fill="white"/>
<path d="M17.9648 73.5703H11.9766V79.9863H17.9648V73.5703Z" fill="white"/>
</g>
<defs>
<clipPath id="clip0_150_271">
<rect width="219" height="219" fill="white"/>
</clipPath>
</defs>
</svg>
