<svg width="88" height="72" viewBox="0 0 88 72" fill="none" xmlns="http://www.w3.org/2000/svg">
<path d="M11.0433 13.6667L17.1948 19.8181C17.7543 20.3775 18.6613 20.3775 19.2209 19.8181L25.3723 13.6667L27.6449 15.9392L17.1948 26.3894L19.2209 28.4155L29.671 17.9654L35.8225 24.1168C36.382 24.6762 37.289 24.6762 37.8486 24.1168L44 17.9654L50.1514 24.1168C50.711 24.6762 51.618 24.6762 52.1776 24.1168L58.329 17.9654L68.7791 28.4155L70.8052 26.3894L60.3551 15.9392L62.6277 13.6667L68.7791 19.8181C69.3387 20.3775 70.2457 20.3775 70.8052 19.8181L76.9567 13.6667L85.9739 22.6839L88 20.6578L70.8052 3.463C70.2457 2.90364 69.3387 2.90364 68.7791 3.463L58.329 13.9131L45.0131 0.597209C44.4535 0.037841 43.5465 0.037841 42.9869 0.597209L29.671 13.9131L19.2209 3.463C18.6613 2.90364 17.7543 2.90364 17.1948 3.463L0 20.6578L2.02612 22.6839L11.0433 13.6667ZM69.7922 6.50218L74.9305 11.6406L69.7922 16.7789L64.6538 11.6406L69.7922 6.50218ZM44 3.63639L56.3029 15.9392L51.1645 21.0776L45.0131 14.9262C44.4535 14.3668 43.5465 14.3668 42.9869 14.9262L36.8355 21.0776L31.6971 15.9392L44 3.63639ZM18.2078 6.50218L23.3462 11.6406L18.2078 16.7789L13.0695 11.6406L18.2078 6.50218Z" fill="#FF732D"/>
<path d="M58.329 66.0907H62.6277C63.419 66.0907 64.0606 65.4491 64.0606 64.6578V58.9262C64.0606 58.1349 63.419 57.4933 62.6277 57.4933H58.329C57.5377 57.4933 56.8961 58.1349 56.8961 58.9262V64.6578C56.8961 65.4491 57.5377 66.0907 58.329 66.0907ZM59.7619 60.3591H61.1948V63.2249H59.7619V60.3591Z" fill="#FF732D"/>
<path d="M29.671 57.4933H25.3723C24.581 57.4933 23.9394 58.1349 23.9394 58.9262V64.6578C23.9394 65.4491 24.581 66.0907 25.3723 66.0907H29.671C30.4623 66.0907 31.1039 65.4491 31.1039 64.6578V58.9262C31.1039 58.1349 30.4623 57.4933 29.671 57.4933ZM28.2381 63.2249H26.8052V60.3591H28.2381V63.2249Z" fill="#FF732D"/>
<path d="M86.9869 51.7617C86.9923 48.4282 85.5415 45.2587 83.0149 43.0841C85.3448 38.9468 83.8797 33.7041 79.7424 31.3742C75.6051 29.0444 70.3625 30.5095 68.0326 34.6468C67.3073 35.9346 66.9264 37.3878 66.9264 38.8656H69.7922C69.7952 35.7002 72.3637 33.1365 75.5293 33.1396C78.6948 33.1426 81.2584 35.7111 81.2553 38.8767C81.2541 40.1993 80.7954 41.4808 79.9571 42.5039C79.4599 43.1195 79.5557 44.0217 80.1714 44.5189C80.2057 44.5467 80.2414 44.5728 80.2781 44.5974C84.2342 47.2133 85.3205 52.5408 82.7045 56.4969C81.3899 58.4852 79.3077 59.8375 76.9566 60.2303V55.2152L82.2684 49.9034L80.2423 47.8771L76.9566 51.1685V42.3246L79.4026 39.8787L77.3765 37.8526L76.9566 38.2724V35.9998H74.0909V68.9565H69.7922V56.6536L70.212 57.0735L72.2381 55.0473L69.7922 52.6014V46.0301C69.7922 45.2388 69.1506 44.5972 68.3593 44.5972H62.6277V38.8656H64.0606C64.8519 38.8656 65.4935 38.224 65.4935 37.4327V31.7011C65.4935 30.9098 64.8519 30.2682 64.0606 30.2682H47.459L45.0131 27.8223C44.4535 27.2629 43.5465 27.2629 42.9869 27.8223L40.541 30.2682H23.9394C23.1481 30.2682 22.5065 30.9098 22.5065 31.7011V37.4327C22.5065 38.224 23.1481 38.8656 23.9394 38.8656H25.3723V44.5972H19.6407C18.8494 44.5972 18.2078 45.2388 18.2078 46.0301V52.6014L15.7619 55.0473L17.788 57.0735L18.2078 56.6536V68.9565H13.9091V35.9998H11.0433V38.2724L10.6235 37.8526L8.59739 39.8787L11.0433 42.3246V51.1685L7.75771 47.8828L5.73159 49.909L11.0433 55.2207V60.2359C6.36493 59.4582 3.20271 55.035 3.98041 50.3566C4.37213 48 5.72783 45.913 7.72189 44.5972C8.38192 44.1605 8.563 43.2716 8.12632 42.6116C8.10035 42.5723 8.07259 42.5345 8.04286 42.498C6.03662 40.0495 6.39502 36.4383 8.84367 34.432C11.2921 32.4258 14.9034 32.7842 16.9098 35.2329C17.7493 36.2574 18.208 37.5413 18.208 38.8658H21.0738C21.0731 34.1175 17.2234 30.2689 12.4752 30.2697C7.7269 30.2704 3.87832 34.12 3.87903 38.8683C3.87921 40.3458 4.26018 41.7984 4.98523 43.0857C0.19774 47.2282 -0.32491 54.4675 3.8176 59.255C5.66675 61.392 8.24006 62.7707 11.0435 63.1262V68.9567H1.01324V71.8224H86.9871V68.9567H76.9568V63.1262C82.6823 62.3995 86.9773 57.5332 86.9869 51.7617ZM62.6277 33.134V35.9998H53.1906L50.3248 33.134H62.6277ZM59.7619 38.8656V42.5711L56.0564 38.8656H59.7619ZM25.3723 33.134H37.6752L34.8094 35.9998H25.3723V33.134ZM31.9436 38.8656L28.2381 42.5711V38.8656H31.9436ZM21.0736 47.463H23.3462L21.0736 49.7356V47.463ZM45.4329 68.9565H42.5671V60.3591H45.4329V68.9565ZM51.1645 68.9565H48.2987V58.9262C48.2987 58.1349 47.6571 57.4933 46.8658 57.4933H41.1342C40.3429 57.4933 39.7013 58.1349 39.7013 58.9262V68.9565H36.8355V54.6275H51.1645V68.9565ZM36.8355 51.7617V47.463H39.7013V51.7617H36.8355ZM45.4329 47.463V51.7617H42.5671V47.463H45.4329ZM42.5671 44.5972V40.2985H45.4329V44.5972H42.5671ZM51.1645 51.7617H48.2987V47.463H51.1645V51.7617ZM66.9264 68.9565H54.0303V46.0301C54.0303 45.2388 53.3887 44.5972 52.5974 44.5972H48.2987V38.8656C48.2987 38.0743 47.6571 37.4327 46.8658 37.4327H41.1342C40.3429 37.4327 39.7013 38.0743 39.7013 38.8656V44.5972H35.4026C34.6113 44.5972 33.9697 45.2388 33.9697 46.0301V68.9565H21.0736V53.7878L44 30.8614L66.9264 53.7878V68.9565ZM66.9264 49.7356L64.6538 47.463H66.9264V49.7356Z" fill="#FF732D"/>
</svg>
