<svg width="96" height="72" viewBox="0 0 96 72" fill="none" xmlns="http://www.w3.org/2000/svg">
<path d="M20.7999 48.8001C18.1536 48.8001 15.9999 50.9537 15.9999 53.6001C15.9999 56.2464 18.1536 58.4001 20.7999 58.4001C23.4463 58.4001 25.5999 56.2464 25.5999 53.6001C25.5999 50.9537 23.4463 48.8001 20.7999 48.8001ZM20.7999 55.2C19.9183 55.2 19.2 54.4817 19.2 53.6001C19.2 52.7184 19.9183 52.0001 20.7999 52.0001C21.6816 52.0001 22.3999 52.7184 22.3999 53.6001C22.4001 54.4817 21.6816 55.2 20.7999 55.2Z" fill="#FF732D"/>
<path d="M84.8001 0.800062H4.8C2.15363 0.800062 0 2.95369 0 5.60006V50.4C0 53.0464 2.15363 55.2 4.8 55.2C5.68313 55.2 6.39994 54.4832 6.39994 53.6001C6.39994 52.7169 5.68313 52.0001 4.8 52.0001C3.91838 52.0001 3.20006 51.2818 3.20006 50.4002V45.6002H4.8C5.68313 45.6002 6.39994 44.8834 6.39994 44.0003C6.39994 43.1171 5.68313 42.4003 4.8 42.4003H3.20006V5.60006C3.20006 4.71844 3.91838 4.00013 4.8 4.00013H73.5999V7.2H8.00006C7.11694 7.2 6.40012 7.91681 6.40012 8.79994C6.40012 9.68306 7.11694 10.3999 8.00006 10.3999H9.6V29.5999H8.00006C7.11694 29.5999 6.40012 30.3167 6.40012 31.1998C6.40012 32.0829 7.11694 32.7998 8.00006 32.7998H73.6001V39.1997C73.6001 40.0828 74.3169 40.7996 75.2001 40.7996C76.0832 40.7996 76.8 40.0828 76.8 39.1997V32.7998H92.7999V42.3998H91.2C90.3169 42.3998 89.6001 43.1166 89.6001 43.9997C89.6001 44.8828 90.3169 45.5996 91.2 45.5996H92.7999V50.3996C92.7999 51.2813 92.0816 51.9996 91.2 51.9996H86.2719C85.4927 46.5804 80.832 42.3996 75.1999 42.3996C69.0238 42.3996 63.9999 47.4236 63.9999 53.5995C63.9999 59.7756 69.024 64.7994 75.1999 64.7994C80.8318 64.7994 85.4927 60.6186 86.2719 55.1994H91.2C93.8464 55.1994 96 53.0458 96 50.3994V12C96 5.72006 91.08 0.800062 84.8001 0.800062ZM25.5999 29.6001H12.8001V10.4001H25.6001L25.5999 29.6001ZM41.6001 29.6001H28.8V10.4001H41.6001V29.6001ZM57.6 29.6001H44.7999V10.4001H57.6V29.6001ZM73.5999 29.6001H60.7999V10.4001H73.5999V29.6001ZM75.2001 61.5999C70.7889 61.5999 67.2 58.0112 67.2 53.5999C67.2 49.1888 70.7887 45.5998 75.2001 45.5998C79.6112 45.5998 83.2001 49.1886 83.2001 53.5999C83.1999 58.0112 79.6112 61.5999 75.2001 61.5999ZM92.7999 29.6001H87.3887L89.4319 25.5152C89.8271 24.7249 89.5056 23.7649 88.7151 23.3696C87.9231 22.9712 86.9631 23.2944 86.5678 24.0848L83.811 29.5999H76.8V3.99994H84.8001C89.3617 3.99994 92.8001 7.43831 92.8001 12L92.7999 29.6001Z" fill="#FF732D"/>
<path d="M60.8001 53.6001C60.8001 52.7169 60.0832 52.0001 59.2001 52.0001H31.872C31.0927 46.581 26.4321 42.4001 20.7999 42.4001C14.6239 42.4001 9.6 47.4242 9.6 53.6001C9.6 59.7761 14.6241 64.8 20.7999 64.8C26.4319 64.8 31.0927 60.6191 31.872 55.2H59.1999C60.0832 55.2 60.8001 54.4832 60.8001 53.6001ZM20.7999 61.5999C16.3888 61.5999 12.7999 58.0112 12.7999 53.5999C12.7999 49.1887 16.3886 45.5998 20.7999 45.5998C25.2111 45.5998 28.8 49.1886 28.8 53.5999C28.8 58.0112 25.2113 61.5999 20.7999 61.5999Z" fill="#FF732D"/>
<path d="M75.2001 48.8001C72.5537 48.8001 70.4001 50.9537 70.4001 53.6001C70.4001 56.2464 72.5537 58.4001 75.2001 58.4001C77.8464 58.4001 80.0001 56.2464 80.0001 53.6001C80.0001 50.9537 77.8464 48.8001 75.2001 48.8001ZM75.2001 55.2C74.3184 55.2 73.6001 54.4817 73.6001 53.6001C73.6001 52.7184 74.3184 52.0001 75.2001 52.0001C76.0817 52.0001 76.8 52.7184 76.8 53.6001C76.8 54.4817 76.0817 55.2 75.2001 55.2Z" fill="#FF732D"/>
<path d="M24 68.0001H1.59994C0.716812 68.0001 0 68.7169 0 69.6C0 70.4831 0.716812 71.1999 1.59994 71.1999H24C24.8831 71.1999 25.5999 70.4831 25.5999 69.6C25.5999 68.7169 24.8831 68.0001 24 68.0001Z" fill="#FF732D"/>
<path d="M62.4 68.0001H59.1999C58.3168 68.0001 57.6 68.7169 57.6 69.6C57.6 70.4831 58.3168 71.1999 59.1999 71.1999H62.4C63.2831 71.1999 63.9999 70.4831 63.9999 69.6C63.9999 68.7169 63.2831 68.0001 62.4 68.0001Z" fill="#FF732D"/>
<path d="M94.4001 68.0001H68.7999C67.9168 68.0001 67.2 68.7169 67.2 69.6C67.2 70.4831 67.9168 71.1999 68.7999 71.1999H94.3999C95.283 71.1999 95.9998 70.4831 95.9998 69.6C95.9998 68.7169 95.2832 68.0001 94.4001 68.0001Z" fill="#FF732D"/>
<path d="M49.5999 68.0001H33.6C32.7169 68.0001 32.0001 68.7169 32.0001 69.6C32.0001 70.4831 32.7169 71.1999 33.6 71.1999H49.5999C50.4831 71.1999 51.1999 70.4831 51.1999 69.6C51.1999 68.7169 50.4832 68.0001 49.5999 68.0001Z" fill="#FF732D"/>
<path d="M62.4 45.6C63.2831 45.6 63.9999 44.8832 63.9999 44.0001C63.9999 43.1169 63.2831 42.4001 62.4 42.4001H33.6C32.7169 42.4001 32.0001 43.1169 32.0001 44.0001C32.0001 44.8832 32.7169 45.6 33.6 45.6H62.4Z" fill="#FF732D"/>
</svg>
