<svg width="76" height="76" viewBox="0 0 76 76" fill="none" xmlns="http://www.w3.org/2000/svg">
<path d="M53.441 22.6895C53.0315 22.6895 52.6235 22.523 52.3265 22.1945C49.412 18.968 44.7995 17.033 40.541 17.2565C38.189 17.3825 34.8845 18.2255 32.4965 21.5225C32.0105 22.1915 31.073 22.346 30.4025 21.857C29.732 21.3725 29.582 20.4335 30.0665 19.763C32.471 16.4435 36.134 14.4905 40.3805 14.2625C45.5555 13.9655 51.0035 16.253 54.554 20.186C55.109 20.801 55.061 21.749 54.446 22.304C54.158 22.562 53.7995 22.6895 53.441 22.6895Z" fill="#FF732D"/>
<path d="M14 75.5C13.61 75.5 13.22 75.335 12.935 75.065C12.665 74.78 12.5 74.39 12.5 74C12.5 73.61 12.665 73.2185 12.935 72.935C13.49 72.38 14.51 72.38 15.065 72.935C15.335 73.2185 15.5 73.61 15.5 74C15.5 74.39 15.335 74.78 15.065 75.065C14.78 75.335 14.39 75.5 14 75.5Z" fill="#FF732D"/>
<path d="M8 75.5H2C1.172 75.5 0.5 74.8295 0.5 74C0.5 73.1705 1.172 72.5 2 72.5H8C8.828 72.5 9.5 73.1705 9.5 74C9.5 74.8295 8.828 75.5 8 75.5Z" fill="#FF732D"/>
<path d="M74 75.5H20C19.172 75.5 18.5 74.8295 18.5 74C18.5 73.1705 19.172 72.5 20 72.5H74C74.828 72.5 75.5 73.1705 75.5 74C75.5 74.8295 74.828 75.5 74 75.5Z" fill="#FF732D"/>
<path d="M72.0245 71.6915C70.1555 71.6915 68.2865 71.633 66.443 71.5145C65.6165 71.462 64.9895 70.748 65.042 69.92C65.096 69.0935 65.831 68.4995 66.635 68.519C69.053 68.675 71.519 68.723 73.9655 68.669C74.786 68.603 75.4805 69.3065 75.4985 70.1345C75.518 70.964 74.8625 71.651 74.033 71.669C73.3655 71.684 72.695 71.6915 72.0245 71.6915Z" fill="#FF732D"/>
<path d="M54.689 69.6305C54.557 69.6305 54.4205 69.6125 54.287 69.5765C51.0575 68.678 47.855 67.589 44.7575 66.536C42.686 65.8295 40.613 65.126 38.5235 64.472C31.4255 62.2535 25.9025 61.598 20.6135 62.3615C15.494 63.095 10.487 65 5.6435 66.8405C4.601 67.238 3.56 67.6325 2.5205 68.018C1.7435 68.303 0.880999 67.907 0.592999 67.13C0.306499 66.3515 0.702499 65.489 1.4795 65.2025C2.5115 64.8215 3.542 64.4285 4.5755 64.037C9.572 62.1365 14.738 60.173 20.186 59.39C25.9415 58.568 31.8725 59.249 39.4175 61.6085C41.531 62.267 43.6265 62.981 45.7235 63.695C48.7805 64.7345 51.9425 65.8115 55.0895 66.6845C55.8875 66.9065 56.3555 67.733 56.1335 68.531C55.949 69.1955 55.346 69.6305 54.689 69.6305Z" fill="#FF732D"/>
<path d="M60.575 70.865C60.185 70.865 59.795 70.7 59.51 70.43C59.24 70.145 59.075 69.755 59.075 69.365C59.075 68.9735 59.24 68.5835 59.51 68.3C60.065 67.745 61.085 67.745 61.64 68.3C61.91 68.5835 62.075 68.9735 62.075 69.365C62.075 69.755 61.91 70.145 61.64 70.43C61.355 70.7 60.965 70.865 60.575 70.865Z" fill="#FF732D"/>
<path d="M74 41.2325H71.4485C70.6205 41.2325 69.9485 40.562 69.9485 39.7325C69.9485 38.903 70.6205 38.2325 71.4485 38.2325H74C74.828 38.2325 75.5 38.903 75.5 39.7325C75.5 40.562 74.828 41.2325 74 41.2325Z" fill="#FF732D"/>
<path d="M60.1985 29.9825C59.3705 29.9825 58.6985 29.312 58.6985 28.4825V25.931C58.6985 25.1015 59.3705 24.431 60.1985 24.431C61.0265 24.431 61.6985 25.1015 61.6985 25.931V28.4825C61.6985 29.312 61.0265 29.9825 60.1985 29.9825Z" fill="#FF732D"/>
<path d="M52.244 33.278C51.86 33.278 51.476 33.131 51.1835 32.8385L49.379 31.0355C48.7925 30.449 48.7925 29.501 49.379 28.9145C49.964 28.328 50.9135 28.328 51.5 28.9145L53.3045 30.7175C53.891 31.304 53.891 32.252 53.3045 32.8385C53.012 33.131 52.6265 33.278 52.244 33.278Z" fill="#FF732D"/>
<path d="M48.9485 41.2325H46.397C45.569 41.2325 44.897 40.562 44.897 39.7325C44.897 38.903 45.569 38.2325 46.397 38.2325H48.9485C49.7765 38.2325 50.4485 38.903 50.4485 39.7325C50.4485 40.562 49.7765 41.2325 48.9485 41.2325Z" fill="#FF732D"/>
<path d="M50.4395 50.9915C50.0555 50.9915 49.6715 50.8445 49.379 50.552C48.7925 49.9655 48.7925 49.0175 49.379 48.431L51.1835 46.6265C51.7685 46.04 52.718 46.04 53.3045 46.6265C53.891 47.213 53.891 48.161 53.3045 48.7475L51.5 50.552C51.2075 50.8445 50.8235 50.9915 50.4395 50.9915Z" fill="#FF732D"/>
<path d="M60.1985 55.034C59.3705 55.034 58.6985 54.3635 58.6985 53.534V50.9825C58.6985 50.153 59.3705 49.4825 60.1985 49.4825C61.0265 49.4825 61.6985 50.153 61.6985 50.9825V53.534C61.6985 54.3635 61.0265 55.034 60.1985 55.034Z" fill="#FF732D"/>
<path d="M69.9575 50.9915C69.5735 50.9915 69.1895 50.8445 68.897 50.552L67.0925 48.7475C66.506 48.161 66.506 47.213 67.0925 46.6265C67.679 46.04 68.627 46.04 69.2135 46.6265L71.018 48.431C71.6045 49.0175 71.6045 49.9655 71.018 50.552C70.7255 50.8445 70.3415 50.9915 69.9575 50.9915Z" fill="#FF732D"/>
<path d="M68.153 33.278C67.769 33.278 67.385 33.131 67.091 32.8385C66.506 32.252 66.506 31.3025 67.091 30.7175L68.8955 28.9145C69.482 28.328 70.4315 28.328 71.018 28.9145C71.603 29.501 71.603 30.4505 71.018 31.0355L69.2135 32.8385C68.921 33.131 68.537 33.278 68.153 33.278Z" fill="#FF732D"/>
<path d="M60.1985 46.4825C56.54 46.4825 53.4485 43.391 53.4485 39.7325C53.4485 36.074 56.54 32.9825 60.1985 32.9825C63.857 32.9825 66.9485 36.074 66.9485 39.7325C66.9485 43.391 63.857 46.4825 60.1985 46.4825ZM60.1985 35.9825C58.166 35.9825 56.4485 37.7 56.4485 39.7325C56.4485 41.765 58.166 43.4825 60.1985 43.4825C62.231 43.4825 63.9485 41.765 63.9485 39.7325C63.9485 37.7 62.231 35.9825 60.1985 35.9825Z" fill="#FF732D"/>
<path d="M74 64.478C73.9805 64.478 73.9595 64.478 73.9385 64.4765C70.397 64.334 66.7535 63.8615 63.2315 63.4025C55.055 62.336 46.5995 61.238 38.93 64.247C38.1575 64.5485 37.2875 64.169 36.986 63.3995C36.683 62.6285 37.0625 61.757 37.8335 61.4555C46.2215 58.1645 55.064 59.3135 63.6185 60.4265C67.076 60.8765 70.6505 61.3415 74.0585 61.478C74.8865 61.5095 75.53 62.2085 75.497 63.0365C75.467 63.845 74.8025 64.478 74 64.478Z" fill="#FF732D"/>
<path d="M21.782 28.325C21.56 28.325 21.3335 28.2755 21.1205 28.1705C20.3765 27.8045 20.072 26.9045 20.438 26.1605C22.478 22.0205 26.609 19.331 31.22 19.142C32.048 19.0745 32.747 19.751 32.78 20.579C32.8145 21.407 32.171 22.106 31.343 22.139C27.83 22.2845 24.683 24.3335 23.129 27.4865C22.868 28.0175 22.3355 28.325 21.782 28.325Z" fill="#FF732D"/>
<path d="M24.8585 62.054C24.722 62.054 24.5825 62.0345 24.4445 61.9955C23.648 61.7675 23.1875 60.9365 23.4155 60.1415C27.1085 47.27 29.2505 33.9605 29.783 20.582C29.8145 19.7555 30.512 19.085 31.3415 19.1435C32.1695 19.175 32.813 19.874 32.78 20.702C32.24 34.319 30.059 47.8655 26.3 60.968C26.111 61.6265 25.5095 62.054 24.8585 62.054Z" fill="#FF732D"/>
<path d="M19.8485 62.459C19.1735 62.459 18.5615 62 18.3935 61.316C16.601 54.0125 15.551 46.499 15.2735 38.9855C15.2435 38.1575 15.89 37.4615 16.718 37.4315C17.5445 37.358 18.242 38.048 18.272 38.8745C18.542 46.1855 19.562 53.495 21.3065 60.6005C21.5045 61.4045 21.0125 62.2175 20.207 62.414C20.087 62.4455 19.967 62.459 19.8485 62.459Z" fill="#FF732D"/>
<path d="M47.651 30.1565C47.0555 30.1565 46.493 29.801 46.2575 29.2145C43.928 23.402 37.295 20.1275 31.7765 22.0565C30.995 22.334 30.1385 21.9185 29.8655 21.137C29.591 20.3555 30.0035 19.499 30.785 19.2275C37.775 16.778 46.1345 20.843 49.043 28.1C49.352 28.8695 48.9785 29.7425 48.209 30.0515C48.026 30.1235 47.837 30.1565 47.651 30.1565Z" fill="#FF732D"/>
<path d="M31.283 22.142C31.211 22.142 31.1375 22.1375 31.064 22.1255C30.245 22.007 29.6765 21.245 29.795 20.426C30.5135 15.4775 32.519 11.5955 35.591 9.1985C38.8175 6.6785 43.427 5.2925 48.572 5.2925C49.442 5.264 50.102 5.9555 50.1005 6.794C50.1005 7.622 49.4285 8.2925 48.6005 8.2925C48.5915 8.291 48.581 8.2925 48.572 8.2925C44.093 8.2925 40.139 9.452 37.4375 11.5625C34.952 13.5035 33.38 16.6295 32.765 20.8565C32.657 21.6035 32.015 22.142 31.283 22.142Z" fill="#FF732D"/>
<path d="M31.2815 22.142C30.458 22.142 29.7875 21.479 29.7815 20.654C29.753 16.847 27.7625 13.3175 24.455 11.216C21.1535 9.1175 17.117 8.8145 13.658 10.4015C12.905 10.748 12.014 10.418 11.669 9.6665C11.324 8.9135 11.6525 8.0225 12.4055 7.6775C16.7915 5.6585 21.9005 6.0365 26.0645 8.6855C30.2345 11.3375 32.7455 15.8015 32.7815 20.6315C32.7875 21.461 32.1215 22.1375 31.292 22.1435C31.2875 22.142 31.2845 22.142 31.2815 22.142Z" fill="#FF732D"/>
<path d="M12.7295 25.2485C12.452 25.2485 12.1715 25.172 11.9195 25.0115C11.222 24.563 11.021 23.6345 11.468 22.9385C14.2835 18.554 19.7465 15.371 24.4595 15.3665H24.4685C27.8675 15.3665 30.6575 16.9085 32.54 19.829C32.9885 20.525 32.789 21.4535 32.093 21.9035C31.397 22.3505 30.4685 22.1525 30.02 21.455C28.6985 19.406 26.831 18.3665 24.4685 18.3665C24.467 18.3665 24.464 18.3665 24.4625 18.3665C20.7605 18.3695 16.259 21.032 13.994 24.5585C13.7075 25.0055 13.223 25.2485 12.7295 25.2485Z" fill="#FF732D"/>
<path d="M31.2815 22.142C31.25 22.142 31.22 22.1405 31.1885 22.139C30.362 22.0895 29.732 21.377 29.783 20.5505C29.9105 18.4565 30.4415 16.3145 30.956 14.243C31.988 10.0865 32.9615 6.1595 30.851 2.798C30.41 2.096 30.6215 1.1705 31.3235 0.7295C32.0255 0.29 32.951 0.503 33.3905 1.2005C36.1805 5.6435 34.952 10.5965 33.866 14.9645C33.362 16.9955 32.8865 18.914 32.7755 20.732C32.729 21.53 32.069 22.142 31.2815 22.142Z" fill="#FF732D"/>
<path d="M16.772 40.43C15.983 40.43 15.3215 39.8135 15.275 39.0155C15.209 37.838 14.894 36.572 14.5595 35.2325C13.814 32.2385 12.9695 28.844 14.9405 25.706C15.3815 25.004 16.3085 24.7955 17.009 25.2335C17.711 25.673 17.9225 26.5985 17.4815 27.3005C16.19 29.3585 16.811 31.8605 17.471 34.508C17.8235 35.924 18.188 37.388 18.2705 38.8475C18.317 39.6755 17.684 40.382 16.8575 40.43C16.829 40.4285 16.8005 40.43 16.772 40.43Z" fill="#FF732D"/>
<path d="M24.1085 46.865C23.468 46.865 22.874 46.451 22.6745 45.806C21.698 42.629 19.4525 40.6175 16.67 40.427C15.8435 40.37 15.2195 39.653 15.2765 38.828C15.3335 38.0015 16.058 37.406 16.8755 37.433C20.9465 37.7135 24.188 40.514 25.544 44.924C25.787 45.716 25.343 46.556 24.551 46.799C24.404 46.844 24.2555 46.865 24.1085 46.865Z" fill="#FF732D"/>
<path d="M29.141 42.5015C28.646 42.5015 28.1615 42.257 27.875 41.8085C26.465 39.596 23.657 37.9235 21.344 37.916C19.967 37.862 18.8225 38.5265 18.032 39.746C17.582 40.439 16.6535 40.643 15.9575 40.1885C15.2615 39.7385 15.0635 38.81 15.5135 38.114C16.8545 36.044 18.911 34.8605 21.353 34.916C24.653 34.9265 28.4585 37.1465 30.404 40.1945C30.8495 40.8935 30.644 41.8205 29.9465 42.266C29.696 42.425 29.417 42.5015 29.141 42.5015Z" fill="#FF732D"/>
<path d="M2 40.796C1.6415 40.796 1.2815 40.6685 0.994999 40.4075C0.379999 39.8525 0.3335 38.903 0.89 38.2895C3.356 35.5655 7.1135 33.986 10.712 34.1795C13.697 34.3355 16.28 35.711 17.9855 38.045C18.4745 38.714 18.3275 39.653 17.6585 40.1405C16.988 40.6295 16.0505 40.4825 15.563 39.8135C14.072 37.772 12.017 37.2515 10.5545 37.1735C7.8635 37.025 4.961 38.2625 3.113 40.301C2.816 40.6295 2.408 40.796 2 40.796Z" fill="#FF732D"/>
<path d="M16.7735 40.43C16.7705 40.43 16.766 40.43 16.763 40.43C15.935 40.424 15.2675 39.7475 15.2735 38.9195C15.299 35.5295 17.057 32.396 19.979 30.539C22.901 28.682 26.486 28.4165 29.5685 29.8325C30.32 30.1775 30.65 31.0685 30.305 31.8215C29.96 32.5745 29.069 32.906 28.3145 32.5565C26.165 31.568 23.6495 31.7585 21.5885 33.071C19.5305 34.379 18.2915 36.5735 18.275 38.939C18.2675 39.7655 17.5955 40.43 16.7735 40.43Z" fill="#FF732D"/>
<path d="M16.7705 40.43C16.04 40.43 15.398 39.8945 15.2885 39.149C14.924 36.68 14.0825 34.8245 12.7895 33.632C10.5005 31.523 7.0655 31.2005 5.222 31.196C4.394 31.1945 3.7235 30.521 3.725 29.6915C3.7265 28.865 4.3985 28.196 5.225 28.196H5.228C9.1655 28.2065 12.572 29.3525 14.822 31.4255C16.6325 33.0935 17.7875 35.5445 18.2555 38.708C18.377 39.5285 17.81 40.2905 16.991 40.412C16.9175 40.424 16.844 40.43 16.7705 40.43Z" fill="#FF732D"/>
<path d="M5.8595 45.776C5.6795 45.776 5.4965 45.7445 5.3195 45.6755C4.547 45.377 4.163 44.5085 4.4615 43.736C6.4145 38.681 12.0125 35.939 17.204 37.4945C17.9975 37.7315 18.4475 38.5685 18.2105 39.362C17.9735 40.157 17.1365 40.6025 16.343 40.3685C12.6425 39.263 8.6525 41.2145 7.259 44.8175C7.0295 45.41 6.461 45.776 5.8595 45.776Z" fill="#FF732D"/>
</svg>
