<svg width="92" height="100" viewBox="0 0 92 100" fill="none" xmlns="http://www.w3.org/2000/svg">
<g clip-path="url(#clip0_166_17)">
<path d="M30.3694 49.9827C29.9374 49.9827 29.5878 50.3323 29.5878 50.7643V66.3942C29.5878 66.826 29.9376 67.1756 30.3694 67.1756C30.8013 67.1756 31.1508 66.826 31.151 66.3942V50.7643C31.151 50.3323 30.8015 49.9827 30.3694 49.9827Z" fill="#FF732D" stroke="#FF732D" stroke-width="0.5"/>
<path d="M46.0001 46.8486C45.5681 46.8486 45.2185 47.1912 45.2185 47.6224C45.1589 48.0492 43.9636 49.368 43.0905 50.3313C41.1582 52.4653 38.9662 54.8832 38.9662 57.0154C38.9662 57.4475 39.3157 57.7971 39.7478 57.7971C40.1798 57.7971 40.5292 57.4475 40.5292 57.0156C40.5292 55.4862 42.68 53.1125 44.2493 51.3808C45.9131 49.5452 46.7817 48.5447 46.7817 47.6379C46.7817 47.2058 46.4321 46.8486 46.0001 46.8486Z" fill="#FF732D" stroke="#FF732D" stroke-width="0.5"/>
<path d="M48.9095 50.3315C48.0362 49.368 46.8413 48.0492 46.7817 47.6379C46.7817 47.2058 46.4321 46.8563 46.0001 46.8563C45.5681 46.8563 45.2185 47.206 45.2185 47.6379C45.2185 48.5445 46.0871 49.545 47.7507 51.3806C49.32 53.1123 51.471 55.486 51.471 57.0155C51.471 57.4475 51.8202 57.7971 52.2522 57.7971C52.6842 57.7971 53.0338 57.4475 53.0338 57.0157C53.0338 54.8836 50.8422 52.4655 48.9095 50.3315Z" fill="#FF732D" stroke="#FF732D" stroke-width="0.5"/>
<path d="M39.7478 56.234C39.3157 56.234 38.9662 56.5834 38.9662 57.0155V63.2678C38.9662 63.6998 39.3157 64.0494 39.7478 64.0494C40.1798 64.0494 40.5292 63.6998 40.5292 63.2678V57.0155C40.5292 56.5834 40.1796 56.234 39.7478 56.234Z" fill="#FF732D" stroke="#FF732D" stroke-width="0.5"/>
<path d="M52.2522 56.234C51.8202 56.234 51.471 56.5834 51.471 57.0155V63.2678C51.471 63.6998 51.8202 64.0494 52.2522 64.0494C52.6842 64.0494 53.0338 63.6998 53.0338 63.2678V57.0155C53.0338 56.5834 52.6842 56.234 52.2522 56.234Z" fill="#FF732D" stroke="#FF732D" stroke-width="0.5"/>
<path d="M46.0001 53.108C45.5681 53.108 45.2185 53.4576 45.2185 53.8896V57.0156C45.2185 57.4477 45.5683 57.7973 46.0001 57.7973C46.4321 57.7973 46.7817 57.4477 46.7817 57.0156V53.8896C46.7817 53.4576 46.4321 53.108 46.0001 53.108Z" fill="#FF732D" stroke="#FF732D" stroke-width="0.5"/>
<path d="M35.0583 53.108C33.7655 53.108 32.7137 54.1598 32.7137 55.4526V58.5789C32.7137 59.0107 33.0632 59.3603 33.4953 59.3603C33.9273 59.3603 34.2769 59.0107 34.2769 58.5789V55.4526C34.2769 55.0223 34.628 54.6712 35.0585 54.6712C35.489 54.6712 35.8401 55.0223 35.8401 55.4526V58.5789C35.8401 59.0107 36.1897 59.3603 36.6215 59.3603C37.0536 59.3603 37.4031 59.0107 37.4029 58.5789V55.4526C37.4029 54.1598 36.3513 53.108 35.0583 53.108Z" fill="#FF732D" stroke="#FF732D" stroke-width="0.5"/>
<path d="M41.3108 49.9827H30.3692C29.9372 49.9827 29.5876 50.3323 29.5876 50.7643C29.5876 51.1962 29.9374 51.5457 30.3692 51.5457H41.3108C41.7428 51.5457 42.0924 51.1962 42.0924 50.7643C42.0924 50.3323 41.7428 49.9827 41.3108 49.9827Z" fill="#FF732D" stroke="#FF732D" stroke-width="0.5"/>
<path d="M33.8451 43.8127C33.4589 43.6225 32.9902 43.7753 32.7963 44.1622L31.2333 47.2885C31.041 47.6746 31.1966 48.1442 31.5829 48.3372C31.6958 48.3929 31.8148 48.4197 31.9325 48.4197C32.2179 48.4197 32.4942 48.2616 32.6316 47.9874L34.1946 44.8614C34.3869 44.4753 34.2312 44.0055 33.8451 43.8127Z" fill="#FF732D" stroke="#FF732D" stroke-width="0.5"/>
<path d="M35.7577 47.2885L34.1944 44.1622C34.0006 43.7753 33.5334 43.6212 33.1457 43.8127C32.7594 44.0057 32.6039 44.4751 32.7961 44.8614L34.3594 47.9874C34.4967 48.2614 34.773 48.4195 35.0585 48.4195C35.1761 48.4195 35.2951 48.3927 35.4081 48.3372C35.7944 48.1442 35.9499 47.6746 35.7577 47.2885Z" fill="#FF732D" stroke="#FF732D" stroke-width="0.5"/>
<path d="M36.6215 57.7973H33.4955C33.0634 57.7973 32.7139 58.1468 32.7139 58.5789C32.7139 59.0107 33.0634 59.3603 33.4955 59.3603H36.6215C37.0536 59.3603 37.4031 59.0107 37.4031 58.5789C37.4031 58.1468 37.0536 57.7973 36.6215 57.7973Z" fill="#FF732D" stroke="#FF732D" stroke-width="0.5"/>
<path d="M38.1848 60.9233H31.9325C31.5004 60.9233 31.1508 61.2729 31.1508 61.7049C31.1508 62.137 31.5004 62.4865 31.9325 62.4865H38.1848C38.6166 62.4865 38.9664 62.137 38.9664 61.7049C38.9664 61.2729 38.6166 60.9233 38.1848 60.9233Z" fill="#FF732D" stroke="#FF732D" stroke-width="0.5"/>
<path d="M31.9325 46.8563C31.5004 46.8563 31.1508 47.206 31.1508 47.6379V50.7643C31.1508 51.1962 31.5004 51.5457 31.9325 51.5457C32.3645 51.5457 32.7139 51.1962 32.7139 50.7643V47.6379C32.7139 47.2058 32.3643 46.8563 31.9325 46.8563Z" fill="#FF732D" stroke="#FF732D" stroke-width="0.5"/>
<path d="M35.0585 46.8563C34.6265 46.8563 34.2769 47.206 34.2769 47.6379V50.7643C34.2769 51.1962 34.6265 51.5457 35.0585 51.5457C35.4905 51.5457 35.8401 51.1962 35.8401 50.7643V47.6379C35.8401 47.2058 35.4905 46.8563 35.0585 46.8563Z" fill="#FF732D" stroke="#FF732D" stroke-width="0.5"/>
<path d="M36.9711 43.8127C36.585 43.6225 36.118 43.7753 35.9226 44.1622L34.3594 47.2885C34.1671 47.6746 34.3228 48.1442 34.7089 48.3372C34.8219 48.3929 34.9409 48.4197 35.0585 48.4197C35.344 48.4197 35.6203 48.2616 35.7577 47.9874L37.3207 44.8614C37.513 44.4753 37.3574 44.0055 36.9711 43.8127Z" fill="#FF732D" stroke="#FF732D" stroke-width="0.5"/>
<path d="M38.8839 47.2885L37.3209 44.1622C37.127 43.7753 36.6598 43.6212 36.2722 43.8127C35.8858 44.0057 35.7303 44.4751 35.9226 44.8614L37.4856 47.9874C37.623 48.2614 37.8995 48.4195 38.1848 48.4195C38.3022 48.4195 38.4214 48.3927 38.5343 48.3372C38.9207 48.1442 39.0762 47.6746 38.8839 47.2885Z" fill="#FF732D" stroke="#FF732D" stroke-width="0.5"/>
<path d="M38.1848 46.8563C37.7527 46.8563 37.4032 47.206 37.4032 47.6379V50.7643C37.4032 51.1962 37.7529 51.5457 38.1848 51.5457C38.6166 51.5457 38.9662 51.1962 38.9664 50.7643V47.6379C38.9664 47.2058 38.6168 46.8563 38.1848 46.8563Z" fill="#FF732D" stroke="#FF732D" stroke-width="0.5"/>
<path d="M61.6308 49.9827C61.1987 49.9827 60.8492 50.3323 60.8492 50.7643V66.3942C60.8492 66.826 61.1987 67.1756 61.6308 67.1756C62.0628 67.1756 62.4124 66.826 62.4124 66.3942V50.7643C62.4124 50.3323 62.0628 49.9827 61.6308 49.9827Z" fill="#FF732D" stroke="#FF732D" stroke-width="0.5"/>
<path d="M56.9415 53.108C55.6485 53.108 54.597 54.1598 54.597 55.4526V58.5789C54.597 59.0107 54.9466 59.3603 55.3787 59.3603C55.8103 59.3603 56.1599 59.0107 56.1599 58.5789V55.4526C56.1599 55.0223 56.511 54.6712 56.9415 54.6712C57.372 54.6712 57.7231 55.0223 57.7231 55.4526V58.5789C57.7231 59.0107 58.0727 59.3603 58.5047 59.3603C58.9368 59.3603 59.2863 59.0107 59.2863 58.5789V55.4526C59.2863 54.1598 58.2345 53.108 56.9415 53.108Z" fill="#FF732D" stroke="#FF732D" stroke-width="0.5"/>
<path d="M61.6308 49.9827H50.6894C50.2574 49.9827 49.9078 50.3323 49.9078 50.7643C49.9078 51.1962 50.2574 51.5457 50.6894 51.5457H61.6308C62.0628 51.5457 62.4124 51.1962 62.4124 50.7643C62.4124 50.3323 62.0628 49.9827 61.6308 49.9827Z" fill="#FF732D" stroke="#FF732D" stroke-width="0.5"/>
<path d="M60.7667 47.2885L59.2039 44.1622C59.01 43.7753 58.5415 43.6212 58.1551 43.8127C57.7688 44.0057 57.6133 44.4751 57.8056 44.8614L59.3684 47.9874C59.5058 48.2614 59.7821 48.4195 60.0675 48.4195C60.1852 48.4195 60.3042 48.3927 60.4171 48.3372C60.8034 48.1442 60.959 47.6746 60.7667 47.2885Z" fill="#FF732D" stroke="#FF732D" stroke-width="0.5"/>
<path d="M58.8543 43.8127C58.4695 43.6225 57.9994 43.7753 57.8056 44.1622L56.2423 47.2885C56.0501 47.6746 56.2056 48.1442 56.5919 48.3372C56.7049 48.3929 56.8239 48.4197 56.9415 48.4197C57.227 48.4197 57.5033 48.2616 57.6406 47.9874L59.2039 44.8614C59.3958 44.4753 59.2406 44.0055 58.8543 43.8127Z" fill="#FF732D" stroke="#FF732D" stroke-width="0.5"/>
<path d="M58.5047 57.7973H55.3787C54.9466 57.7973 54.597 58.1468 54.597 58.5789C54.597 59.0107 54.9466 59.3603 55.3787 59.3603H58.5047C58.9368 59.3603 59.2863 59.0107 59.2863 58.5789C59.2863 58.1468 58.9368 57.7973 58.5047 57.7973Z" fill="#FF732D" stroke="#FF732D" stroke-width="0.5"/>
<path d="M60.0675 60.9233H53.8154C53.3834 60.9233 53.0338 61.2729 53.0338 61.7049C53.0338 62.137 53.3834 62.4865 53.8154 62.4865H60.0675C60.4996 62.4865 60.8492 62.137 60.8492 61.7049C60.8492 61.2729 60.4996 60.9233 60.0675 60.9233Z" fill="#FF732D" stroke="#FF732D" stroke-width="0.5"/>
<path d="M60.0675 46.8563C59.6355 46.8563 59.2863 47.206 59.2863 47.6379V50.7643C59.2863 51.1962 59.6355 51.5457 60.0675 51.5457C60.4996 51.5457 60.8492 51.1962 60.8492 50.7643V47.6379C60.8492 47.2058 60.4996 46.8563 60.0675 46.8563Z" fill="#FF732D" stroke="#FF732D" stroke-width="0.5"/>
<path d="M56.9415 46.8563C56.5095 46.8563 56.1599 47.206 56.1599 47.6379V50.7643C56.1599 51.1962 56.5095 51.5457 56.9415 51.5457C57.3735 51.5457 57.7231 51.1962 57.7231 50.7643V47.6379C57.7231 47.2058 57.3735 46.8563 56.9415 46.8563Z" fill="#FF732D" stroke="#FF732D" stroke-width="0.5"/>
<path d="M57.6406 47.2885L56.0774 44.1622C55.8836 43.7753 55.4168 43.6212 55.0291 43.8127C54.6428 44.0057 54.4872 44.4751 54.6795 44.8614L56.2423 47.9874C56.3797 48.2614 56.656 48.4195 56.9415 48.4195C57.0591 48.4195 57.1781 48.3927 57.2911 48.3372C57.6774 48.1442 57.8329 47.6746 57.6406 47.2885Z" fill="#FF732D" stroke="#FF732D" stroke-width="0.5"/>
<path d="M55.7278 43.8127C55.3421 43.6225 54.8749 43.7753 54.6795 44.1622L53.1163 47.2885C52.924 47.6746 53.0795 48.1442 53.4658 48.3372C53.5788 48.3929 53.6978 48.4197 53.8154 48.4197C54.1009 48.4197 54.3772 48.2616 54.5146 47.9874L56.0774 44.8614C56.2697 44.4753 56.1141 44.0055 55.7278 43.8127Z" fill="#FF732D" stroke="#FF732D" stroke-width="0.5"/>
<path d="M53.8154 46.8563C53.3834 46.8563 53.0338 47.206 53.0338 47.6379V50.7643C53.0338 51.1962 53.3834 51.5457 53.8154 51.5457C54.2475 51.5457 54.597 51.1962 54.597 50.7643V47.6379C54.597 47.2058 54.2475 46.8563 53.8154 46.8563Z" fill="#FF732D" stroke="#FF732D" stroke-width="0.5"/>
<path d="M38.1848 32.7888C37.7527 32.7888 37.4032 33.1386 37.4032 33.5704V42.9488C37.4032 43.3808 37.7529 43.7304 38.1848 43.7304C38.6166 43.7304 38.9662 43.3808 38.9664 42.9488V33.5704C38.9664 33.1384 38.6168 32.7888 38.1848 32.7888Z" fill="#FF732D" stroke="#FF732D" stroke-width="0.5"/>
<path d="M53.8154 32.7888C53.3834 32.7888 53.0338 33.1386 53.0338 33.5704V42.9488C53.0338 43.3808 53.3834 43.7304 53.8154 43.7304C54.2475 43.7304 54.597 43.3808 54.597 42.9488V33.5704C54.597 33.1384 54.2475 32.7888 53.8154 32.7888Z" fill="#FF732D" stroke="#FF732D" stroke-width="0.5"/>
<path d="M46.0001 32.7888C42.9839 32.7888 40.5292 35.2433 40.5292 38.2595C40.5292 41.2757 42.9839 43.7302 46.0001 43.7302C49.0163 43.7302 51.471 41.2757 51.471 38.2595C51.471 35.2433 49.0163 32.7888 46.0001 32.7888ZM46.0001 42.1672C43.8448 42.1672 42.0924 40.414 42.0924 38.2595C42.0924 36.105 43.8448 34.3518 46.0001 34.3518C48.1552 34.3518 49.9078 36.105 49.9078 38.2595C49.9078 40.414 48.1552 42.1672 46.0001 42.1672Z" fill="#FF732D" stroke="#FF732D" stroke-width="0.5"/>
<path d="M53.8154 32.7884H50.6894C50.2574 32.7884 49.9078 33.138 49.9078 33.57C49.9078 34.0021 50.2574 34.3516 50.6894 34.3516H53.8154C54.2475 34.3516 54.5971 34.0021 54.5971 33.57C54.5971 33.138 54.2475 32.7884 53.8154 32.7884Z" fill="#FF732D" stroke="#FF732D" stroke-width="0.5"/>
<path d="M41.3108 32.7884H38.1846C37.7525 32.7884 37.403 33.138 37.403 33.57C37.403 34.0021 37.7527 34.3516 38.1846 34.3516H41.3108C41.7429 34.3516 42.0924 34.0021 42.0924 33.57C42.0924 33.138 41.7429 32.7884 41.3108 32.7884Z" fill="#FF732D" stroke="#FF732D" stroke-width="0.5"/>
<path d="M46.0001 34.352C45.5681 34.352 45.2185 34.7016 45.2185 35.1336V38.2597C45.2185 38.6917 45.5683 39.0413 46.0001 39.0413C46.4321 39.0413 46.7817 38.6915 46.7817 38.2597V35.1336C46.7817 34.7016 46.4321 34.352 46.0001 34.352Z" fill="#FF732D" stroke="#FF732D" stroke-width="0.5"/>
<path d="M48.7631 39.9175L46.5529 37.7071C46.2475 37.4019 45.7529 37.4019 45.4477 37.7071C45.1425 38.0123 45.1425 38.5071 45.4477 38.8123L47.6581 41.0225C47.8103 41.1751 48.0104 41.2515 48.2103 41.2515C48.4102 41.2515 48.6101 41.1751 48.7631 41.0227C49.0683 40.7173 49.0683 40.2225 48.7631 39.9175Z" fill="#FF732D" stroke="#FF732D" stroke-width="0.5"/>
<path d="M46.0001 45.2934C45.5681 45.2934 45.2185 45.643 45.2185 46.075V47.6381C45.2185 48.0701 45.5683 48.4197 46.0001 48.4197C46.4321 48.4197 46.7817 48.0701 46.7817 47.6381V46.075C46.7817 45.643 46.4321 45.2934 46.0001 45.2934Z" fill="#FF732D" stroke="#FF732D" stroke-width="0.5"/>
<path d="M50.6894 45.293C50.2574 45.293 49.9078 45.6426 49.9078 46.0746V50.7641C49.9078 51.196 50.2574 51.5455 50.6894 51.5455C51.1214 51.5455 51.471 51.196 51.471 50.7641V46.0746C51.471 45.6426 51.1214 45.293 50.6894 45.293Z" fill="#FF732D" stroke="#FF732D" stroke-width="0.5"/>
<path d="M41.3108 45.293C40.8788 45.293 40.5292 45.6426 40.5292 46.0746V50.7641C40.5292 51.196 40.8788 51.5455 41.3108 51.5455C41.7429 51.5455 42.0924 51.196 42.0924 50.7641V46.0746C42.0924 45.6426 41.7429 45.293 41.3108 45.293Z" fill="#FF732D" stroke="#FF732D" stroke-width="0.5"/>
<path d="M52.2522 26.5363C51.8202 26.5363 51.471 26.8859 51.471 27.3179V32.007C51.471 32.439 51.8202 32.7886 52.2522 32.7886C52.6842 32.7886 53.0338 32.439 53.0338 32.007V27.3179C53.0338 26.8859 52.6842 26.5363 52.2522 26.5363Z" fill="#FF732D" stroke="#FF732D" stroke-width="0.5"/>
<path d="M39.7478 26.5363C39.3157 26.5363 38.9662 26.8859 38.9662 27.3179V32.007C38.9662 32.439 39.3157 32.7886 39.7478 32.7886C40.1798 32.7886 40.5292 32.439 40.5292 32.007V27.3179C40.5292 26.8859 40.1796 26.5363 39.7478 26.5363Z" fill="#FF732D" stroke="#FF732D" stroke-width="0.5"/>
<path d="M53.0338 26.5363H38.9662C38.5341 26.5363 38.1846 26.8859 38.1846 27.3179C38.1846 27.7498 38.5341 28.0993 38.9662 28.0993H53.0338C53.4659 28.0993 53.8154 27.75 53.8154 27.3179C53.8154 26.8859 53.4659 26.5363 53.0338 26.5363Z" fill="#FF732D" stroke="#FF732D" stroke-width="0.5"/>
<path d="M46.0001 26.5363C45.5681 26.5363 45.2185 26.8859 45.2185 27.3179V28.881C45.2185 29.313 45.5683 29.6626 46.0001 29.6626C46.4321 29.6626 46.7817 29.313 46.7817 28.881V27.3179C46.7817 26.8859 46.4321 26.5363 46.0001 26.5363Z" fill="#FF732D" stroke="#FF732D" stroke-width="0.5"/>
<path d="M48.2621 22.2791L46.6992 19.153C46.5054 18.7667 46.0382 18.6125 45.6505 18.8034C45.2642 18.9967 45.1087 19.466 45.3009 19.8522L46.8642 22.9784C47.0015 23.2524 47.2778 23.4104 47.5633 23.4104C47.6806 23.4104 47.7996 23.3839 47.9125 23.3278C48.2988 23.1347 48.4544 22.6654 48.2621 22.2791Z" fill="#FF732D" stroke="#FF732D" stroke-width="0.5"/>
<path d="M46.3495 18.8036C45.9632 18.6143 45.4962 18.7669 45.3008 19.1532L43.7377 22.2793C43.5454 22.6654 43.7012 23.1349 44.0873 23.328C44.2004 23.3837 44.3192 23.4104 44.4369 23.4104C44.7224 23.4104 44.9987 23.2526 45.1358 22.9786L46.6991 19.8524C46.8913 19.4662 46.7358 18.9965 46.3495 18.8036Z" fill="#FF732D" stroke="#FF732D" stroke-width="0.5"/>
<path d="M44.4369 21.8468C44.005 21.8468 43.6555 22.1964 43.6555 22.6284V25.7547C43.6555 26.1867 44.005 26.5363 44.4369 26.5363C44.8689 26.5363 45.2185 26.1867 45.2185 25.7547V22.6284C45.2185 22.1964 44.8689 21.8468 44.4369 21.8468Z" fill="#FF732D" stroke="#FF732D" stroke-width="0.5"/>
<path d="M47.5633 21.8468C47.1313 21.8468 46.7817 22.1964 46.7817 22.6284V25.7547C46.7817 26.1867 47.1313 26.5363 47.5633 26.5363C47.995 26.5363 48.3445 26.1867 48.3445 25.7547V22.6284C48.3445 22.1964 47.995 21.8468 47.5633 21.8468Z" fill="#FF732D" stroke="#FF732D" stroke-width="0.5"/>
<path d="M41.3108 18.7212C40.8788 18.7212 40.5292 19.0707 40.5292 19.5028V25.7549C40.5292 26.1869 40.8788 26.5365 41.3108 26.5365C41.7429 26.5365 42.0924 26.1869 42.0924 25.7551V19.5028C42.0924 19.0707 41.7429 18.7212 41.3108 18.7212Z" fill="#FF732D" stroke="#FF732D" stroke-width="0.5"/>
<path d="M50.6894 18.7212C50.2574 18.7212 49.9078 19.0707 49.9078 19.5028V25.7549C49.9078 26.1869 50.2574 26.5365 50.6894 26.5365C51.1214 26.5365 51.471 26.1869 51.471 25.7551V19.5028C51.471 19.0707 51.1214 18.7212 50.6894 18.7212Z" fill="#FF732D" stroke="#FF732D" stroke-width="0.5"/>
<path d="M49.8695 2.7757C49.7778 2.49256 49.5336 2.2866 49.2389 2.24381L47.4852 1.98822L46.7004 0.399989C46.438 -0.134243 45.5618 -0.13268 45.2992 0.399989L44.516 1.98822L42.7607 2.24381C42.466 2.2866 42.222 2.49256 42.1303 2.7757C42.0389 3.05825 42.1151 3.36894 42.3289 3.57646L43.5974 4.81277L43.2967 6.55909C43.2463 6.85219 43.367 7.14823 43.6082 7.32312C43.8477 7.49722 44.1668 7.5193 44.4308 7.38349L46.0001 6.55928L47.5696 7.38349C47.6837 7.44309 47.8087 7.47279 47.9324 7.47279C48.0942 7.47279 48.256 7.42238 48.3916 7.32312C48.633 7.14823 48.7535 6.85219 48.7031 6.55909L48.4024 4.81277L49.6709 3.57646C49.8847 3.36894 49.9611 3.05806 49.8695 2.7757ZM47.0183 3.98114C46.8337 4.16032 46.7497 4.41923 46.7925 4.67247L46.8946 5.26318L46.3634 4.98375C46.2504 4.92415 46.1254 4.89445 46.0001 4.89445C45.8748 4.89445 45.7498 4.92435 45.6368 4.98395L45.1055 5.26337L45.2077 4.67267C45.2505 4.41943 45.1665 4.16052 44.9819 3.98133L44.5529 3.56298L45.1483 3.47602C45.4031 3.43929 45.623 3.27906 45.7359 3.04848L46.0001 2.5119L46.2656 3.04828C46.3786 3.27886 46.6 3.43909 46.8534 3.47583L47.4472 3.562L47.0183 3.98114Z" fill="#FF732D" stroke="#FF732D" stroke-width="0.5"/>
<path d="M46.3083 7.84289C45.9114 7.67269 45.452 7.85363 45.281 8.25343L40.5917 19.195C40.4223 19.5911 40.6056 20.0505 41.0025 20.2207C41.1033 20.2641 41.2071 20.284 41.3108 20.284C41.6131 20.284 41.9015 20.1072 42.0299 19.8101L46.719 8.86856C46.8884 8.47267 46.7051 8.01328 46.3083 7.84289Z" fill="#FF732D" stroke="#FF732D" stroke-width="0.5"/>
<path d="M51.4083 19.195L46.719 8.25343C46.5466 7.855 46.0855 7.67426 45.6917 7.84289C45.2947 8.01308 45.1116 8.47248 45.281 8.86856L49.9703 19.8101C50.0987 20.107 50.3871 20.284 50.6894 20.284C50.7931 20.284 50.8971 20.2643 50.9975 20.2207C51.3946 20.0505 51.5773 19.5913 51.4083 19.195Z" fill="#FF732D" stroke="#FF732D" stroke-width="0.5"/>
<path d="M7.62237 70.7335L4.49631 64.4812C4.30247 64.0951 3.83527 63.9396 3.44759 64.1318C3.06127 64.3255 2.90573 64.7941 3.09801 65.1804L6.22426 71.4327C6.36163 71.7074 6.63793 71.8647 6.92341 71.8647C7.04085 71.8647 7.15985 71.8389 7.27279 71.7823C7.65911 71.59 7.81465 71.1198 7.62237 70.7335Z" fill="#FF732D" stroke="#FF732D" stroke-width="0.5"/>
<path d="M6.92342 70.3017H0.671108C0.239072 70.3017 -0.110504 70.6511 -0.110504 71.0831C-0.110504 71.5151 0.239072 71.8647 0.671108 71.8647H6.92342C7.35526 71.8647 7.70483 71.5151 7.70483 71.0831C7.70483 70.6511 7.35526 70.3017 6.92342 70.3017Z" fill="#FF732D" stroke="#FF732D" stroke-width="0.5"/>
<path d="M4.14694 64.1318C3.76063 63.9409 3.29361 64.0967 3.09821 64.4812L-0.0280428 70.7335C-0.220319 71.1196 -0.0647786 71.59 0.321533 71.7823C0.434476 71.8387 0.553477 71.8647 0.671109 71.8647C0.956593 71.8647 1.2327 71.7076 1.37026 71.4327L4.49651 65.1804C4.68879 64.7943 4.53325 64.3255 4.14694 64.1318Z" fill="#FF732D" stroke="#FF732D" stroke-width="0.5"/>
<path d="M28.8062 67.1756C28.3744 67.1756 28.0248 67.5252 28.0248 67.9572V99.2186C28.0248 99.6506 28.3744 100 28.8062 100C29.2382 100 29.5878 99.6506 29.5878 99.2184V67.9572C29.5878 67.5252 29.2382 67.1756 28.8062 67.1756Z" fill="#FF732D" stroke="#FF732D" stroke-width="0.5"/>
<path d="M31.9325 67.1756C31.5004 67.1756 31.1508 67.5252 31.1508 67.9572V72.6463C31.1508 73.0784 31.5004 73.4279 31.9325 73.4279C32.3645 73.4279 32.7139 73.0782 32.7139 72.6463V67.9572C32.7139 67.5252 32.3643 67.1756 31.9325 67.1756Z" fill="#FF732D" stroke="#FF732D" stroke-width="0.5"/>
<path d="M30.9218 68.9675L29.3588 67.4044C29.0536 67.0992 28.559 67.0992 28.2538 67.4044C27.9486 67.7097 27.9486 68.2042 28.2538 68.5094L29.8168 70.0727C29.9696 70.2253 30.1695 70.3017 30.3694 70.3017C30.5693 70.3017 30.7692 70.2255 30.9218 70.0727C31.2271 69.7674 31.2271 69.2727 30.9218 68.9675Z" fill="#FF732D" stroke="#FF732D" stroke-width="0.5"/>
<path d="M32.4851 67.4046C32.1796 67.0994 31.6851 67.0994 31.3799 67.4046L29.8168 68.9677C29.5116 69.2729 29.5116 69.7676 29.8168 70.0729C29.9696 70.2255 30.1695 70.3019 30.3694 70.3019C30.5693 70.3019 30.7692 70.2257 30.9218 70.0729L32.4851 68.5096C32.7903 68.2042 32.7903 67.7098 32.4851 67.4046Z" fill="#FF732D" stroke="#FF732D" stroke-width="0.5"/>
<path d="M35.0585 67.1756C34.6265 67.1756 34.2769 67.5252 34.2769 67.9572V72.6463C34.2769 73.0784 34.6265 73.4279 35.0585 73.4279C35.4905 73.4279 35.8401 73.0782 35.8401 72.6463V67.9572C35.8401 67.5252 35.4905 67.1756 35.0585 67.1756Z" fill="#FF732D" stroke="#FF732D" stroke-width="0.5"/>
<path d="M38.1848 67.1756C37.7527 67.1756 37.4032 67.5252 37.4032 67.9572V72.6463C37.4032 73.0784 37.7529 73.4279 38.1848 73.4279C38.6166 73.4279 38.9662 73.0782 38.9664 72.6463V67.9572C38.9664 67.5252 38.6168 67.1756 38.1848 67.1756Z" fill="#FF732D" stroke="#FF732D" stroke-width="0.5"/>
<path d="M37.1741 68.9675L35.6111 67.4044C35.3057 67.0992 34.8111 67.0992 34.5059 67.4044C34.2007 67.7097 34.2007 68.2042 34.5059 68.5094L36.0689 70.0727C36.2217 70.2253 36.4216 70.3017 36.6215 70.3017C36.8216 70.3017 37.0215 70.2255 37.1741 70.0727C37.4794 69.7674 37.4794 69.2727 37.1741 68.9675Z" fill="#FF732D" stroke="#FF732D" stroke-width="0.5"/>
<path d="M38.7372 67.4046C38.4319 67.0994 37.9374 67.0994 37.6322 67.4046L36.0689 68.9677C35.7637 69.2729 35.7637 69.7676 36.0689 70.0729C36.2217 70.2255 36.4216 70.3019 36.6215 70.3019C36.8216 70.3019 37.0215 70.2257 37.1741 70.0729L38.7372 68.5096C39.0424 68.2042 39.0424 67.7098 38.7372 67.4046Z" fill="#FF732D" stroke="#FF732D" stroke-width="0.5"/>
<path d="M41.3108 67.1756C40.8788 67.1756 40.5292 67.5252 40.5292 67.9572V72.6463C40.5292 73.0784 40.8788 73.4279 41.3108 73.4279C41.7429 73.4279 42.0924 73.0782 42.0924 72.6463V67.9572C42.0924 67.5252 41.7429 67.1756 41.3108 67.1756Z" fill="#FF732D" stroke="#FF732D" stroke-width="0.5"/>
<path d="M44.4369 67.1756C44.005 67.1756 43.6555 67.5252 43.6555 67.9572V72.6463C43.6555 73.0784 44.005 73.4279 44.4369 73.4279C44.8689 73.4279 45.2185 73.0782 45.2185 72.6463V67.9572C45.2185 67.5252 44.8689 67.1756 44.4369 67.1756Z" fill="#FF732D" stroke="#FF732D" stroke-width="0.5"/>
<path d="M43.4265 68.9675L41.8632 67.4044C41.558 67.0992 41.0632 67.0992 40.758 67.4044C40.4528 67.7097 40.4528 68.2042 40.758 68.5094L42.3213 70.0727C42.4739 70.2253 42.674 70.3017 42.8739 70.3017C43.0739 70.3017 43.2738 70.2255 43.4265 70.0727C43.7317 69.7674 43.7317 69.2727 43.4265 68.9675Z" fill="#FF732D" stroke="#FF732D" stroke-width="0.5"/>
<path d="M44.9895 67.4046C44.6841 67.0994 44.1895 67.0994 43.8843 67.4046L42.3212 68.9677C42.016 69.2729 42.016 69.7676 42.3212 70.0729C42.4739 70.2255 42.6739 70.3019 42.8738 70.3019C43.0739 70.3019 43.2738 70.2257 43.4264 70.0729L44.9895 68.5096C45.2947 68.2042 45.2949 67.7098 44.9895 67.4046Z" fill="#FF732D" stroke="#FF732D" stroke-width="0.5"/>
<path d="M47.5633 67.1756C47.1313 67.1756 46.7817 67.5252 46.7817 67.9572V72.6463C46.7817 73.0784 47.1313 73.4279 47.5633 73.4279C47.995 73.4279 48.3445 73.0782 48.3445 72.6463V67.9572C48.3445 67.5252 47.995 67.1756 47.5633 67.1756Z" fill="#FF732D" stroke="#FF732D" stroke-width="0.5"/>
<path d="M50.6894 67.1756C50.2574 67.1756 49.9078 67.5252 49.9078 67.9572V72.6463C49.9078 73.0784 50.2574 73.4279 50.6894 73.4279C51.1214 73.4279 51.471 73.0782 51.471 72.6463V67.9572C51.471 67.5252 51.1214 67.1756 50.6894 67.1756Z" fill="#FF732D" stroke="#FF732D" stroke-width="0.5"/>
<path d="M49.6788 68.9675L48.1155 67.4044C47.8103 67.0992 47.3159 67.0992 47.0107 67.4044C46.7055 67.7097 46.7055 68.2042 47.0107 68.5094L48.5735 70.0727C48.7262 70.2253 48.9263 70.3017 49.1262 70.3017C49.326 70.3017 49.5261 70.2255 49.6788 70.0727C49.984 69.7674 49.984 69.2727 49.6788 68.9675Z" fill="#FF732D" stroke="#FF732D" stroke-width="0.5"/>
<path d="M51.242 67.4046C50.9368 67.0994 50.442 67.0994 50.1368 67.4046L48.5735 68.9677C48.2683 69.2729 48.2683 69.7676 48.5735 70.0729C48.7262 70.2255 48.9263 70.3019 49.1261 70.3019C49.326 70.3019 49.5261 70.2257 49.6787 70.0729L51.242 68.5096C51.5472 68.2042 51.5472 67.7098 51.242 67.4046Z" fill="#FF732D" stroke="#FF732D" stroke-width="0.5"/>
<path d="M53.8154 67.1756C53.3834 67.1756 53.0338 67.5252 53.0338 67.9572V72.6463C53.0338 73.0784 53.3834 73.4279 53.8154 73.4279C54.2475 73.4279 54.597 73.0782 54.597 72.6463V67.9572C54.597 67.5252 54.2475 67.1756 53.8154 67.1756Z" fill="#FF732D" stroke="#FF732D" stroke-width="0.5"/>
<path d="M56.9415 67.1756C56.5095 67.1756 56.1599 67.5252 56.1599 67.9572V72.6463C56.1599 73.0784 56.5095 73.4279 56.9415 73.4279C57.3735 73.4279 57.7231 73.0782 57.7231 72.6463V67.9572C57.7231 67.5252 57.3735 67.1756 56.9415 67.1756Z" fill="#FF732D" stroke="#FF732D" stroke-width="0.5"/>
<path d="M55.9309 68.9675L54.368 67.4044C54.0628 67.0992 53.5681 67.0992 53.2628 67.4044C52.9576 67.7097 52.9576 68.2042 53.2628 68.5094L54.8261 70.0727C54.9787 70.2253 55.1788 70.3017 55.3787 70.3017C55.5784 70.3017 55.7783 70.2255 55.9309 70.0727C56.2361 69.7674 56.2361 69.2727 55.9309 68.9675Z" fill="#FF732D" stroke="#FF732D" stroke-width="0.5"/>
<path d="M57.4941 67.4046C57.1889 67.0994 56.6941 67.0994 56.3889 67.4046L54.8261 68.9677C54.5208 69.2729 54.5208 69.7676 54.8261 70.0729C54.9787 70.2255 55.1788 70.3019 55.3787 70.3019C55.5784 70.3019 55.7783 70.2257 55.9309 70.0729L57.4941 68.5096C57.7993 68.2042 57.7993 67.7098 57.4941 67.4046Z" fill="#FF732D" stroke="#FF732D" stroke-width="0.5"/>
<path d="M10.0495 70.3021C9.61744 70.3021 9.26786 70.6515 9.26786 71.0835V75.7728C9.26786 76.2046 9.61744 76.5542 10.0495 76.5542C10.4815 76.5542 10.8311 76.2044 10.8311 75.7728V71.0835C10.8311 70.6515 10.4815 70.3021 10.0495 70.3021Z" fill="#FF732D" stroke="#FF732D" stroke-width="0.5"/>
<path d="M13.1757 70.3021C12.7437 70.3021 12.3941 70.6515 12.3941 71.0835V75.7728C12.3941 76.2046 12.7439 76.5542 13.1757 76.5542C13.6076 76.5542 13.9571 76.2044 13.9573 75.7728V71.0835C13.9573 70.6515 13.6078 70.3021 13.1757 70.3021Z" fill="#FF732D" stroke="#FF732D" stroke-width="0.5"/>
<path d="M12.1649 72.0937L10.6019 70.5309C10.2967 70.2257 9.8019 70.2257 9.49668 70.5309C9.19146 70.8359 9.19146 71.3307 9.49668 71.6359L11.0599 73.1989C11.2127 73.3515 11.4126 73.4279 11.6125 73.4279C11.8126 73.4279 12.0125 73.3515 12.1649 73.1989C12.4701 72.8937 12.4701 72.3991 12.1649 72.0937Z" fill="#FF732D" stroke="#FF732D" stroke-width="0.5"/>
<path d="M13.7281 70.5311C13.4229 70.2259 12.9283 70.2259 12.6231 70.5311L11.0599 72.0939C10.7547 72.3991 10.7547 72.8939 11.0599 73.1991C11.2127 73.3517 11.4126 73.4281 11.6125 73.4281C11.8126 73.4281 12.0125 73.3517 12.1651 73.1991L13.7281 71.6361C14.0333 71.3307 14.0333 70.8363 13.7281 70.5311Z" fill="#FF732D" stroke="#FF732D" stroke-width="0.5"/>
<path d="M16.3018 70.3021C15.8697 70.3021 15.5202 70.6515 15.5202 71.0835V75.7728C15.5202 76.2046 15.8697 76.5542 16.3018 76.5542C16.7338 76.5542 17.0834 76.2044 17.0834 75.7728V71.0835C17.0834 70.6515 16.7336 70.3021 16.3018 70.3021Z" fill="#FF732D" stroke="#FF732D" stroke-width="0.5"/>
<path d="M19.4278 70.3021C18.9958 70.3021 18.6462 70.6515 18.6462 71.0835V75.7728C18.6462 76.2046 18.996 76.5542 19.4278 76.5542C19.8599 76.5542 20.2094 76.2044 20.2094 75.7728V71.0835C20.2094 70.6515 19.8599 70.3021 19.4278 70.3021Z" fill="#FF732D" stroke="#FF732D" stroke-width="0.5"/>
<path d="M18.4176 72.0937L16.8544 70.5309C16.5492 70.2257 16.0544 70.2257 15.7492 70.5309C15.444 70.8359 15.444 71.3307 15.7492 71.6359L17.3122 73.1989C17.4648 73.3515 17.6649 73.4279 17.8648 73.4279C18.0649 73.4279 18.2648 73.3515 18.4176 73.1989C18.7228 72.8937 18.7228 72.3991 18.4176 72.0937Z" fill="#FF732D" stroke="#FF732D" stroke-width="0.5"/>
<path d="M19.9806 70.5311C19.6752 70.2259 19.1807 70.2259 18.8754 70.5311L17.3122 72.0939C17.007 72.3991 17.007 72.8939 17.3122 73.1991C17.4648 73.3517 17.6649 73.4281 17.8648 73.4281C18.0649 73.4281 18.2648 73.3517 18.4176 73.1991L19.9806 71.6361C20.2859 71.3307 20.2859 70.8363 19.9806 70.5311Z" fill="#FF732D" stroke="#FF732D" stroke-width="0.5"/>
<path d="M22.5541 70.3021C22.1221 70.3021 21.7725 70.6515 21.7725 71.0835V75.7728C21.7725 76.2046 22.1222 76.5542 22.5541 76.5542C22.9859 76.5542 23.3355 76.2044 23.3357 75.7728V71.0835C23.3357 70.6515 22.9861 70.3021 22.5541 70.3021Z" fill="#FF732D" stroke="#FF732D" stroke-width="0.5"/>
<path d="M25.6801 70.3021C25.2481 70.3021 24.8985 70.6515 24.8985 71.0835V75.7728C24.8985 76.2046 25.2481 76.5542 25.6801 76.5542C26.1122 76.5542 26.4618 76.2044 26.4618 75.7728V71.0835C26.4618 70.6515 26.1122 70.3021 25.6801 70.3021Z" fill="#FF732D" stroke="#FF732D" stroke-width="0.5"/>
<path d="M24.6697 72.0937L23.1065 70.5309C22.8013 70.2257 22.3067 70.2257 22.0015 70.5309C21.6963 70.8359 21.6963 71.3307 22.0015 71.6359L23.5645 73.1989C23.7171 73.3515 23.9172 73.4279 24.1171 73.4279C24.3172 73.4279 24.5171 73.3515 24.6697 73.1989C24.9749 72.8937 24.9749 72.3991 24.6697 72.0937Z" fill="#FF732D" stroke="#FF732D" stroke-width="0.5"/>
<path d="M26.2327 70.5311C25.9275 70.2259 25.4328 70.2259 25.1275 70.5311L23.5645 72.0939C23.2593 72.3991 23.2593 72.8939 23.5645 73.1991C23.7171 73.3517 23.9172 73.4281 24.1171 73.4281C24.3172 73.4281 24.5171 73.3517 24.6695 73.1991L26.2327 71.6361C26.538 71.3307 26.538 70.8363 26.2327 70.5311Z" fill="#FF732D" stroke="#FF732D" stroke-width="0.5"/>
<path d="M60.0675 67.1756C59.6355 67.1756 59.2863 67.5252 59.2863 67.9572V72.6463C59.2863 73.0784 59.6355 73.4279 60.0675 73.4279C60.4996 73.4279 60.8492 73.0782 60.8492 72.6463V67.9572C60.8492 67.5252 60.4996 67.1756 60.0675 67.1756Z" fill="#FF732D" stroke="#FF732D" stroke-width="0.5"/>
<path d="M63.1936 67.1756C62.762 67.1756 62.4124 67.5252 62.4124 67.9572V99.2186C62.4124 99.6506 62.762 100 63.1936 100C63.6256 100 63.9752 99.6506 63.9752 99.2184V67.9572C63.9752 67.5252 63.6256 67.1756 63.1936 67.1756Z" fill="#FF732D" stroke="#FF732D" stroke-width="0.5"/>
<path d="M62.1834 68.9675L60.6201 67.4044C60.3149 67.0992 59.8202 67.0992 59.5149 67.4044C59.2099 67.7097 59.2099 68.2042 59.5149 68.5094L61.0782 70.0727C61.2308 70.2253 61.4309 70.3017 61.6308 70.3017C61.8309 70.3017 62.0308 70.2255 62.1834 70.0727C62.4886 69.7674 62.4886 69.2727 62.1834 68.9675Z" fill="#FF732D" stroke="#FF732D" stroke-width="0.5"/>
<path d="M63.7462 67.4046C63.441 67.0994 62.9466 67.0994 62.6414 67.4046L61.0782 68.9677C60.7729 69.2729 60.7729 69.7676 61.0782 70.0729C61.2308 70.2255 61.4309 70.3019 61.6308 70.3019C61.8309 70.3019 62.0308 70.2257 62.1834 70.0729L63.7462 68.5096C64.0514 68.2042 64.0514 67.7098 63.7462 67.4046Z" fill="#FF732D" stroke="#FF732D" stroke-width="0.5"/>
<path d="M46.0001 84.3695C42.9839 84.3695 40.5292 86.824 40.5292 89.8404V99.2186C40.5292 99.6506 40.8788 100 41.3108 100C41.7429 100 42.0924 99.6506 42.0924 99.2186V89.8404C42.0924 87.6865 43.8448 85.9327 46.0001 85.9327C48.1552 85.9327 49.9078 87.6865 49.9078 89.8404V99.2186C49.9078 99.6506 50.2573 100 50.6894 100C51.1214 100 51.471 99.6506 51.471 99.2186V89.8404C51.471 86.8242 49.0163 84.3695 46.0001 84.3695Z" fill="#FF732D" stroke="#FF732D" stroke-width="0.5"/>
<path d="M35.0585 76.554H31.9325C31.5004 76.554 31.1508 76.9036 31.1508 77.3356C31.1508 77.7676 31.5004 78.1172 31.9325 78.1172H35.0585C35.4905 78.1172 35.8401 77.7676 35.8401 77.3356C35.8401 76.9036 35.4905 76.554 35.0585 76.554Z" fill="#FF732D" stroke="#FF732D" stroke-width="0.5"/>
<path d="M60.0675 76.554H56.9415C56.5095 76.554 56.1599 76.9036 56.1599 77.3356C56.1599 77.7676 56.5095 78.1172 56.9415 78.1172H60.0675C60.4996 78.1172 60.8492 77.7676 60.8492 77.3356C60.8492 76.9036 60.4996 76.554 60.0675 76.554Z" fill="#FF732D" stroke="#FF732D" stroke-width="0.5"/>
<path d="M46.0001 87.4956C45.5681 87.4956 45.2185 87.845 45.2185 88.277V99.2184C45.2185 99.6504 45.5683 100 46.0001 100C46.4321 100 46.7817 99.6504 46.7817 99.2184V88.2772C46.7817 87.8452 46.4321 87.4956 46.0001 87.4956Z" fill="#FF732D" stroke="#FF732D" stroke-width="0.5"/>
<path d="M49.1262 95.3111H42.8739C42.4418 95.3111 42.0922 95.6605 42.0922 96.0925C42.0922 96.5246 42.4418 96.8741 42.8739 96.8741H49.1262C49.5582 96.8741 49.9078 96.5246 49.9078 96.0925C49.9078 95.6605 49.5582 95.3111 49.1262 95.3111Z" fill="#FF732D" stroke="#FF732D" stroke-width="0.5"/>
<path d="M49.1262 90.6216H42.8739C42.4418 90.6216 42.0922 90.9712 42.0922 91.4032C42.0922 91.8351 42.4418 92.1847 42.8739 92.1847H49.1262C49.5582 92.1847 49.9078 91.8351 49.9078 91.4032C49.9078 90.9712 49.5582 90.6216 49.1262 90.6216Z" fill="#FF732D" stroke="#FF732D" stroke-width="0.5"/>
<path d="M38.1848 95.3111H28.8062C28.3744 95.3111 28.0248 95.6605 28.0248 96.0925C28.0248 96.5246 28.3744 96.8741 28.8062 96.8741H38.1848C38.6166 96.8741 38.9664 96.5246 38.9664 96.0925C38.9664 95.6605 38.6166 95.3111 38.1848 95.3111Z" fill="#FF732D" stroke="#FF732D" stroke-width="0.5"/>
<path d="M63.1936 95.3111H53.8154C53.3834 95.3111 53.0338 95.6605 53.0338 96.0925C53.0338 96.5246 53.3834 96.8741 53.8154 96.8741H63.1936C63.6256 96.8741 63.9752 96.5246 63.9752 96.0925C63.9752 95.6605 63.6256 95.3111 63.1936 95.3111Z" fill="#FF732D" stroke="#FF732D" stroke-width="0.5"/>
<path d="M47.5633 74.9912H44.4369C44.005 74.9912 43.6555 75.3407 43.6555 75.7728V78.8988C43.6555 79.3309 44.005 79.6804 44.4369 79.6804H47.5633C47.995 79.6804 48.3445 79.3309 48.3445 78.8988V75.7728C48.3445 75.3407 47.995 74.9912 47.5633 74.9912ZM46.7817 78.1172H45.2185V76.554H46.7817V78.1172Z" fill="#FF732D" stroke="#FF732D" stroke-width="0.5"/>
<path d="M0.671108 70.3017C0.239072 70.3017 -0.110504 70.6511 -0.110504 71.0831V99.2184C-0.110504 99.6504 0.239072 100 0.671108 100C1.10314 100 1.45252 99.6504 1.45272 99.2182V71.0831C1.45272 70.6511 1.10314 70.3017 0.671108 70.3017Z" fill="#FF732D" stroke="#FF732D" stroke-width="0.5"/>
<path d="M6.92342 70.3017C6.49138 70.3017 6.1418 70.6511 6.1418 71.0831V99.2184C6.1418 99.6504 6.49138 100 6.92342 100C7.35526 100 7.70483 99.6504 7.70483 99.2182V71.0831C7.70483 70.6511 7.35526 70.3017 6.92342 70.3017Z" fill="#FF732D" stroke="#FF732D" stroke-width="0.5"/>
<path d="M3.79716 73.4279C3.36532 73.4279 3.01575 73.7775 3.01575 74.2096V75.7726C3.01575 76.2044 3.36532 76.554 3.79716 76.554C4.2292 76.554 4.57878 76.2042 4.57878 75.7726V74.2096C4.57878 73.7775 4.2292 73.4279 3.79716 73.4279Z" fill="#FF732D" stroke="#FF732D" stroke-width="0.5"/>
<path d="M3.79716 62.4865C3.36532 62.4865 3.01575 62.8359 3.01575 63.268V64.831C3.01575 65.263 3.36532 65.6126 3.79716 65.6126C4.2292 65.6126 4.57878 65.263 4.57878 64.831V63.268C4.57878 62.8357 4.2292 62.4865 3.79716 62.4865Z" fill="#FF732D" stroke="#FF732D" stroke-width="0.5"/>
<path d="M5.36039 74.9912H2.23413C1.8021 74.9912 1.45252 75.3407 1.45252 75.7728C1.45252 76.2046 1.8021 76.5542 2.23413 76.5542H5.36039C5.79223 76.5542 6.1418 76.2044 6.142 75.7728C6.142 75.3407 5.79223 74.9912 5.36039 74.9912Z" fill="#FF732D" stroke="#FF732D" stroke-width="0.5"/>
<path d="M35.0585 71.8649H31.9325C31.5004 71.8649 31.1508 72.2143 31.1508 72.6463C31.1508 73.0784 31.5004 73.4279 31.9325 73.4279H35.0585C35.4905 73.4279 35.8401 73.0784 35.8401 72.6463C35.8401 72.2143 35.4905 71.8649 35.0585 71.8649Z" fill="#FF732D" stroke="#FF732D" stroke-width="0.5"/>
<path d="M41.3108 71.8649H38.1846C37.7525 71.8649 37.403 72.2143 37.403 72.6463C37.403 73.0784 37.7527 73.4279 38.1846 73.4279H41.3108C41.7429 73.4279 42.0924 73.0784 42.0924 72.6463C42.0924 72.2143 41.7429 71.8649 41.3108 71.8649Z" fill="#FF732D" stroke="#FF732D" stroke-width="0.5"/>
<path d="M47.5633 71.8649H44.4369C44.005 71.8649 43.6555 72.2143 43.6555 72.6463C43.6555 73.0784 44.005 73.4279 44.4369 73.4279H47.5633C47.995 73.4279 48.3445 73.0784 48.3445 72.6463C48.3445 72.2143 47.995 71.8649 47.5633 71.8649Z" fill="#FF732D" stroke="#FF732D" stroke-width="0.5"/>
<path d="M53.8154 71.8649H50.6894C50.2574 71.8649 49.9078 72.2143 49.9078 72.6463C49.9078 73.0784 50.2574 73.4279 50.6894 73.4279H53.8154C54.2475 73.4279 54.5971 73.0784 54.5971 72.6463C54.5971 72.2143 54.2475 71.8649 53.8154 71.8649Z" fill="#FF732D" stroke="#FF732D" stroke-width="0.5"/>
<path d="M60.0675 71.8649H56.9415C56.5095 71.8649 56.1599 72.2143 56.1599 72.6463C56.1599 73.0784 56.5095 73.4279 56.9415 73.4279H60.0675C60.4996 73.4279 60.8492 73.0784 60.8492 72.6463C60.8492 72.2143 60.4996 71.8649 60.0675 71.8649Z" fill="#FF732D" stroke="#FF732D" stroke-width="0.5"/>
<path d="M28.8062 74.9912H25.6801C25.2481 74.9912 24.8985 75.3407 24.8985 75.7728C24.8985 76.2046 25.2481 76.5542 25.6801 76.5542H28.8062C29.2382 76.5542 29.5878 76.2044 29.5878 75.7728C29.5878 75.3407 29.2382 74.9912 28.8062 74.9912Z" fill="#FF732D" stroke="#FF732D" stroke-width="0.5"/>
<path d="M22.5541 74.9912H19.4278C18.9958 74.9912 18.6462 75.3407 18.6462 75.7728C18.6462 76.2046 18.996 76.5542 19.4278 76.5542H22.5541C22.9859 76.5542 23.3355 76.2044 23.3357 75.7728C23.3357 75.3407 22.9859 74.9912 22.5541 74.9912Z" fill="#FF732D" stroke="#FF732D" stroke-width="0.5"/>
<path d="M16.302 74.9912H13.1757C12.7437 74.9912 12.3941 75.3407 12.3941 75.7728C12.3941 76.2046 12.7439 76.5542 13.1757 76.5542H16.3018C16.7338 76.5542 17.0834 76.2044 17.0836 75.7728C17.0836 75.3407 16.7338 74.9912 16.302 74.9912Z" fill="#FF732D" stroke="#FF732D" stroke-width="0.5"/>
<path d="M10.0495 74.9912H6.92342C6.49138 74.9912 6.1418 75.3407 6.1418 75.7728C6.1418 76.2046 6.49138 76.5542 6.92342 76.5542H10.0495C10.4815 76.5542 10.8311 76.2044 10.8311 75.7728C10.8311 75.3407 10.4815 74.9912 10.0495 74.9912Z" fill="#FF732D" stroke="#FF732D" stroke-width="0.5"/>
<path d="M88.5524 64.1318C88.1663 63.9409 87.6991 64.0967 87.5037 64.4812L84.3776 70.7335C84.1854 71.1196 84.3409 71.59 84.7272 71.7823C84.8402 71.8387 84.9592 71.8647 85.0768 71.8647C85.3623 71.8647 85.6386 71.7076 85.7759 71.4327L88.902 65.1804C89.0943 64.7943 88.9387 64.3255 88.5524 64.1318Z" fill="#FF732D" stroke="#FF732D" stroke-width="0.5"/>
<path d="M91.3289 70.3017H85.0768C84.6447 70.3017 84.2952 70.6511 84.2952 71.0831C84.2952 71.5151 84.6447 71.8647 85.0768 71.8647H91.3291C91.7611 71.8647 92.1105 71.5151 92.1105 71.0831C92.1105 70.6511 91.7609 70.3017 91.3289 70.3017Z" fill="#FF732D" stroke="#FF732D" stroke-width="0.5"/>
<path d="M92.028 70.7335L88.902 64.4812C88.7081 64.0951 88.2409 63.9396 87.8533 64.1318C87.4669 64.3255 87.3114 64.7941 87.5037 65.1804L90.6299 71.4327C90.7673 71.7074 91.0436 71.8647 91.3291 71.8647C91.4465 71.8647 91.5657 71.8389 91.6785 71.7823C92.0648 71.59 92.2203 71.1198 92.028 70.7335Z" fill="#FF732D" stroke="#FF732D" stroke-width="0.5"/>
<path d="M81.9507 70.3021C81.5187 70.3021 81.1691 70.6515 81.1691 71.0835V75.7728C81.1691 76.2046 81.5187 76.5542 81.9507 76.5542C82.3828 76.5542 82.7319 76.2044 82.7319 75.7728V71.0835C82.7319 70.6515 82.3828 70.3021 81.9507 70.3021Z" fill="#FF732D" stroke="#FF732D" stroke-width="0.5"/>
<path d="M78.8243 70.3021C78.3926 70.3021 78.0431 70.6515 78.0431 71.0835V75.7728C78.0431 76.2046 78.3926 76.5542 78.8243 76.5542C79.2563 76.5542 79.6059 76.2044 79.6059 75.7728V71.0835C79.6059 70.6515 79.2563 70.3021 78.8243 70.3021Z" fill="#FF732D" stroke="#FF732D" stroke-width="0.5"/>
<path d="M82.5033 70.5311C82.1981 70.2259 81.7033 70.2259 81.3981 70.5311L79.8349 72.0939C79.5297 72.3991 79.5297 72.8939 79.8349 73.1991C79.9875 73.3517 80.1876 73.4281 80.3875 73.4281C80.5876 73.4281 80.7875 73.3517 80.9401 73.1991L82.5033 71.6361C82.8083 71.3307 82.8083 70.8363 82.5033 70.5311Z" fill="#FF732D" stroke="#FF732D" stroke-width="0.5"/>
<path d="M80.9401 72.0937L79.3769 70.5309C79.0717 70.2257 78.5773 70.2257 78.2721 70.5309C77.9668 70.8359 77.9668 71.3307 78.2721 71.6359L79.8349 73.1989C79.9875 73.3515 80.1876 73.4279 80.3875 73.4279C80.5876 73.4279 80.7875 73.3515 80.9401 73.1989C81.2453 72.8937 81.2453 72.3991 80.9401 72.0937Z" fill="#FF732D" stroke="#FF732D" stroke-width="0.5"/>
<path d="M75.6982 70.3021C75.2662 70.3021 74.9166 70.6515 74.9166 71.0835V75.7728C74.9166 76.2046 75.2662 76.5542 75.6982 76.5542C76.1303 76.5542 76.4798 76.2044 76.4798 75.7728V71.0835C76.4798 70.6515 76.1303 70.3021 75.6982 70.3021Z" fill="#FF732D" stroke="#FF732D" stroke-width="0.5"/>
<path d="M72.5722 70.3021C72.1401 70.3021 71.7906 70.6515 71.7906 71.0835V75.7728C71.7906 76.2046 72.1401 76.5542 72.5722 76.5542C73.0042 76.5542 73.3538 76.2044 73.3538 75.7728V71.0835C73.3538 70.6515 73.0042 70.3021 72.5722 70.3021Z" fill="#FF732D" stroke="#FF732D" stroke-width="0.5"/>
<path d="M76.2508 70.5311C75.9456 70.2259 75.4508 70.2259 75.1456 70.5311L73.5828 72.0939C73.2776 72.3991 73.2776 72.8939 73.5828 73.1991C73.7354 73.3517 73.9355 73.4281 74.1354 73.4281C74.3355 73.4281 74.5354 73.3517 74.688 73.1991L76.2508 71.6361C76.556 71.3307 76.556 70.8363 76.2508 70.5311Z" fill="#FF732D" stroke="#FF732D" stroke-width="0.5"/>
<path d="M74.688 72.0937L73.1248 70.5309C72.8195 70.2257 72.3248 70.2257 72.0196 70.5309C71.7143 70.8359 71.7143 71.3307 72.0196 71.6359L73.5828 73.1989C73.7354 73.3515 73.9355 73.4279 74.1354 73.4279C74.3355 73.4279 74.5354 73.3515 74.688 73.1989C74.993 72.8937 74.993 72.3991 74.688 72.0937Z" fill="#FF732D" stroke="#FF732D" stroke-width="0.5"/>
<path d="M69.4461 70.3021C69.0141 70.3021 68.6645 70.6515 68.6645 71.0835V75.7728C68.6645 76.2046 69.0141 76.5542 69.4461 76.5542C69.8781 76.5542 70.2277 76.2044 70.2277 75.7728V71.0835C70.2277 70.6515 69.8781 70.3021 69.4461 70.3021Z" fill="#FF732D" stroke="#FF732D" stroke-width="0.5"/>
<path d="M66.3201 70.3021C65.888 70.3021 65.5384 70.6515 65.5384 71.0835V75.7728C65.5384 76.2046 65.888 76.5542 66.3201 76.5542C66.7521 76.5542 67.1013 76.2044 67.1013 75.7728V71.0835C67.1013 70.6515 66.7521 70.3021 66.3201 70.3021Z" fill="#FF732D" stroke="#FF732D" stroke-width="0.5"/>
<path d="M69.9987 70.5311C69.6935 70.2259 69.1987 70.2259 68.8935 70.5311L67.3303 72.0939C67.0253 72.3991 67.0253 72.8939 67.3303 73.1991C67.4829 73.3517 67.683 73.4281 67.8829 73.4281C68.083 73.4281 68.2829 73.3517 68.4355 73.1991L69.9987 71.6361C70.3039 71.3307 70.3039 70.8363 69.9987 70.5311Z" fill="#FF732D" stroke="#FF732D" stroke-width="0.5"/>
<path d="M68.4355 72.0937L66.8727 70.5309C66.5674 70.2257 66.0727 70.2257 65.7675 70.5309C65.4622 70.8359 65.4622 71.3307 65.7675 71.6359L67.3303 73.1989C67.4829 73.3515 67.683 73.4279 67.8829 73.4279C68.083 73.4279 68.2829 73.3515 68.4355 73.1989C68.7407 72.8937 68.7407 72.3991 68.4355 72.0937Z" fill="#FF732D" stroke="#FF732D" stroke-width="0.5"/>
<path d="M91.3291 70.3017C90.8971 70.3017 90.5475 70.6511 90.5475 71.0831V99.2184C90.5475 99.6504 90.8971 100 91.3291 100C91.7611 100 92.1107 99.6504 92.1107 99.2182V71.0831C92.1107 70.6511 91.7611 70.3017 91.3291 70.3017Z" fill="#FF732D" stroke="#FF732D" stroke-width="0.5"/>
<path d="M85.0768 70.3017C84.6447 70.3017 84.2952 70.6511 84.2952 71.0831V99.2184C84.2952 99.6504 84.6447 100 85.0768 100C85.5088 100 85.8584 99.6504 85.8584 99.2182V71.0831C85.8584 70.6511 85.5088 70.3017 85.0768 70.3017Z" fill="#FF732D" stroke="#FF732D" stroke-width="0.5"/>
<path d="M88.203 73.4279C87.771 73.4279 87.4214 73.7775 87.4214 74.2096V75.7726C87.4214 76.2044 87.771 76.554 88.203 76.554C88.6349 76.554 88.9846 76.2042 88.9846 75.7726V74.2096C88.9846 73.7775 88.6351 73.4279 88.203 73.4279Z" fill="#FF732D" stroke="#FF732D" stroke-width="0.5"/>
<path d="M88.203 62.4865C87.771 62.4865 87.4214 62.8359 87.4214 63.268V64.831C87.4214 65.263 87.771 65.6126 88.203 65.6126C88.6349 65.6126 88.9846 65.263 88.9846 64.831V63.268C88.9846 62.8357 88.6351 62.4865 88.203 62.4865Z" fill="#FF732D" stroke="#FF732D" stroke-width="0.5"/>
<path d="M89.7662 74.9912H86.6398C86.2082 74.9912 85.8586 75.3407 85.8586 75.7728C85.8586 76.2046 86.2082 76.5542 86.6398 76.5542H89.7662C90.1981 76.5542 90.5475 76.2044 90.5475 75.7728C90.5475 75.3407 90.1983 74.9912 89.7662 74.9912Z" fill="#FF732D" stroke="#FF732D" stroke-width="0.5"/>
<path d="M66.32 74.9912H63.1936C62.762 74.9912 62.4124 75.3407 62.4124 75.7728C62.4124 76.2046 62.762 76.5542 63.1936 76.5542H66.32C66.7521 76.5542 67.1013 76.2044 67.1013 75.7728C67.1013 75.3407 66.7521 74.9912 66.32 74.9912Z" fill="#FF732D" stroke="#FF732D" stroke-width="0.5"/>
<path d="M72.5722 74.9912H69.4461C69.0141 74.9912 68.6645 75.3407 68.6645 75.7728C68.6645 76.2046 69.0141 76.5542 69.4461 76.5542H72.5722C73.0042 76.5542 73.3538 76.2044 73.3538 75.7728C73.3538 75.3407 73.0042 74.9912 72.5722 74.9912Z" fill="#FF732D" stroke="#FF732D" stroke-width="0.5"/>
<path d="M78.8243 74.9912H75.6982C75.2662 74.9912 74.9166 75.3407 74.9166 75.7728C74.9166 76.2046 75.2662 76.5542 75.6982 76.5542H78.8243C79.2563 76.5542 79.6059 76.2044 79.6059 75.7728C79.6059 75.3407 79.2563 74.9912 78.8243 74.9912Z" fill="#FF732D" stroke="#FF732D" stroke-width="0.5"/>
<path d="M85.0768 74.9912H81.9507C81.5187 74.9912 81.1691 75.3407 81.1691 75.7728C81.1691 76.2046 81.5187 76.5542 81.9507 76.5542H85.0768C85.5088 76.5542 85.8584 76.2044 85.8584 75.7728C85.8584 75.3407 85.5088 74.9912 85.0768 74.9912Z" fill="#FF732D" stroke="#FF732D" stroke-width="0.5"/>
</g>
<defs>
<clipPath id="clip0_166_17">
<rect width="100" height="100" fill="white" transform="translate(-4)"/>
</clipPath>
</defs>
</svg>
