<svg width="80" height="84" viewBox="0 0 80 84" fill="none" xmlns="http://www.w3.org/2000/svg">
<path d="M67.1068 46.2952L41.414 36.3034L14.317 46.2868C13.5904 46.5542 13.2208 47.3592 13.4868 48.0844C13.6954 48.65 14.2302 49 14.8 49C14.961 49 15.1234 48.972 15.2844 48.9132L41.3874 39.2966L66.0932 48.9048C66.8114 49.1848 67.6262 48.8278 67.9048 48.1068C68.1848 47.3872 67.8278 46.5752 67.1068 46.2952Z" fill="#FF732D"/>
<path d="M49.8 26.6H52.6C53.3742 26.6 54 25.9728 54 25.2C54 24.4272 53.3742 23.8 52.6 23.8H49.8C49.0258 23.8 48.4 24.4272 48.4 25.2C48.4 25.9728 49.0258 26.6 49.8 26.6Z" fill="#FF732D"/>
<path d="M42.8 26.6H45.6C46.3742 26.6 47 25.9728 47 25.2C47 24.4272 46.3742 23.8 45.6 23.8H42.8C42.0258 23.8 41.4 24.4272 41.4 25.2C41.4 25.9728 42.0258 26.6 42.8 26.6Z" fill="#FF732D"/>
<path d="M56.8 26.6H59.6C60.3742 26.6 61 25.9728 61 25.2C61 24.4272 60.3742 23.8 59.6 23.8H56.8C56.0258 23.8 55.4 24.4272 55.4 25.2C55.4 25.9728 56.0258 26.6 56.8 26.6Z" fill="#FF732D"/>
<path d="M38.6 23.8H35.8C35.0258 23.8 34.4 24.4272 34.4 25.2C34.4 25.9728 35.0258 26.6 35.8 26.6H38.6C39.3742 26.6 40 25.9728 40 25.2C40 24.4272 39.3742 23.8 38.6 23.8Z" fill="#FF732D"/>
<path d="M31.6 23.8H28.8C28.0258 23.8 27.4 24.4272 27.4 25.2C27.4 25.9728 28.0258 26.6 28.8 26.6H31.6C32.3742 26.6 33 25.9728 33 25.2C33 24.4272 32.3742 23.8 31.6 23.8Z" fill="#FF732D"/>
<path d="M24.6 23.8H21.8C21.0258 23.8 20.4 24.4272 20.4 25.2C20.4 25.9728 21.0258 26.6 21.8 26.6H24.6C25.3742 26.6 26 25.9728 26 25.2C26 24.4272 25.3742 23.8 24.6 23.8Z" fill="#FF732D"/>
<path d="M77.8 70H64.3432C78.0968 55.3812 76.4644 43.6982 76.3832 43.1816L76.2558 42.3752L69.4 39.8048V22.2264C69.4 20.006 67.594 18.2 65.3736 18.2H49.8V4.4772C49.8 2.009 47.791 0 45.3228 0H37.4772C35.009 0 33 2.009 33 4.4772V18.2H17.4264C15.206 18.2 13.4 20.006 13.4 22.2264V39.8048L6.5442 42.3752L6.4168 43.1816C6.337 43.6982 4.7032 55.3812 18.4568 70H2.2C1.4258 70 0.8 70.6272 0.8 71.4C0.8 72.1728 1.4258 72.8 2.2 72.8H21.2358H28.5858H54.2156H61.5656H77.8C78.5742 72.8 79.2 72.1728 79.2 71.4C79.2 70.6272 78.5742 70 77.8 70ZM35.8 4.4772C35.8 3.5518 36.5518 2.8 37.4772 2.8H45.3228C46.2482 2.8 47 3.5518 47 4.4772V18.2H35.8V4.4772ZM16.2 22.2264C16.2 21.5502 16.7502 21 17.4264 21H33H49.8H65.3736C66.0498 21 66.6 21.5502 66.6 22.2264V38.7548L42.3156 29.6492C41.7248 29.4266 41.0738 29.4266 40.483 29.6492L16.2 38.7548V22.2264ZM31.8142 70L34.1844 53.4072C34.2012 53.2896 34.3062 53.2 34.4266 53.2H48.3748C48.4952 53.2 48.5988 53.2896 48.6156 53.41L50.9858 70H31.8142ZM53.8138 70L51.3862 53.0152C51.1748 51.5242 49.8812 50.4 48.3734 50.4H34.4252C32.9188 50.4 31.6238 51.5242 31.4124 53.0138L28.9848 70H22.367C9.7852 57.673 9.0628 47.257 9.1328 44.3954L41.4 32.2952L73.6742 44.3968C73.7624 47.2514 73.0918 57.6002 60.433 70H53.8138Z" fill="#FF732D"/>
<path d="M62.4 75.6H21.8C21.0258 75.6 20.4 76.2272 20.4 77C20.4 77.7728 21.0258 78.4 21.8 78.4H62.4C63.1742 78.4 63.8 77.7728 63.8 77C63.8 76.2272 63.1742 75.6 62.4 75.6Z" fill="#FF732D"/>
<path d="M51.2 81.2H31.6C30.8258 81.2 30.2 81.8272 30.2 82.6C30.2 83.3728 30.8258 84 31.6 84H51.2C51.9742 84 52.6 83.3728 52.6 82.6C52.6 81.8272 51.9742 81.2 51.2 81.2Z" fill="#FF732D"/>
</svg>
