<svg width="145" height="145" viewBox="0 0 145 145" fill="none" xmlns="http://www.w3.org/2000/svg">
<g clip-path="url(#clip0_221_1702)">
<path d="M120.279 52.7809C122.005 29.4749 104.449 9.11106 81.1429 7.38528L73.1155 6.79086C55.9857 5.52243 40.4753 14.6916 32.7553 28.8837L32.6867 28.868C32.683 28.8889 32.6666 28.9681 32.6463 29.0702C29.9253 34.1397 28.1715 39.8286 27.7199 45.927C26.8839 57.2171 30.4946 68.1554 37.8866 76.7297L52.887 94.1293L51.6543 94.038L51.3427 98.2452L55.55 98.5568L54.9269 106.971L46.5124 106.348L46.2009 110.555L50.73 110.891L53.068 136.446L81.8749 138.579L87.9513 113.647L92.4804 113.982L92.792 109.775L84.3775 109.152L85.0006 100.738L89.2078 101.049L89.5194 96.8419L88.2866 96.7506L105.686 81.7502C114.261 74.3581 119.443 64.0689 120.279 52.7809ZM82.1798 96.2984L75.524 95.8055C84.2654 87.4148 90.2987 76.8627 93.1105 65.2261C94.539 66.2731 96.6282 67.2802 99.6166 67.8273C94.1596 82.1933 84.73 93.4224 82.1798 96.2984ZM58.9917 94.5813C56.8927 91.3632 49.2149 78.8779 45.9344 63.8522C48.975 63.7516 51.1898 63.0632 52.759 62.2381C53.8239 74.164 58.2395 85.4876 65.6496 95.0743L58.9917 94.5813ZM31.9271 46.2385C32.1566 43.1399 32.791 40.1707 33.7073 37.3365C33.9261 37.7525 34.1685 38.1639 34.4628 38.56C35.9301 40.5385 38.1041 41.7719 40.8767 42.3198C40.6521 43.7246 40.4671 45.1661 40.3559 46.6681C40.0543 50.7407 40.2288 54.7829 40.7317 58.7036C36.5534 56.4863 33.2276 50.7555 31.8872 47.7775C31.9063 47.2628 31.8889 46.7539 31.9271 46.2385ZM65.2404 12.1936L67.2787 11.0331C68.7799 10.9264 70.2963 10.8991 71.8348 10.975C64.4971 18.0335 59.0668 26.6123 55.8592 36.0812C54.1437 36.8531 50.5076 38.2273 46.0223 38.443C50.8463 20.5994 65.0726 12.2891 65.2404 12.1936ZM88.1422 13.8937C88.2901 14.0104 101.152 24.2652 103.287 42.6813C98.8973 41.8063 95.4866 39.9082 93.8971 38.8936C92.1169 29.0575 88.0113 19.7747 81.7952 11.7147C83.3889 11.8729 84.9451 12.1383 86.4699 12.4838L88.1422 13.8937ZM103.464 51.3412C103.148 55.6073 102.26 59.7803 101.019 63.7664C95.5233 62.9491 94.1546 60.3519 94.1179 60.2772L94.1055 60.2446C94.3834 58.4906 94.6057 56.7176 94.7384 54.9253C95.0075 51.2903 94.9489 47.6838 94.6093 44.1285C96.8925 45.2578 99.964 46.454 103.583 47.0224C103.611 48.4225 103.574 49.8623 103.464 51.3412ZM70.6529 94.548C63.4028 85.9693 58.8454 75.733 57.3072 64.8572C60.8106 68.1603 66.0399 71.8366 72.3003 72.3002C78.5606 72.7637 84.2744 69.8978 88.2261 67.1467C85.1026 77.6794 79.0874 87.1308 70.6529 94.548ZM44.5631 46.9796C44.6726 45.5008 44.8483 44.0712 45.0817 42.6904C48.7453 42.6592 51.9593 41.9306 54.384 41.1499C53.5245 44.6164 52.9352 48.1749 52.6661 51.8099C52.5333 53.6022 52.4922 55.3864 52.5086 57.1644C52.3948 57.3294 50.6359 59.6316 45.1471 59.6313C44.5113 55.5062 44.2471 51.2478 44.5631 46.9796ZM76.7516 12.1872C83.3656 20.0145 87.7392 29.2198 89.6246 39.0341C88.3238 40.6913 82.3421 47.6619 74.1695 47.0568C66.0391 46.4547 61.114 38.6701 60.067 36.8412C63.3773 27.4137 69.057 18.9528 76.7516 12.1872ZM72.6118 68.0929C64.9063 67.5223 58.7162 60.5112 56.7244 57.9884C56.6781 56.0433 56.7278 54.0862 56.8733 52.1215C57.1269 48.6968 57.684 45.3432 58.499 42.0785C61.264 45.6993 66.3859 50.7107 73.858 51.264C81.33 51.8173 87.1343 47.6149 90.4024 44.4409C90.7276 47.79 90.7847 51.1891 90.5311 54.6138C90.3856 56.5786 90.1466 58.5216 89.8143 60.4387C87.4726 62.6406 80.3174 68.6635 72.6118 68.0929ZM107.797 47.2752C110.616 47.1412 112.935 46.2385 114.657 44.4941C115.018 44.1274 115.329 43.7379 115.61 43.3379C116.108 46.2958 116.303 49.3454 116.072 52.4693C116.034 52.9847 115.941 53.4876 115.882 53.9993C114.124 56.7479 109.996 61.9332 105.525 63.5057C106.602 59.6999 107.37 55.7274 107.672 51.6527C107.783 50.1507 107.812 48.6977 107.797 47.2752ZM113.519 35.7884C113.539 36.6889 113.462 39.6952 111.653 41.5325C110.702 42.4985 109.321 43.0054 107.572 43.0853C106.392 30.5989 100.758 21.5413 96.3234 16.2106C104.16 20.5179 110.255 27.4712 113.519 35.7884ZM56.8137 13.2787C51.6271 17.9096 44.722 26.0387 41.7163 38.2088C39.9921 37.8696 38.6865 37.1638 37.8647 36.0644C36.4867 34.2216 36.5697 31.6726 36.703 30.4726C41.1434 22.5502 48.291 16.4316 56.8137 13.2787ZM32.6774 57.1004C34.938 59.935 37.9121 62.6172 41.5238 63.5171C42.7781 69.8285 44.7863 75.7008 46.921 80.7491L41.0814 73.9755C36.8429 69.0591 34.0012 63.2752 32.6774 57.1004ZM59.7572 98.8683L68.1717 99.4914L67.5486 107.906L59.1341 107.283L59.7572 98.8683ZM78.6229 134.108L56.943 132.502L56.5541 128.243L59.68 128.475L59.9916 124.267L56.163 123.984L55.774 119.725L66.614 120.528L66.9255 116.32L55.3851 115.466L54.9961 111.207L83.6873 113.331L78.6229 134.108ZM71.7558 108.217L72.3789 99.8029L80.7934 100.426L80.1703 108.84L71.7558 108.217ZM96.1583 84.3951C99.0112 79.7161 101.865 74.2017 104.035 68.146C107.74 67.7879 111.076 65.575 113.73 63.1022C111.513 69.0149 107.848 74.3169 102.934 78.5556L96.1583 84.3951Z" fill="white"/>
</g>
<defs>
<clipPath id="clip0_221_1702">
<rect width="135" height="135" fill="white" transform="translate(9.96924) rotate(4.23495)"/>
</clipPath>
</defs>
</svg>
