<svg width="94" height="132" viewBox="0 0 94 132" fill="none" xmlns="http://www.w3.org/2000/svg">
<path d="M93.0876 46.1197C94.8133 22.8138 77.2574 2.44992 53.9514 0.724149L45.924 0.12973C28.7943 -1.1387 13.2839 8.03047 5.56393 22.2226L5.49529 22.2069C5.49163 22.2278 5.47519 22.3069 5.45494 22.4091C2.73385 27.4786 0.98005 33.1675 0.528473 39.2658C-0.307544 50.5559 3.30315 61.4943 10.6952 70.0686L25.6956 87.4681L24.4629 87.3769L24.1513 91.5841L28.3586 91.8956L27.7355 100.31L19.321 99.687L19.0095 103.894L23.5386 104.23L25.8766 129.785L54.6835 131.918L60.7599 106.986L65.289 107.321L65.6006 103.114L57.1861 102.491L57.8092 94.0764L62.0164 94.388L62.3279 90.1807L61.0952 90.0894L78.4948 75.0891C87.0691 67.697 92.2517 57.4077 93.0876 46.1197ZM54.9884 89.6372L48.3326 89.1444C57.074 80.7536 63.1073 70.2016 65.9191 58.565C67.3476 59.612 69.4368 60.6191 72.4252 61.1661C66.9682 75.5321 57.5386 86.7612 54.9884 89.6372ZM31.8003 87.9202C29.7013 84.702 22.0235 72.2167 18.743 57.191C21.7836 57.0905 23.9984 56.4021 25.5676 55.577C26.6325 67.5028 31.048 78.8265 38.4582 88.4132L31.8003 87.9202ZM4.7357 39.5774C4.96515 36.4788 5.59959 33.5095 6.51591 30.6754C6.7347 31.0914 6.97709 31.5027 7.27138 31.8989C8.73873 33.8774 10.9127 35.1107 13.6853 35.6587C13.4607 37.0634 13.2757 38.505 13.1645 40.0069C12.8629 44.0795 13.0374 48.1218 13.5403 52.0425C9.36204 49.8252 6.03624 44.0943 4.69577 41.1164C4.71485 40.6017 4.69754 40.0928 4.7357 39.5774ZM38.049 5.53247L40.0873 4.37201C41.5885 4.26531 43.1049 4.238 44.6434 4.31385C37.3057 11.3724 31.8754 19.9512 28.6678 29.4201C26.9523 30.192 23.3162 31.5662 18.8309 31.7819C23.6549 13.9382 37.8812 5.62792 38.049 5.53247ZM60.9508 7.23255C61.0987 7.34925 73.9609 17.6041 76.0957 36.0202C71.7059 35.1452 68.2952 33.247 66.7057 32.2325C64.9254 22.3964 60.8199 13.1135 54.6038 5.05352C56.1975 5.21172 57.7536 5.47712 59.2785 5.8227L60.9508 7.23255ZM76.273 44.68C75.9571 48.9462 75.0685 53.1191 73.8279 57.1053C68.3319 56.288 66.9632 53.6907 66.9265 53.6161L66.9141 53.5835C67.192 51.8294 67.4142 50.0565 67.547 48.2642C67.8161 44.6291 67.7575 41.0227 67.4179 37.4674C69.7011 38.5967 72.7726 39.7929 76.3918 40.3612C76.4193 41.7614 76.3825 43.2012 76.273 44.68ZM43.4615 87.8869C36.2114 79.3082 31.654 69.0718 30.1158 58.196C33.6192 61.4992 38.8485 65.1755 45.1089 65.639C51.3692 66.1026 57.083 63.2366 61.0347 60.4856C57.9112 71.0183 51.896 80.4696 43.4615 87.8869ZM17.3717 40.3185C17.4812 38.8396 17.6569 37.4101 17.8903 36.0293C21.5539 35.9981 24.7679 35.2695 27.1926 34.4887C26.3331 37.9553 25.7438 41.5137 25.4747 45.1488C25.3419 46.9411 25.3008 48.7253 25.3172 50.5033C25.2034 50.6683 23.4445 52.9705 17.9557 52.9701C17.3199 48.845 17.0557 44.5867 17.3717 40.3185ZM49.5602 5.5261C56.1742 13.3533 60.5478 22.5587 62.4332 32.373C61.1324 34.0301 55.1507 41.0008 46.9781 40.3956C38.8476 39.7936 33.9226 32.0089 32.8756 30.1801C36.1859 20.7526 41.8656 12.2917 49.5602 5.5261ZM45.4204 61.4318C37.7149 60.8612 31.5248 53.8501 29.533 51.3273C29.4867 49.3822 29.5364 47.4251 29.6819 45.4603C29.9355 42.0356 30.4926 38.6821 31.3076 35.4174C34.0726 39.0381 39.1945 44.0496 46.6666 44.6029C54.1386 45.1562 59.9428 40.9538 63.211 37.7798C63.5362 41.1289 63.5933 44.528 63.3397 47.9526C63.1942 49.9174 62.9552 51.8605 62.6229 53.7776C60.2812 55.9795 53.126 62.0024 45.4204 61.4318ZM80.6055 40.614C83.4244 40.4801 85.7438 39.5774 87.4657 37.833C87.8271 37.4663 88.1372 37.0768 88.4186 36.6767C88.9166 39.6346 89.1116 42.6843 88.8803 45.8082C88.8422 46.3236 88.7499 46.8265 88.6909 47.3382C86.9327 50.0867 82.805 55.272 78.3334 56.8445C79.4105 53.0388 80.1785 49.0663 80.4802 44.9916C80.5914 43.4896 80.6208 42.0365 80.6055 40.614ZM86.3273 29.1273C86.3473 30.0277 86.2707 33.034 84.4615 34.8714C83.5101 35.8374 82.1294 36.3443 80.3806 36.4242C79.2007 23.9378 73.5661 14.8802 69.132 9.54951C76.969 13.8567 83.064 20.81 86.3273 29.1273ZM29.6223 6.61752C24.4357 11.2485 17.5306 19.3776 14.5249 31.5476C12.8007 31.2085 11.4951 30.5026 10.6733 29.4032C9.29533 27.5604 9.37832 25.0115 9.5116 23.8115C13.952 15.8891 21.0996 9.77043 29.6223 6.61752ZM5.48603 50.4392C7.74663 53.2738 10.7207 55.9561 14.3324 56.856C15.5867 63.1674 17.5949 69.0397 19.7296 74.088L13.89 67.3144C9.65149 62.3979 6.80975 56.6141 5.48603 50.4392ZM32.5658 92.2072L40.9803 92.8303L40.3572 101.245L31.9427 100.622L32.5658 92.2072ZM51.4315 127.447L29.7516 125.841L29.3627 121.582L32.4886 121.814L32.8002 117.606L28.9716 117.323L28.5826 113.064L39.4226 113.866L39.7341 109.659L28.1937 108.805L27.8047 104.546L56.4959 106.67L51.4315 127.447ZM44.5644 101.556L45.1875 93.1418L53.6019 93.7649L52.9789 102.179L44.5644 101.556ZM68.9669 77.734C71.8198 73.055 74.6732 67.5406 76.8434 61.4848C80.5482 61.1267 83.8847 58.9139 86.5383 56.4411C84.3217 62.3537 80.6569 67.6558 75.7426 71.8945L68.9669 77.734Z" fill="white"/>
</svg>
