<svg width="455" height="429" viewBox="0 0 455 429" fill="none" xmlns="http://www.w3.org/2000/svg">
<path d="M7.66454 290.51C7.62038 290.189 7.55978 289.871 7.48298 289.556C6.77711 287.235 7.34215 285.092 8.61815 283.175C9.72411 281.506 11.1497 280.074 12.8127 278.96C14.182 278.043 15.7057 277.602 17.2719 277.263C20.3787 276.594 23.2531 277.215 25.8866 278.96C27.2559 279.866 28.235 281.138 29.0002 282.564C29.6416 283.76 30.1541 285.017 30.3305 286.339C30.6377 286.616 30.9176 286.465 31.1891 286.397C31.9421 286.196 32.7275 286.149 33.4992 286.256C34.2709 286.364 35.0132 286.625 35.6823 287.025C36.6257 287.542 37.3844 288.34 37.8525 289.309C38.1427 289.918 38.387 290.547 38.6856 291.246C39.0587 291.27 39.433 291.267 39.8055 291.236C40.6268 291.117 41.3072 291.392 42.0012 291.806C43.8881 292.928 44.2155 294.604 43.8948 296.303C43.5555 298.113 42.5849 299.486 40.8576 300.323C38.7841 301.327 36.585 301.627 34.3418 301.614C32.1563 301.602 29.9725 301.444 27.7887 301.334C25.3674 301.202 22.9477 300.972 20.5247 300.913C18.8726 300.873 17.2198 300.956 15.5802 301.162C12.3902 301.566 9.20185 301.826 5.98979 301.627C5.16744 301.555 4.3528 301.413 3.55487 301.202C2.12445 300.862 1.23702 299.885 0.609202 298.595C0.103553 297.555 -0.0237081 296.476 0.00344084 295.342C0.0114594 294.506 0.319109 293.701 0.870511 293.072C2.49606 291.219 4.46436 290.137 7.02824 290.508C7.24016 290.52 7.45256 290.52 7.66454 290.51ZM36.8497 292.814C36.7682 292.365 36.7004 291.94 36.6138 291.521C36.288 289.945 35.4854 288.777 33.9261 288.156C33.0081 287.792 32.1563 287.712 31.2689 288.177C30.8865 288.386 30.4895 288.567 30.0811 288.72C29.3396 288.979 28.8679 288.72 28.6473 287.948C28.5868 287.763 28.5542 287.57 28.5506 287.376C28.5777 286.115 28.0789 284.987 27.5664 283.899C26.4991 281.654 24.821 280.054 22.437 279.206C20.3872 278.478 18.3494 278.503 16.2826 279.092C15.3942 279.344 14.5515 279.735 13.7866 280.253C12.4343 281.159 11.3721 282.353 10.354 283.592C9.6942 284.381 9.24421 285.323 9.04575 286.332C8.78613 287.671 8.74202 289.032 9.57854 290.267C9.85605 290.725 10.0787 291.213 10.242 291.723C10.2896 291.848 10.3034 291.983 10.2819 292.115C10.2604 292.247 10.2045 292.371 10.1198 292.474C10.035 292.578 9.92451 292.657 9.79938 292.704C9.67424 292.75 9.53894 292.763 9.40717 292.741C9.07119 292.685 8.74777 292.57 8.45186 292.402C6.4615 291.273 4.16402 292.102 2.88802 293.501C2.53339 293.887 2.1533 294.35 2.03961 294.833C1.71552 296.22 2.02265 297.525 2.87954 298.683C3.43948 299.44 4.25565 299.752 5.12611 299.91C6.75482 300.208 8.4185 300.266 10.0638 300.08C12.285 299.827 14.5044 299.505 16.7323 299.372C20.6659 299.145 24.6116 299.246 28.5285 299.674C31.1393 299.96 33.7694 300.028 36.3915 299.878C37.6353 299.805 38.7671 299.413 39.8683 298.877C40.3894 298.609 40.835 298.214 41.1647 297.73C41.689 297.002 41.9367 296.165 42.1386 295.312C42.2055 295.05 42.1998 294.775 42.1221 294.517C42.0443 294.258 41.8975 294.026 41.6975 293.844C41.5278 293.674 41.3581 293.495 41.1732 293.335C40.5453 292.814 39.8921 292.502 39.0335 292.826C38.3904 293.081 37.6998 293.106 36.8463 292.814H36.8497Z" fill="#7B7B7B"/>
<path d="M36.8463 292.814C37.6947 293.106 38.3904 293.081 39.0301 292.838C39.8887 292.51 40.5419 292.823 41.1698 293.347C41.3547 293.503 41.521 293.686 41.6941 293.856C41.8942 294.037 42.041 294.27 42.1187 294.529C42.1964 294.787 42.2022 295.062 42.1353 295.324C41.9333 296.172 41.6856 297.021 41.1613 297.742C40.8316 298.226 40.386 298.621 39.8649 298.889C38.7637 299.425 37.6319 299.817 36.3882 299.89C33.766 300.04 31.136 299.972 28.5251 299.686C24.6083 299.258 20.6625 299.157 16.7289 299.384C14.501 299.517 12.2816 299.839 10.0604 300.092C8.41511 300.277 6.75143 300.22 5.12272 299.922C4.25225 299.764 3.43609 299.452 2.87614 298.695C2.02774 297.536 1.71213 296.232 2.03622 294.845C2.14991 294.36 2.52999 293.898 2.88462 293.513C4.16402 292.102 6.4615 291.273 8.45186 292.407C8.74776 292.576 9.07119 292.69 9.40716 292.746C9.53894 292.769 9.67424 292.756 9.79938 292.709C9.92451 292.662 10.035 292.583 10.1198 292.479C10.2045 292.376 10.2604 292.252 10.2819 292.12C10.3034 291.988 10.2896 291.853 10.242 291.728C10.0787 291.219 9.85605 290.73 9.57854 290.272C8.74202 289.027 8.78613 287.666 9.04574 286.332C9.24421 285.323 9.69419 284.381 10.354 283.592C11.3721 282.353 12.4343 281.159 13.7866 280.248C14.5515 279.73 15.3942 279.339 16.2826 279.087C18.3494 278.498 20.3872 278.473 22.437 279.201C24.8125 280.049 26.4991 281.654 27.5563 283.899C28.0653 284.987 28.5743 286.115 28.5404 287.376C28.544 287.57 28.5766 287.763 28.6371 287.948C28.8577 288.713 29.3294 288.979 30.0709 288.72C30.4794 288.567 30.8763 288.386 31.2587 288.177C32.1461 287.712 32.9979 287.792 33.9159 288.156C35.4753 288.777 36.2779 289.945 36.6037 291.521C36.697 291.94 36.7648 292.365 36.8463 292.814Z" fill="white"/>
<path d="M406.239 150.806C411.824 75.385 355.01 9.48504 279.589 3.90021L253.612 1.9766C198.178 -2.12822 147.984 27.5444 123.001 73.4718L122.779 73.4212C122.767 73.4887 122.714 73.7449 122.648 74.0755C113.843 90.4809 108.167 108.891 106.706 128.626C104 165.162 115.685 200.56 139.607 228.308L188.15 284.615L184.161 284.319L183.152 297.935L196.768 298.943L194.751 326.173L167.521 324.157L166.513 337.772L181.169 338.857L188.735 421.556L281.958 428.459L301.623 347.777L316.279 348.862L317.287 335.247L290.057 333.23L292.073 306L305.689 307.008L306.697 293.393L302.708 293.098L359.015 244.555C386.762 220.633 403.534 187.336 406.239 150.806ZM282.945 291.634L261.406 290.039C289.694 262.886 309.219 228.738 318.318 191.081C322.941 194.469 329.702 197.728 339.373 199.498C321.713 245.988 291.198 282.327 282.945 291.634ZM207.905 286.078C201.113 275.663 176.267 235.259 165.65 186.634C175.49 186.309 182.657 184.081 187.735 181.411C191.182 220.005 205.471 256.649 229.451 287.673L207.905 286.078ZM120.321 129.634C121.063 119.607 123.117 109.998 126.082 100.826C126.79 102.172 127.574 103.504 128.527 104.786C133.275 111.188 140.311 115.18 149.283 116.953C148.556 121.499 147.957 126.164 147.598 131.024C146.622 144.204 147.186 157.285 148.814 169.973C135.292 162.798 124.53 144.252 120.192 134.615C120.253 132.949 120.197 131.302 120.321 129.634ZM228.127 19.4606L234.723 15.7051C239.581 15.3599 244.489 15.2715 249.467 15.5169C225.722 38.3592 208.148 66.1213 197.768 96.7639C192.217 99.2619 180.45 103.709 165.935 104.407C181.546 46.6627 227.584 19.7694 228.127 19.4606ZM302.24 24.9622C302.719 25.3399 344.342 58.5259 351.251 118.123C337.045 115.291 326.007 109.148 320.864 105.865C315.103 74.0343 301.817 43.9939 281.701 17.9106C286.858 18.4226 291.894 19.2814 296.828 20.3998L302.24 24.9622ZM351.825 146.147C350.802 159.953 347.927 173.457 343.912 186.357C326.126 183.712 321.697 175.307 321.578 175.065L321.538 174.96C322.438 169.283 323.157 163.546 323.586 157.746C324.457 145.982 324.267 134.311 323.169 122.806C330.557 126.461 340.497 130.332 352.209 132.171C352.298 136.702 352.179 141.361 351.825 146.147ZM245.642 285.97C222.18 258.208 207.432 225.082 202.454 189.887C213.792 200.576 230.714 212.473 250.974 213.973C271.233 215.473 289.723 206.199 302.512 197.296C292.404 231.381 272.938 261.967 245.642 285.97ZM161.213 132.033C161.567 127.247 162.136 122.621 162.891 118.152C174.747 118.051 185.148 115.693 192.994 113.167C190.213 124.385 188.306 135.901 187.435 147.664C187.005 153.464 186.872 159.238 186.925 164.992C186.557 165.526 180.865 172.976 163.102 172.975C161.045 159.626 160.19 145.845 161.213 132.033ZM265.379 19.44C286.782 44.7698 300.936 74.5596 307.038 106.32C302.828 111.683 283.47 134.241 257.023 132.282C230.712 130.334 214.773 105.142 211.385 99.2234C222.098 68.7149 240.478 41.3342 265.379 19.44ZM251.982 200.358C227.046 198.511 207.014 175.823 200.568 167.658C200.418 161.364 200.579 155.03 201.05 148.672C201.871 137.589 203.674 126.737 206.311 116.172C215.259 127.889 231.834 144.107 256.015 145.897C280.195 147.688 298.978 134.088 309.554 123.817C310.607 134.655 310.792 145.655 309.971 156.738C309.5 163.096 308.727 169.384 307.651 175.588C300.073 182.714 276.918 202.204 251.982 200.358ZM365.845 132.989C374.968 132.556 382.474 129.634 388.046 123.989C389.215 122.803 390.219 121.542 391.129 120.247C392.741 129.82 393.372 139.689 392.624 149.798C392.5 151.466 392.202 153.093 392.011 154.749C386.321 163.644 372.963 180.424 358.493 185.513C361.978 173.197 364.463 160.342 365.44 147.155C365.8 142.295 365.895 137.592 365.845 132.989ZM384.362 95.8165C384.427 98.7304 384.179 108.459 378.324 114.405C375.245 117.531 370.777 119.172 365.118 119.43C361.299 79.0226 343.065 49.7109 328.715 32.4602C354.077 46.3989 373.801 68.9007 384.362 95.8165ZM200.857 22.9719C184.073 37.9583 161.727 64.265 152 103.649C146.42 102.551 142.195 100.267 139.536 96.7094C135.076 90.7458 135.345 82.4971 135.776 78.6137C150.146 52.9759 173.276 33.1751 200.857 22.9719ZM122.749 164.785C130.065 173.958 139.689 182.638 151.377 185.55C155.436 205.975 161.935 224.978 168.843 241.315L149.945 219.395C136.229 203.484 127.033 184.767 122.749 164.785ZM210.383 299.951L237.613 301.967L235.597 329.198L208.366 327.181L210.383 299.951ZM271.434 413.99L201.276 408.795L200.017 395.012L210.133 395.761L211.141 382.146L198.751 381.228L197.493 367.445L232.572 370.043L233.58 356.428L196.234 353.662L194.975 339.879L287.824 346.755L271.434 413.99ZM249.212 330.206L251.228 302.976L278.458 304.992L276.442 332.222L249.212 330.206ZM328.181 253.114C337.414 237.972 346.648 220.127 353.671 200.53C365.66 199.371 376.457 192.21 385.045 184.207C377.871 203.342 366.012 220.5 350.108 234.216L328.181 253.114Z" fill="white"/>
<path d="M71.4516 182.423C71.3914 181.985 71.3088 181.551 71.2041 181.122C70.2415 177.957 71.012 175.035 72.752 172.42C74.2602 170.145 76.2042 168.191 78.4718 166.672C80.3391 165.423 82.4169 164.821 84.5526 164.359C88.7892 163.447 92.7088 164.294 96.2999 166.672C98.1672 167.908 99.5022 169.643 100.546 171.587C101.42 173.218 102.119 174.933 102.36 176.735C102.779 177.112 103.16 176.906 103.531 176.814C104.557 176.54 105.628 176.475 106.681 176.622C107.733 176.769 108.745 177.126 109.658 177.67C110.944 178.375 111.979 179.464 112.617 180.784C113.013 181.615 113.346 182.474 113.753 183.427C114.262 183.459 114.772 183.455 115.28 183.413C116.4 183.251 117.328 183.626 118.274 184.19C120.847 185.72 121.294 188.006 120.857 190.322C120.394 192.791 119.07 194.663 116.715 195.804C113.887 197.173 110.889 197.583 107.83 197.564C104.85 197.548 101.872 197.333 98.8937 197.183C95.5919 197.002 92.2923 196.69 88.9882 196.609C86.7354 196.554 84.4816 196.668 82.2457 196.949C77.8957 197.5 73.548 197.854 69.1679 197.583C68.0465 197.485 66.9356 197.29 65.8475 197.002C63.897 196.539 62.6868 195.207 61.8307 193.448C61.1412 192.03 60.9677 190.558 61.0047 189.012C61.0156 187.872 61.4351 186.774 62.1871 185.916C64.4037 183.39 67.0878 181.914 70.584 182.42C70.873 182.436 71.1626 182.437 71.4516 182.423ZM111.25 185.565C111.139 184.952 111.046 184.373 110.928 183.802C110.484 181.652 109.389 180.06 107.263 179.213C106.011 178.716 104.85 178.607 103.639 179.241C103.118 179.526 102.577 179.774 102.02 179.982C101.009 180.336 100.365 179.982 100.065 178.929C99.982 178.677 99.9375 178.414 99.9326 178.149C99.9696 176.43 99.2894 174.891 98.5906 173.408C97.1352 170.347 94.8468 168.165 91.5959 167.008C88.8008 166.015 86.0219 166.05 83.2036 166.853C81.992 167.196 80.843 167.73 79.8 168.435C77.9558 169.671 76.5074 171.3 75.1191 172.989C74.2194 174.065 73.6057 175.35 73.3351 176.726C72.9811 178.552 72.9209 180.407 74.0617 182.092C74.4401 182.716 74.7437 183.382 74.9664 184.077C75.0313 184.247 75.05 184.432 75.0208 184.612C74.9915 184.791 74.9152 184.96 74.7997 185.101C74.6841 185.242 74.5334 185.35 74.3628 185.414C74.1921 185.478 74.0076 185.496 73.828 185.465C73.3698 185.389 72.9288 185.232 72.5253 185.003C69.8111 183.464 66.6782 184.593 64.9382 186.502C64.4546 187.027 63.9363 187.659 63.7813 188.318C63.3393 190.209 63.7582 191.988 64.9266 193.568C65.6902 194.6 66.8032 195.026 67.9902 195.241C70.2111 195.648 72.4798 195.726 74.7234 195.473C77.7522 195.128 80.7787 194.688 83.8168 194.508C89.1808 194.198 94.5613 194.336 99.9025 194.92C103.463 195.309 107.049 195.402 110.625 195.197C112.321 195.098 113.864 194.563 115.366 193.832C116.076 193.466 116.684 192.929 117.134 192.268C117.849 191.275 118.186 190.135 118.462 188.971C118.553 188.614 118.545 188.239 118.439 187.886C118.333 187.534 118.133 187.217 117.86 186.969C117.629 186.738 117.397 186.493 117.145 186.275C116.289 185.565 115.398 185.139 114.227 185.581C113.351 185.928 112.409 185.963 111.245 185.565H111.25Z" fill="#7B7B7B"/>
<path d="M111.245 185.565C112.402 185.963 113.351 185.928 114.223 185.597C115.394 185.151 116.284 185.576 117.141 186.291C117.393 186.504 117.62 186.754 117.856 186.985C118.128 187.233 118.329 187.55 118.435 187.903C118.541 188.255 118.548 188.63 118.457 188.987C118.182 190.144 117.844 191.301 117.129 192.284C116.679 192.945 116.072 193.483 115.361 193.848C113.86 194.579 112.316 195.114 110.62 195.213C107.045 195.419 103.458 195.326 99.8979 194.936C94.5567 194.352 89.1762 194.215 83.8121 194.524C80.7741 194.704 77.7476 195.144 74.7188 195.489C72.4751 195.742 70.2065 195.664 67.9855 195.257C66.7985 195.042 65.6856 194.617 64.922 193.585C63.7651 192.004 63.3347 190.225 63.7767 188.334C63.9317 187.673 64.45 187.043 64.9336 186.518C66.6782 184.593 69.8111 183.464 72.5253 185.009C72.9288 185.239 73.3698 185.396 73.828 185.472C74.0076 185.503 74.1921 185.485 74.3628 185.421C74.5334 185.357 74.6841 185.249 74.7997 185.108C74.9152 184.967 74.9915 184.798 75.0208 184.618C75.05 184.439 75.0313 184.254 74.9664 184.084C74.7437 183.389 74.4401 182.723 74.0617 182.099C72.9209 180.4 72.9811 178.545 73.3351 176.726C73.6057 175.35 74.2194 174.065 75.1191 172.989C76.5074 171.3 77.9558 169.671 79.8 168.429C80.843 167.723 81.992 167.189 83.2036 166.846C86.0219 166.043 88.8008 166.008 91.5959 167.001C94.8352 168.158 97.1352 170.347 98.5767 173.408C99.2709 174.891 99.965 176.43 99.9187 178.149C99.9236 178.414 99.9681 178.677 100.051 178.929C100.351 179.972 100.995 180.336 102.006 179.982C102.563 179.774 103.104 179.526 103.625 179.241C104.836 178.607 105.997 178.716 107.249 179.213C109.375 180.06 110.47 181.652 110.914 183.802C111.041 184.373 111.134 184.952 111.245 185.565Z" fill="white"/>
<g clip-path="url(#clip0_150_307)">
<path d="M418.665 38.5099C418.62 38.1891 418.56 37.8709 418.483 37.5563C417.777 35.2351 418.342 33.092 419.618 31.1746C420.724 29.5063 422.15 28.0737 423.813 26.9597C425.182 26.0434 426.706 25.6023 428.272 25.2629C431.379 24.5944 434.253 25.2154 436.887 26.9597C438.256 27.8658 439.235 29.1384 440 30.5637C440.642 31.76 441.154 33.0173 441.331 34.3392C441.638 34.6157 441.918 34.4647 442.189 34.3968C442.942 34.1963 443.728 34.1485 444.499 34.2564C445.271 34.3642 446.013 34.6254 446.682 35.0247C447.626 35.5416 448.384 36.34 448.853 37.3086C449.143 37.9177 449.387 38.5472 449.686 39.2463C450.059 39.2701 450.433 39.2667 450.806 39.2361C451.627 39.1174 452.307 39.3923 453.001 39.8063C454.888 40.9279 455.216 42.6043 454.895 44.3028C454.555 46.1133 453.585 47.486 451.858 48.3226C449.784 49.3271 447.585 49.6274 445.342 49.6138C443.156 49.602 440.973 49.4442 438.789 49.3339C436.367 49.2015 433.948 48.9724 431.525 48.9131C429.873 48.8731 428.22 48.9565 426.58 49.1625C423.39 49.5663 420.202 49.8259 416.99 49.6274C416.167 49.5555 415.353 49.413 414.555 49.2015C413.124 48.8622 412.237 47.8848 411.609 46.5952C411.104 45.5551 410.976 44.4759 411.003 43.3424C411.011 42.5063 411.319 41.7007 411.871 41.0721C413.496 39.2192 415.464 38.1366 418.028 38.5082C418.24 38.5199 418.453 38.5205 418.665 38.5099ZM447.85 40.8142C447.768 40.3645 447.7 39.9403 447.614 39.5212C447.288 37.9449 446.485 36.7775 444.926 36.1564C444.008 35.7916 443.156 35.7119 442.269 36.1768C441.886 36.386 441.49 36.5675 441.081 36.7198C440.34 36.9794 439.868 36.7198 439.647 35.9477C439.587 35.763 439.554 35.5703 439.551 35.3759C439.578 34.1152 439.079 32.9868 438.566 31.8991C437.499 29.6543 435.821 28.0542 433.437 27.2058C431.387 26.4778 429.349 26.5033 427.283 27.0921C426.394 27.3436 425.552 27.7354 424.787 28.2527C423.434 29.1588 422.372 30.3533 421.354 31.592C420.694 32.3808 420.244 33.3234 420.046 34.3324C419.786 35.6711 419.742 37.032 420.579 38.2673C420.856 38.7248 421.079 39.2135 421.242 39.7231C421.29 39.848 421.303 39.9832 421.282 40.1151C421.26 40.247 421.205 40.3709 421.12 40.4742C421.035 40.5776 420.925 40.6567 420.799 40.7036C420.674 40.7504 420.539 40.7634 420.407 40.7412C420.071 40.6854 419.748 40.5705 419.452 40.4019C417.462 39.2735 415.164 40.1015 413.888 41.5014C413.533 41.8866 413.153 42.3498 413.04 42.8334C412.716 44.2197 413.023 45.5245 413.88 46.6834C414.439 47.4402 415.256 47.7524 416.126 47.9102C417.755 48.2084 419.419 48.2656 421.064 48.0799C423.285 47.8271 425.504 47.5047 427.732 47.3724C431.666 47.1454 435.612 47.2465 439.529 47.6744C442.139 47.9603 444.769 48.0284 447.392 47.878C448.635 47.805 449.767 47.4131 450.868 46.8769C451.389 46.6087 451.835 46.2143 452.165 45.7298C452.689 45.0019 452.937 44.1654 453.139 43.3119C453.206 43.0502 453.2 42.7753 453.122 42.5167C453.044 42.2581 452.898 42.0255 452.697 41.8441C452.528 41.6745 452.358 41.4946 452.173 41.3351C451.545 40.8142 450.892 40.502 450.033 40.8261C449.39 41.0806 448.7 41.106 447.846 40.8142H447.85Z" fill="#7B7B7B"/>
<path d="M447.846 40.8142C448.695 41.106 449.39 41.0806 450.03 40.8379C450.889 40.5105 451.542 40.8227 452.17 41.347C452.355 41.5031 452.521 41.6863 452.694 41.856C452.894 42.0374 453.041 42.2699 453.119 42.5286C453.196 42.7872 453.202 43.0621 453.135 43.3238C452.933 44.1722 452.686 45.0206 452.161 45.7417C451.832 46.2262 451.386 46.6205 450.865 46.8888C449.764 47.425 448.632 47.8169 447.388 47.8899C444.766 48.0402 442.136 47.9721 439.525 47.6863C435.608 47.2583 431.663 47.1573 427.729 47.3842C425.501 47.5166 423.282 47.839 421.06 48.0918C419.415 48.2774 417.751 48.2203 416.123 47.9221C415.252 47.7643 414.436 47.4521 413.876 46.6953C413.028 45.5364 412.712 44.2316 413.036 42.8453C413.15 42.36 413.53 41.8984 413.885 41.5133C415.164 40.1015 417.462 39.2735 419.452 40.4069C419.748 40.5756 420.071 40.6905 420.407 40.7463C420.539 40.7685 420.674 40.7555 420.799 40.7087C420.925 40.6618 421.035 40.5827 421.12 40.4793C421.205 40.376 421.26 40.2521 421.282 40.1202C421.303 39.9883 421.29 39.8531 421.242 39.7282C421.079 39.2186 420.856 38.7299 420.579 38.2724C419.742 37.0269 419.786 35.6661 420.046 34.3324C420.244 33.3234 420.694 32.3808 421.354 31.592C422.372 30.3533 423.434 29.1588 424.787 28.2476C425.552 27.7303 426.394 27.3385 427.283 27.087C429.349 26.4982 431.387 26.4727 433.437 27.2007C435.813 28.0491 437.499 29.6543 438.556 31.8991C439.065 32.9868 439.574 34.1152 439.54 35.3759C439.544 35.5703 439.577 35.763 439.637 35.9477C439.858 36.713 440.329 36.9794 441.071 36.7198C441.479 36.5675 441.876 36.386 442.259 36.1768C443.146 35.7119 443.998 35.7916 444.916 36.1564C446.475 36.7775 447.278 37.9449 447.604 39.5212C447.697 39.9403 447.765 40.3645 447.846 40.8142Z" fill="white"/>
</g>
<defs>
<clipPath id="clip0_150_307">
<rect width="44" height="44" fill="white" transform="translate(411 15)"/>
</clipPath>
</defs>
</svg>
