<svg width="93" height="38" viewBox="0 0 93 38" fill="none" xmlns="http://www.w3.org/2000/svg">
<path d="M52.34 16.51C52.3995 16.0692 52.4296 15.6248 52.43 15.18C52.4303 13.4687 51.9835 11.7871 51.1337 10.3017C50.2839 8.81637 49.0607 7.57886 47.5854 6.71183C46.11 5.84481 44.4337 5.37837 42.7226 5.35876C41.0114 5.33914 39.3248 5.76702 37.83 6.6C37.0105 4.60245 35.5249 2.95008 33.6255 1.92344C31.7261 0.896802 29.5299 0.559174 27.4098 0.96788C25.2897 1.37659 23.3764 2.50643 21.9947 4.16559C20.6131 5.82475 19.8482 7.91096 19.83 10.07C19.812 10.7608 19.869 11.4515 20 12.13C18.6198 12.4844 17.3434 13.1614 16.276 14.1054C15.2085 15.0495 14.3805 16.2335 13.86 17.56C12.701 17.3546 11.5117 17.3953 10.3694 17.6796C9.22719 17.9638 8.15753 18.4853 7.23 19.21C7.12626 19.2914 7.03956 19.3925 6.97487 19.5074C6.91019 19.6223 6.86877 19.7489 6.85298 19.8798C6.83719 20.0107 6.84735 20.1435 6.88287 20.2705C6.91839 20.3975 6.97858 20.5163 7.06 20.62C7.14142 20.7237 7.24248 20.8104 7.3574 20.8751C7.47232 20.9398 7.59886 20.9812 7.72979 20.997C7.99422 21.0289 8.26048 20.9544 8.47 20.79C9.27457 20.1603 10.2184 19.7326 11.2224 19.543C12.2263 19.3533 13.2611 19.4072 14.24 19.7C14.3694 19.7384 14.5052 19.7502 14.6392 19.7348C14.7733 19.7193 14.9028 19.6769 15.02 19.61C15.1366 19.5454 15.2392 19.4582 15.3216 19.3535C15.404 19.2487 15.4647 19.1285 15.5 19C15.858 17.6595 16.6096 16.4572 17.6577 15.5481C18.7058 14.639 20.0024 14.0649 21.38 13.9C21.5301 13.8841 21.6746 13.8345 21.8027 13.7548C21.9309 13.6752 22.0394 13.5675 22.12 13.44C22.1999 13.3113 22.2496 13.1661 22.2652 13.0154C22.2808 12.8646 22.2619 12.7124 22.21 12.57C21.8066 11.4596 21.6767 10.2683 21.8315 9.09713C21.9862 7.9259 22.4211 6.80925 23.0991 5.84178C23.7771 4.8743 24.6783 4.08452 25.7264 3.53935C26.7745 2.99419 27.9386 2.7097 29.12 2.71C30.7808 2.70409 32.3942 3.26312 33.6954 4.29529C34.9965 5.32746 35.9079 6.77141 36.28 8.39C36.318 8.55127 36.3954 8.70058 36.5054 8.82451C36.6154 8.94844 36.7544 9.04311 36.91 9.1C37.066 9.15647 37.2336 9.17324 37.3977 9.1488C37.5618 9.12436 37.7172 9.05948 37.85 8.96C39.0092 8.07661 40.3921 7.53473 41.8429 7.39549C43.2936 7.25624 44.7544 7.52518 46.0604 8.17195C47.3664 8.81873 48.4657 9.8176 49.2343 11.0559C50.0028 12.2942 50.4101 13.7226 50.41 15.18C50.4115 15.7592 50.3444 16.3366 50.21 16.9C50.1568 17.1381 50.1925 17.3875 50.3103 17.6012C50.4282 17.8148 50.6202 17.978 50.85 18.06C51.9376 18.4563 52.9236 19.0894 53.7365 19.9135C54.5494 20.7376 55.169 21.7321 55.5504 22.8251C55.9317 23.918 56.0654 25.0821 55.9416 26.233C55.8179 27.384 55.4398 28.493 54.8348 29.4799C54.2298 30.4668 53.413 31.3069 52.4435 31.9394C51.474 32.5718 50.376 32.9809 49.229 33.1369C48.0819 33.2929 46.9146 33.192 45.8113 32.8414C44.7081 32.4909 43.6966 31.8995 42.85 31.11C42.738 31.0041 42.6029 30.9255 42.4555 30.8804C42.308 30.8353 42.1521 30.8249 42 30.85C41.8498 30.8801 41.7077 30.9421 41.5835 31.0318C41.4593 31.1215 41.3558 31.2368 41.28 31.37C40.7907 32.3119 40.0897 33.1276 39.2322 33.7531C38.3746 34.3786 37.3838 34.7969 36.3375 34.9752C35.2911 35.1534 34.2177 35.0868 33.2014 34.7806C32.1851 34.4743 31.2536 33.9367 30.48 33.21C30.3747 33.1125 30.2496 33.0388 30.1133 32.994C29.977 32.9491 29.8326 32.9341 29.69 32.95C29.546 32.9653 29.4071 33.0116 29.2827 33.0859C29.1584 33.1601 29.0517 33.2605 28.97 33.38C28.3299 34.3013 27.4444 35.0247 26.4139 35.468C25.3834 35.9114 24.2493 36.057 23.1402 35.8883C22.0312 35.7196 20.9916 35.2434 20.1396 34.5136C19.2876 33.7839 18.6572 32.8299 18.32 31.76L18.2 31.28C18.1592 31.1154 18.0772 30.9639 17.9618 30.8397C17.8463 30.7155 17.7012 30.6227 17.54 30.57C17.3716 30.5092 17.1899 30.4948 17.014 30.5282C16.8381 30.5617 16.6744 30.6417 16.54 30.76C16.3644 30.9142 16.1772 31.0547 15.98 31.18C14.9133 31.8941 13.6586 32.2754 12.375 32.2754C11.0914 32.2754 9.83665 31.8941 8.77 31.18C8.54987 31.0315 8.27976 30.9765 8.01908 31.0271C7.75841 31.0778 7.52852 31.2299 7.38 31.45C7.23148 31.6701 7.17649 31.9402 7.22712 32.2009C7.27776 32.4616 7.42987 32.6915 7.65 32.84C8.97466 33.7208 10.5188 34.2146 12.1087 34.2658C13.6987 34.317 15.2714 33.9237 16.65 33.13C17.2633 34.5726 18.2868 35.8031 19.5935 36.6689C20.9002 37.5347 22.4325 37.9976 24 38C25.1307 38.0144 26.2513 37.7862 27.2863 37.3308C28.3214 36.8754 29.2467 36.2033 30 35.36C30.9477 36.054 32.0237 36.553 33.1656 36.8282C34.3076 37.1035 35.4927 37.1494 36.6525 36.9634C37.8124 36.7774 38.9237 36.3631 39.9223 35.7446C40.9209 35.126 41.7868 34.3155 42.47 33.36C43.5766 34.1587 44.8377 34.7177 46.1726 35.0013C47.5075 35.2849 48.8869 35.2868 50.2227 35.007C51.5584 34.7272 52.821 34.1717 53.9299 33.3762C55.0387 32.5806 55.9694 31.5625 56.6624 30.3868C57.3553 29.2111 57.7954 27.9037 57.9544 26.5483C58.1134 25.1929 57.9878 23.8192 57.5857 22.5151C57.1836 21.2109 56.5138 20.005 55.6192 18.9745C54.7245 17.9439 53.6247 17.1113 52.39 16.53L52.34 16.51Z" fill="#7B7B7B"/>
<path d="M14 25C14.2652 25 14.5196 24.8946 14.7071 24.7071C14.8946 24.5196 15 24.2652 15 24C15 23.7348 14.8946 23.4804 14.7071 23.2929C14.5196 23.1054 14.2652 23 14 23H13C12.7348 23 12.4804 23.1054 12.2929 23.2929C12.1054 23.4804 12 23.7348 12 24C12 24.2652 12.1054 24.5196 12.2929 24.7071C12.4804 24.8946 12.7348 25 13 25H14Z" fill="#7B7B7B"/>
<path d="M9 25C9.26522 25 9.51957 24.8946 9.70711 24.7071C9.89464 24.5196 10 24.2652 10 24C10 23.7348 9.89464 23.4804 9.70711 23.2929C9.51957 23.1054 9.26522 23 9 23H1C0.734784 23 0.48043 23.1054 0.292893 23.2929C0.105357 23.4804 0 23.7348 0 24C0 24.2652 0.105357 24.5196 0.292893 24.7071C0.48043 24.8946 0.734784 25 1 25H9Z" fill="#7B7B7B"/>
<path d="M25 23H17C16.7348 23 16.4804 23.1054 16.2929 23.2929C16.1054 23.4804 16 23.7348 16 24C16 24.2652 16.1054 24.5196 16.2929 24.7071C16.4804 24.8946 16.7348 25 17 25H25C25.2652 25 25.5196 24.8946 25.7071 24.7071C25.8946 24.5196 26 24.2652 26 24C26 23.7348 25.8946 23.4804 25.7071 23.2929C25.5196 23.1054 25.2652 23 25 23Z" fill="#7B7B7B"/>
<path d="M18 27C17.7348 27 17.4804 27.1054 17.2929 27.2929C17.1054 27.4804 17 27.7348 17 28C17 28.2652 17.1054 28.5196 17.2929 28.7071C17.4804 28.8946 17.7348 29 18 29H19C19.2652 29 19.5196 28.8946 19.7071 28.7071C19.8946 28.5196 20 28.2652 20 28C20 27.7348 19.8946 27.4804 19.7071 27.2929C19.5196 27.1054 19.2652 27 19 27H18Z" fill="#7B7B7B"/>
<path d="M21 28C21 28.2652 21.1054 28.5196 21.2929 28.7071C21.4804 28.8946 21.7348 29 22 29H30C30.2652 29 30.5196 28.8946 30.7071 28.7071C30.8946 28.5196 31 28.2652 31 28C31 27.7348 30.8946 27.4804 30.7071 27.2929C30.5196 27.1054 30.2652 27 30 27H22C21.7348 27 21.4804 27.1054 21.2929 27.2929C21.1054 27.4804 21 27.7348 21 28Z" fill="#7B7B7B"/>
<path d="M14 29C14.2652 29 14.5196 28.8946 14.7071 28.7071C14.8946 28.5196 15 28.2652 15 28C15 27.7348 14.8946 27.4804 14.7071 27.2929C14.5196 27.1054 14.2652 27 14 27H6C5.73478 27 5.48043 27.1054 5.29289 27.2929C5.10536 27.4804 5 27.7348 5 28C5 28.2652 5.10536 28.5196 5.29289 28.7071C5.48043 28.8946 5.73478 29 6 29H14Z" fill="#7B7B7B"/>
<path d="M88.7188 9.90452C88.7551 9.63588 88.7734 9.36513 88.7736 9.09405C88.7738 8.05125 88.5015 7.0265 87.9837 6.12136C87.4659 5.21621 86.7205 4.4621 85.8214 3.93376C84.9224 3.40542 83.9009 3.12118 82.8581 3.10923C81.8154 3.09728 80.7877 3.35802 79.8767 3.86561C79.3774 2.64836 78.4721 1.64144 77.3146 1.01583C76.1572 0.390227 74.8188 0.184485 73.5269 0.433539C72.235 0.682594 71.0691 1.3711 70.2271 2.38215C69.3852 3.3932 68.9191 4.66448 68.908 5.98014C68.8971 6.4011 68.9318 6.82199 69.0116 7.23546C68.1705 7.45141 67.3927 7.86399 66.7423 8.43925C66.0918 9.0145 65.5872 9.736 65.27 10.5444C64.5637 10.4192 63.839 10.444 63.143 10.6172C62.4469 10.7904 61.7951 11.1082 61.2299 11.5498C61.1666 11.5994 61.1138 11.661 61.0744 11.7311C61.035 11.8011 61.0097 11.8782 61.0001 11.958C60.9905 12.0378 60.9967 12.1187 61.0183 12.1961C61.04 12.2735 61.0767 12.3458 61.1263 12.4091C61.1759 12.4723 61.2375 12.5251 61.3075 12.5645C61.3775 12.6039 61.4546 12.6292 61.5344 12.6388C61.6956 12.6582 61.8578 12.6128 61.9855 12.5126C62.4758 12.1289 63.0509 11.8683 63.6627 11.7527C64.2745 11.6372 64.9051 11.67 65.5016 11.8484C65.5804 11.8718 65.6632 11.879 65.7448 11.8696C65.8265 11.8602 65.9055 11.8343 65.9769 11.7936C66.048 11.7542 66.1105 11.7011 66.1607 11.6373C66.2109 11.5734 66.2479 11.5002 66.2694 11.4219C66.4876 10.605 66.9456 9.87232 67.5843 9.31835C68.223 8.76437 69.013 8.41455 69.8525 8.31405C69.944 8.30438 70.032 8.27413 70.1101 8.22559C70.1882 8.17704 70.2543 8.11146 70.3035 8.03374C70.3522 7.9553 70.3824 7.86682 70.3919 7.77497C70.4014 7.68313 70.3899 7.59033 70.3583 7.50358C70.1125 6.82694 70.0333 6.10101 70.1276 5.3873C70.222 4.67359 70.4869 3.99312 70.9001 3.40357C71.3133 2.81401 71.8624 2.33274 72.5011 2.00053C73.1398 1.66832 73.8492 1.49496 74.5691 1.49514C75.5811 1.49154 76.5643 1.8322 77.3572 2.46118C78.1501 3.09016 78.7055 3.97006 78.9322 4.95639C78.9554 5.05467 79.0025 5.14566 79.0696 5.22117C79.1366 5.29669 79.2213 5.35438 79.3161 5.38905C79.4112 5.42346 79.5133 5.43368 79.6133 5.41879C79.7133 5.4039 79.808 5.36436 79.8889 5.30374C80.5953 4.76542 81.438 4.43521 82.3221 4.35036C83.2061 4.26551 84.0963 4.42939 84.8921 4.82352C85.688 5.21765 86.3579 5.82634 86.8262 6.58092C87.2946 7.3355 87.5427 8.20594 87.5427 9.09405C87.5436 9.44701 87.5027 9.79884 87.4208 10.1422C87.3884 10.2873 87.4101 10.4393 87.482 10.5695C87.5538 10.6997 87.6707 10.7991 87.8108 10.8491C88.4736 11.0905 89.0744 11.4763 89.5698 11.9785C90.0651 12.4807 90.4427 13.0867 90.6751 13.7528C90.9075 14.4188 90.9889 15.1281 90.9135 15.8295C90.8381 16.5308 90.6077 17.2067 90.2391 17.8081C89.8704 18.4095 89.3727 18.9214 88.7818 19.3068C88.191 19.6922 87.5219 19.9414 86.823 20.0365C86.124 20.1316 85.4127 20.0701 84.7404 19.8565C84.0681 19.6429 83.4517 19.2825 82.9358 18.8014C82.8675 18.7368 82.7852 18.6889 82.6954 18.6615C82.6055 18.634 82.5105 18.6276 82.4178 18.643C82.3263 18.6613 82.2397 18.6991 82.164 18.7537C82.0883 18.8084 82.0253 18.8787 81.9791 18.9598C81.6809 19.5338 81.2538 20.0309 80.7312 20.412C80.2086 20.7932 79.6049 21.0481 78.9672 21.1567C78.3296 21.2654 77.6755 21.2248 77.0562 21.0381C76.4369 20.8515 75.8693 20.5239 75.3978 20.0811C75.3337 20.0217 75.2575 19.9768 75.1744 19.9494C75.0913 19.9221 75.0033 19.913 74.9164 19.9226C74.8287 19.932 74.744 19.9602 74.6683 20.0054C74.5925 20.0507 74.5275 20.1118 74.4777 20.1847C74.0876 20.7461 73.548 21.1869 72.9201 21.4571C72.2921 21.7272 71.601 21.816 70.9252 21.7132C70.2493 21.6104 69.6159 21.3202 69.0967 20.8755C68.5775 20.4308 68.1933 19.8495 67.9878 19.1975L67.9147 18.905C67.8899 18.8047 67.8399 18.7124 67.7695 18.6367C67.6992 18.561 67.6107 18.5044 67.5125 18.4723C67.4099 18.4353 67.2992 18.4265 67.192 18.4469C67.0848 18.4673 66.9851 18.516 66.9031 18.5881C66.7962 18.6821 66.6821 18.7677 66.5619 18.8441C65.9119 19.2792 65.1473 19.5115 64.3651 19.5115C63.5829 19.5115 62.8183 19.2792 62.1683 18.8441C62.0342 18.7535 61.8696 18.72 61.7107 18.7509C61.5519 18.7817 61.4118 18.8744 61.3213 19.0086C61.2308 19.1427 61.1973 19.3073 61.2281 19.4662C61.259 19.625 61.3517 19.7651 61.4858 19.8556C62.293 20.3923 63.234 20.6932 64.2028 20.7245C65.1717 20.7557 66.1301 20.516 66.9702 20.0323C67.3439 20.9114 67.9676 21.6613 68.7639 22.1889C69.5602 22.7165 70.4939 22.9985 71.4491 23C72.1381 23.0088 72.821 22.8697 73.4517 22.5922C74.0824 22.3147 74.6463 21.9051 75.1053 21.3912C75.6828 21.8141 76.3385 22.1182 77.0344 22.286C77.7303 22.4537 78.4525 22.4817 79.1592 22.3683C79.866 22.255 80.5432 22.0025 81.1517 21.6256C81.7603 21.2487 82.2879 20.7548 82.7042 20.1725C83.3786 20.6592 84.147 20.9998 84.9605 21.1727C85.774 21.3455 86.6146 21.3467 87.4285 21.1761C88.2425 21.0056 89.0119 20.6671 89.6876 20.1824C90.3633 19.6976 90.9304 19.0771 91.3527 18.3607C91.775 17.6442 92.0432 16.8476 92.14 16.0216C92.2369 15.1957 92.1604 14.3586 91.9154 13.5639C91.6704 12.7691 91.2622 12.0343 90.717 11.4063C90.1719 10.7783 89.5016 10.271 88.7492 9.91671L88.7188 9.90452Z" fill="#7B7B7B"/>
</svg>
