<svg width="44" height="25" viewBox="0 0 44 25" fill="none" xmlns="http://www.w3.org/2000/svg">
<path d="M7.66454 13.5099C7.62038 13.1891 7.55978 12.8709 7.48298 12.5563C6.77711 10.2351 7.34215 8.092 8.61815 6.1746C9.72411 4.50631 11.1497 3.07375 12.8127 1.95972C14.182 1.04344 15.7057 0.602274 17.2719 0.262911C20.3787 -0.405632 23.2531 0.215401 25.8866 1.95972C27.2559 2.86582 28.235 4.13843 29.0002 5.56375C29.6416 6.76 30.1541 8.01734 30.3305 9.33915C30.6377 9.61573 30.9176 9.46472 31.1891 9.39684C31.9421 9.1963 32.7275 9.14853 33.4992 9.25636C34.2709 9.36419 35.0132 9.62542 35.6823 10.0247C36.6257 10.5416 37.3844 11.34 37.8525 12.3086C38.1427 12.9177 38.387 13.5472 38.6856 14.2463C39.0587 14.2701 39.433 14.2667 39.8055 14.2361C40.6268 14.1174 41.3072 14.3923 42.0012 14.8063C43.8881 15.9279 44.2155 17.6043 43.8948 19.3028C43.5555 21.1133 42.5849 22.486 40.8576 23.3226C38.784 24.3271 36.585 24.6274 34.3418 24.6138C32.1563 24.602 29.9725 24.4442 27.7887 24.3339C25.3674 24.2015 22.9477 23.9724 20.5247 23.9131C18.8726 23.8731 17.2198 23.9565 15.5802 24.1625C12.3902 24.5663 9.20185 24.8259 5.98979 24.6274C5.16744 24.5555 4.3528 24.413 3.55487 24.2015C2.12445 23.8622 1.23702 22.8848 0.609202 21.5952C0.103553 20.5551 -0.0237081 19.4759 0.00344084 18.3424C0.0114594 17.5063 0.319109 16.7007 0.870511 16.0721C2.49606 14.2192 4.46436 13.1366 7.02824 13.5082C7.24016 13.5199 7.45256 13.5205 7.66454 13.5099ZM36.8497 15.8142C36.7682 15.3645 36.7004 14.9403 36.6138 14.5212C36.288 12.9449 35.4855 11.7775 33.9261 11.1564C33.0081 10.7916 32.1563 10.7119 31.2689 11.1768C30.8865 11.386 30.4895 11.5675 30.0811 11.7198C29.3396 11.9794 28.8679 11.7198 28.6473 10.9477C28.5868 10.763 28.5542 10.5703 28.5506 10.3759C28.5777 9.11517 28.0789 7.98679 27.5664 6.89914C26.4991 4.65426 24.821 3.05417 22.437 2.20576C20.3872 1.47783 18.3494 1.50328 16.2826 2.09207C15.3942 2.3436 14.5515 2.7354 13.7866 3.25269C12.4343 4.15879 11.3721 5.35334 10.354 6.59202C9.6942 7.38079 9.24421 8.32336 9.04575 9.33237C8.78613 10.6711 8.74202 12.032 9.57854 13.2673C9.85605 13.7248 10.0787 14.2135 10.242 14.7231C10.2896 14.848 10.3034 14.9832 10.2819 15.1151C10.2604 15.247 10.2045 15.3709 10.1198 15.4742C10.035 15.5776 9.92451 15.6567 9.79938 15.7036C9.67424 15.7504 9.53894 15.7634 9.40717 15.7412C9.07119 15.6854 8.74777 15.5705 8.45186 15.4019C6.4615 14.2735 4.16402 15.1015 2.88802 16.5014C2.53339 16.8866 2.1533 17.3498 2.03961 17.8334C1.71552 19.2197 2.02265 20.5245 2.87954 21.6835C3.43948 22.4402 4.25565 22.7524 5.12611 22.9102C6.75482 23.2084 8.4185 23.2656 10.0638 23.0799C12.285 22.8271 14.5044 22.5047 16.7323 22.3724C20.6659 22.1454 24.6116 22.2465 28.5285 22.6744C31.1393 22.9603 33.7694 23.0284 36.3915 22.878C37.6353 22.805 38.7671 22.4131 39.8683 21.8769C40.3894 21.6087 40.835 21.2143 41.1647 20.7298C41.689 20.0019 41.9367 19.1654 42.1386 18.3119C42.2055 18.0502 42.1998 17.7753 42.1221 17.5167C42.0443 17.2581 41.8975 17.0255 41.6975 16.8441C41.5278 16.6745 41.3581 16.4946 41.1732 16.3351C40.5453 15.8142 39.8921 15.502 39.0335 15.8261C38.3904 16.0806 37.6998 16.106 36.8463 15.8142H36.8497Z" fill="#7B7B7B"/>
<path d="M36.8471 15.8141C37.6955 16.1059 38.3912 16.0805 39.0309 15.8379C39.8895 15.5104 40.5428 15.8226 41.1706 16.3469C41.3556 16.503 41.5218 16.6863 41.6949 16.8559C41.895 17.0373 42.0418 17.2699 42.1195 17.5285C42.1973 17.7871 42.203 18.062 42.1361 18.3237C41.9342 19.1721 41.6864 20.0205 41.1621 20.7416C40.8325 21.2261 40.3868 21.6205 39.8658 21.8887C38.7645 22.4249 37.6327 22.8168 36.389 22.8898C33.7669 23.0402 31.1368 22.972 28.526 22.6862C24.6091 22.2583 20.6634 22.1572 16.7297 22.3841C14.5018 22.5165 12.2824 22.8389 10.0613 23.0917C8.41594 23.2773 6.75226 23.2202 5.12355 22.922C4.25309 22.7642 3.43692 22.452 2.87697 21.6952C2.02857 20.5363 1.71296 19.2315 2.03705 17.8452C2.15074 17.3599 2.53082 16.8984 2.88546 16.5132C4.16485 15.1014 6.46233 14.2734 8.45269 15.4069C8.7486 15.5755 9.07202 15.6904 9.408 15.7462C9.53977 15.7684 9.67507 15.7555 9.80021 15.7086C9.92534 15.6617 10.0359 15.5826 10.1206 15.4792C10.2053 15.3759 10.2613 15.252 10.2827 15.1201C10.3042 14.9882 10.2904 14.853 10.2428 14.7281C10.0796 14.2185 9.85688 13.7298 9.57937 13.2723C8.74285 12.0268 8.78696 10.666 9.04658 9.33228C9.24504 8.32327 9.69503 7.3807 10.3548 6.59193C11.3729 5.35326 12.4351 4.1587 13.7875 3.24752C14.5524 2.73023 15.395 2.33842 16.2835 2.0869C18.3502 1.4981 20.3881 1.47265 22.4378 2.20058C24.8133 3.04899 26.5 4.65417 27.5571 6.89905C28.0661 7.98671 28.5752 9.11509 28.5412 10.3758C28.5448 10.5702 28.5774 10.7629 28.638 10.9476C28.8585 11.7129 29.3303 11.9793 30.0718 11.7197C30.4802 11.5674 30.8771 11.3859 31.2595 11.1767C32.147 10.7118 32.9988 10.7915 33.9167 11.1564C35.4761 11.7774 36.2787 12.9448 36.6045 14.5211C36.6978 14.9402 36.7657 15.3644 36.8471 15.8141Z" fill="white"/>
</svg>
