<svg width="20" height="20" viewBox="0 0 20 20" fill="none" xmlns="http://www.w3.org/2000/svg">
<g clip-path="url(#clip0_1272_5519)">
<path d="M11.5869 16.1064L11.4854 16.0039L10.4932 15.001L15.0059 10.4951L16.0068 11.4971L16.1094 11.5996H18.377V13.8945L18.4795 13.9971L19.4805 15L18.4795 16.0029L18.377 16.1055V19.6504H16.5801V15.9004H13.3838V19.6504H11.5869V16.1064Z" stroke="#646464" stroke-width="0.7"/>
<path d="M7.50417 0H7.50292H7.5023C3.55049 0.01125 0.581791 2.9725 0.102405 6.39813C0.0387367 6.85 3.63317e-05 7.26562 3.63317e-05 7.67375C-0.00433307 8.92313 0.385168 10.0156 1.299 11.63C2.21595 13.2575 3.68531 15.4937 5.98612 19.2044L6.00047 19.2275L6.01733 19.25C6.38436 19.7412 6.94614 20 7.4973 20H7.50355H7.50979C8.06096 20 8.62274 19.7412 8.98914 19.25L9.00537 19.2281L9.01973 19.205C9.52283 18.3938 9.98599 17.6525 10.4129 16.9725L9.35617 16.3075C8.93609 16.9769 8.47917 17.7075 7.98418 18.505C7.85934 18.6669 7.68769 18.7437 7.50292 18.7487C7.31816 18.7437 7.1465 18.6669 7.02166 18.505C4.73023 14.8112 3.26086 12.5694 2.38698 11.0162C1.50623 9.44375 1.25281 8.65125 1.24844 7.67375C1.24844 7.34625 1.27965 6.98875 1.33832 6.57188C1.73719 3.73813 4.20652 1.2525 7.50292 1.25C10.7993 1.2525 13.2687 3.73813 13.6669 6.57188C13.7256 6.98875 13.7568 7.34625 13.7568 7.67375C13.7562 8.115 13.7025 8.505 13.5701 8.95063L14.7661 9.30938C14.9328 8.75563 15.0058 8.2225 15.0052 7.67438C15.0052 7.26625 14.9665 6.85063 14.9028 6.39875C14.4234 2.9725 11.4547 0.01125 7.50417 0Z" fill="#646464"/>
<path d="M5.01758 7.5C5.01883 8.88 6.13614 9.99875 7.51438 10C8.89261 9.99875 10.0099 8.88 10.0112 7.5C10.0099 6.12 8.89261 5.00125 7.51438 5C6.13614 5.00125 5.01883 6.12 5.01758 7.5ZM8.76278 7.5C8.76153 8.1875 8.201 8.74875 7.51438 8.75C6.82776 8.74875 6.26723 8.1875 6.26598 7.5C6.26723 6.8125 6.82776 6.25125 7.51438 6.25C8.20162 6.25125 8.76216 6.8125 8.76278 7.5Z" fill="#646464"/>
</g>
<defs>
<clipPath id="clip0_1272_5519">
<rect width="20" height="20" fill="white"/>
</clipPath>
</defs>
</svg>
