<svg width="20" height="20" viewBox="0 0 20 20" fill="none" xmlns="http://www.w3.org/2000/svg">
<path d="M13.8545 4.5C13.6354 4.5 13.3528 4.61392 12.9951 5.01367L12.8369 5.20312C12.2042 6.01073 12.0263 6.53972 12.0332 6.91016C12.039 7.21879 12.1752 7.50633 12.4746 7.8457L12.6133 7.99512C12.8275 8.21503 12.8744 8.49593 12.8408 8.74609C12.8092 8.98132 12.7051 9.21958 12.5732 9.44727C12.3736 9.79181 12.0623 10.1929 11.6523 10.6455L11.2109 11.1152C10.6715 11.6689 10.1945 12.1008 9.78711 12.3984C9.58325 12.5474 9.38621 12.6708 9.19922 12.7578C9.0624 12.8214 8.91404 12.8733 8.76074 12.8955L8.60547 12.9072C8.42023 12.9072 8.23913 12.8531 8.08691 12.7266L8.02441 12.668C7.50661 12.1367 7.07716 11.7854 6.52734 11.7852C6.19362 11.7852 5.80717 11.9158 5.34082 12.2578L5.13574 12.418C4.72528 12.7567 4.54806 13.0711 4.50879 13.3574L4.5 13.4785C4.49811 13.7911 4.65498 14.1218 4.92676 14.46C5.06108 14.627 5.21114 14.7818 5.36035 14.9219L5.78906 15.2979C5.91601 15.4056 6.16262 15.4999 6.57324 15.5H6.57422L6.82617 15.4883C7.3523 15.4425 7.99877 15.2592 8.69531 14.9326L9.04688 14.7568C10.1282 14.188 11.2538 13.3331 12.2949 12.2646H12.2939C13.5599 10.9653 14.5302 9.54036 15.0635 8.23242L15.1641 7.97266C15.3947 7.34511 15.4999 6.79953 15.5 6.37305C15.5001 5.99202 15.4179 5.75535 15.3193 5.62207L15.2764 5.57129L15.0527 5.33398C14.8307 5.09436 14.6316 4.88227 14.4189 4.72461C14.2122 4.57142 14.0316 4.5001 13.8545 4.5Z" stroke="#646464"/>
<circle cx="10" cy="10" r="9.5" stroke="#646464"/>
</svg>
