<svg width="20" height="20" viewBox="0 0 20 20" fill="none" xmlns="http://www.w3.org/2000/svg">
<circle cx="10" cy="10" r="9.5" stroke="#646464"/>
<path d="M16.0398 5.3125H3.86932C3.38945 5.3125 3 5.70195 3 6.18182V14.0057C3 14.4855 3.38945 14.875 3.86932 14.875H16.0398C16.5196 14.875 16.9091 14.4855 16.9091 14.0057V6.18182C16.9091 5.70195 16.5196 5.3125 16.0398 5.3125ZM15.2596 6.18182L9.95455 11.3977L4.69126 6.18182H15.2596ZM3.86932 14.0057V6.61909L8.03726 10.787L4.76515 14.0057H3.86932ZM6.03609 14.0057L8.67926 11.4295L9.36602 12.1158C9.70549 12.4553 10.2558 12.4553 10.5957 12.1158L11.2611 11.4503L13.9043 14.0057H6.03609ZM16.0398 14.0057H15.197L11.9253 10.787L16.0398 6.67211V14.0057Z" fill="#646464"/>
</svg>
