<svg width="30" height="30" viewBox="0 0 30 30" fill="none" xmlns="http://www.w3.org/2000/svg">
<path d="M24.9404 1.28223C25.9838 0.239086 27.6745 0.238948 28.7178 1.28223C29.7611 2.32551 29.7611 4.01624 28.7178 5.05957L19.1309 14.6455L18.7773 14.999L19.1309 15.3525L28.7178 24.9404C29.7611 25.9837 29.7611 27.6745 28.7178 28.7178C27.6745 29.7611 25.9838 29.761 24.9404 28.7178L15 18.7773L5.05957 28.7178C4.01618 29.7609 2.32553 29.7611 1.28223 28.7178C0.238909 27.6745 0.238956 25.9838 1.28223 24.9404L10.8691 15.3545L11.2227 15.001L1.28223 5.06055C0.239015 4.01721 0.238914 2.32648 1.28223 1.2832C2.32552 0.23999 4.01619 0.240127 5.05957 1.2832L15 11.2236L15.3535 10.8701L24.9404 1.28223Z" fill="#7B7B7B" stroke="white"/>
</svg>
