<svg width="99" height="52" viewBox="0 0 99 52" fill="none" xmlns="http://www.w3.org/2000/svg">
<path fill-rule="evenodd" clip-rule="evenodd" d="M2.18131 36.7952L1.85892 31.0449L8.88634 35.1547L6.59577 39.1304L3.00844 37.0322C2.74697 36.8792 2.46266 36.8025 2.18131 36.7952ZM0.613362 28.7958L1.08214 37.1565C0.904867 37.2932 0.751288 37.4667 0.633247 37.6733C0.5444 37.8284 0.48136 37.9891 0.444129 38.149C0.405205 38.3148 0.391666 38.4867 0.40182 38.659L0.924329 47.3565C0.959868 47.8317 1.17733 48.2491 1.50184 48.541C1.83438 48.8401 2.27989 49.0111 2.76009 48.9824L2.78548 48.9807C2.8959 48.9721 3.00252 48.9537 3.10321 48.9267C3.21871 48.8958 3.32829 48.8534 3.42983 48.802L11.1058 44.9253C11.5344 44.7089 11.8365 44.3356 11.9787 43.9062C12.051 43.6885 12.0815 43.4566 12.0658 43.2243V43.2248L18.1633 40.3822C18.261 40.3715 18.3583 40.3432 18.4514 40.2965L26.135 36.4481C27.9894 35.6428 29.6928 34.5436 31.1858 33.2022C32.6704 31.8685 33.9456 30.2983 34.953 28.5447C34.9779 28.5078 34.9999 28.4688 35.019 28.4277C37.5778 23.9 38.0944 18.7514 36.8585 14.0793C35.6223 9.40509 32.6319 5.20656 28.1798 2.5821C28.1426 2.55596 28.1028 2.53282 28.0618 2.5131C23.5919 -0.0787849 18.509 -0.602048 13.8965 0.649755C9.26247 1.90756 5.10144 4.95628 2.51301 9.49723C1.4993 11.2757 0.783442 13.1982 0.381935 15.1871C-0.0195712 17.1756 -0.107996 19.2245 0.133162 21.2559L0.613362 28.7954V28.7958ZM9.85394 35.7204L16.7904 39.7771L11.6343 42.1812C11.6119 42.1555 11.5882 42.1302 11.564 42.1054C11.4392 41.9781 11.2971 41.8718 11.1431 41.7895L7.56294 39.6961L9.85351 35.7204H9.85394ZM17.1221 12.8485C18.6621 12.4307 20.357 12.6012 21.8479 13.4571L21.8886 13.4828C23.3909 14.3613 24.3996 15.7738 24.8155 17.347C25.228 18.907 25.06 20.6237 24.2147 22.134L24.1893 22.1751C23.322 23.6969 21.9275 24.7186 20.3743 25.1398C18.8191 25.562 17.106 25.3841 15.6041 24.5056C14.1047 23.6288 13.0969 22.2158 12.6806 20.6413C12.2681 19.0818 12.4364 17.3646 13.2813 15.8544L13.3067 15.8128C14.174 14.2915 15.5685 13.2694 17.1217 12.8477L17.1221 12.8485Z" fill="url(#paint0_linear_11_3)"/>
<path d="M43.7538 38.6086H36L38.7202 26.3768H45.586C46.7453 26.3768 47.6311 26.6792 48.2413 27.2847C48.8523 27.8894 49.1575 28.6021 49.1575 29.4206C49.1575 30.1913 48.8805 30.8875 48.325 31.5116C47.7696 32.1349 47.1225 32.4773 46.3817 32.5388C46.9494 32.6975 47.3844 33.0035 47.6866 33.456C47.9889 33.9085 48.1396 34.4096 48.1396 34.96C48.1396 35.3875 48.0596 35.8064 47.8987 36.216C47.7386 36.6256 47.4976 37.0138 47.1766 37.3805C46.8556 37.7472 46.3997 38.0439 45.8068 38.2698C45.2146 38.4957 44.53 38.6093 43.7531 38.6093L43.7538 38.6086ZM44.2717 30.8882C44.5927 30.8882 44.8243 30.8089 44.9657 30.6495C45.1078 30.4908 45.1785 30.2949 45.1785 30.0626C45.1785 29.8917 45.1201 29.7481 45.0025 29.6315C44.8856 29.5157 44.7219 29.4571 44.512 29.4571H41.8098L41.4577 30.8875H44.271L44.2717 30.8882ZM43.365 35.5276C43.673 35.5276 43.9262 35.4483 44.1239 35.2889C44.3208 35.1302 44.4196 34.9221 44.4196 34.6655C44.4196 34.4575 44.3554 34.2895 44.2256 34.1608C44.0957 34.0322 43.9262 33.9685 43.7163 33.9685H40.7739L40.4219 35.5269H43.3643L43.365 35.5276ZM53.6197 38.8288C52.102 38.8288 50.9269 38.4406 50.0945 37.6643C49.2621 36.888 48.8451 35.9008 48.8451 34.7027C48.8451 33.3087 49.3515 32.0985 50.3628 31.0712C51.3742 30.044 52.6517 29.5307 54.1932 29.5307C55.7109 29.5307 56.886 29.9189 57.7185 30.6952C58.5509 31.4716 58.9678 32.4588 58.9678 33.6569C58.9678 35.0501 58.4622 36.2611 57.4501 37.2883C56.4388 38.3148 55.162 38.8288 53.6197 38.8288ZM53.7496 35.9129C54.292 35.9129 54.7306 35.7085 55.0632 35.2989C55.3964 34.8893 55.5623 34.3967 55.5623 33.8227C55.5623 33.3824 55.4303 33.0435 55.1649 32.8048C54.8994 32.566 54.533 32.4473 54.0641 32.4473C53.5209 32.4473 53.0831 32.6518 52.7498 33.0614C52.4165 33.471 52.2499 33.9628 52.2499 34.5376C52.2499 34.9779 52.3826 35.3175 52.6481 35.5555C52.9135 35.7943 53.2807 35.9129 53.7496 35.9129ZM68.1701 38.6086H64.1738L63.2296 35.6927L62.3416 36.6099L61.8973 38.6086H58.5661L60.5462 29.7509H63.8774L63.1921 32.7218L65.82 29.7509H69.9461L65.9679 33.7855L68.1694 38.6086H68.1701ZM74.9985 38.8288C73.8263 38.8288 72.9628 38.4435 72.4074 37.6736L71.4451 41.9834H68.1146L70.8528 29.7509H74.1841L73.9619 30.6859C74.6775 29.916 75.4854 29.5307 76.3863 29.5307C77.4099 29.5307 78.2215 29.8517 78.8202 30.4936C79.4182 31.1356 79.7175 32.0434 79.7175 33.2172C79.7175 33.8527 79.618 34.4925 79.4211 35.1337C79.2249 35.775 78.9363 36.379 78.5605 36.9402C78.1847 37.502 77.6869 37.9581 77.0709 38.3062C76.4541 38.6544 75.7631 38.8288 74.9985 38.8288ZM74.4062 35.9129C74.9371 35.9129 75.3815 35.7199 75.7386 35.3353C76.0956 34.9514 76.2753 34.4761 76.2753 33.9142C76.2753 33.486 76.1295 33.1343 75.8403 32.8598C75.551 32.5853 75.2019 32.4473 74.7943 32.4473C74.3002 32.4473 73.8508 32.6489 73.4432 33.0521L72.9253 35.3074C73.2953 35.7113 73.7887 35.9129 74.4055 35.9129H74.4062ZM79.051 41.9648L80.1056 39.1591C80.3155 39.2441 80.6301 39.2877 81.0492 39.2877C81.4935 39.2877 81.8051 39.1776 81.9566 38.9389L82.1413 38.6458L80.6603 29.7509H84.0839L84.6393 34.8128L87.5074 29.7509H91.1156L84.9906 39.7095C84.4215 40.6352 83.8242 41.2872 83.1959 41.6532C82.5676 42.0192 81.7893 42.2029 80.8638 42.2029C80.1482 42.2029 79.5437 42.1235 79.0503 41.9648H79.051ZM99 29.7509L98.3522 32.6117H94.4288L93.1152 38.6086H89.784L91.7454 29.7509H98.9993H99Z" fill="white"/>
<path d="M20.4835 51.9992C19.0364 51.9992 17.8863 51.5933 17.0315 50.7815C16.1767 49.9704 15.75 48.9334 15.75 47.6712C15.75 46.1386 16.2744 44.844 17.3217 43.7874C18.3691 42.7316 19.6608 42.2029 21.1946 42.2029C22.1675 42.2029 22.9888 42.3844 23.6554 42.7436C24.3213 43.1029 24.8245 43.5683 25.1615 44.1346L22.654 46.1243C22.3294 45.558 21.8306 45.2748 21.1574 45.2748C20.571 45.2748 20.0896 45.4789 19.7169 45.8833C19.3442 46.2877 19.1553 46.8074 19.1553 47.4385C19.1553 47.8768 19.3187 48.2352 19.6418 48.5109C19.9649 48.7865 20.3587 48.9266 20.8204 48.9266C21.4068 48.9266 21.9122 48.6751 22.336 48.1735L24.1324 50.472C23.7706 50.8719 23.2703 51.2273 22.6358 51.5346C22.0005 51.8426 21.2821 51.9985 20.4842 51.9985L20.4835 51.9992ZM31.4499 51.7673H24.4708L26.4539 42.4356H32.4411C33.3644 42.4356 34.0887 42.6397 34.6116 43.0441C35.1338 43.4485 35.3971 43.9682 35.3971 44.5993C35.3971 45.1792 35.2039 45.7041 34.8173 46.174C34.4307 46.6439 33.9311 46.9369 33.32 47.0529C33.7568 47.2073 34.0945 47.4437 34.3301 47.7578C34.5657 48.0718 34.686 48.4303 34.686 48.8294C34.686 49.6669 34.3914 50.3673 33.8064 50.9261C33.2215 51.4849 32.4316 51.7665 31.4484 51.7665L31.4499 51.7673ZM28.3815 49.1977H30.908C31.0451 49.1977 31.1618 49.1518 31.2544 49.0621C31.3463 48.9733 31.3945 48.8566 31.3945 48.7142C31.3945 48.611 31.3573 48.5207 31.2822 48.4439C31.207 48.3663 31.1108 48.3279 31.0014 48.3279H28.569L28.3815 49.197V49.1977ZM29.1116 45.7779H31.4134C31.5506 45.7779 31.6673 45.7312 31.7592 45.6423C31.851 45.5534 31.8999 45.4495 31.8999 45.3328C31.8999 45.1136 31.7847 45.0044 31.563 45.0044H29.2619L29.1124 45.7771L29.1116 45.7779ZM40.6987 51.9992C39.2021 51.9992 38.0045 51.6257 37.106 50.8786C36.2082 50.1316 35.7589 49.0877 35.7589 47.7487C35.7589 46.229 36.2694 44.9231 37.2839 43.8364C38.2985 42.7504 39.5821 42.2037 41.1291 42.2037C42.3266 42.2037 43.3324 42.5757 44.142 43.3145C44.9508 44.0533 45.3585 45.1016 45.3585 46.4542C45.3585 47.0853 45.29 47.6584 45.1521 48.1742H39.0905V48.1931C39.0905 48.2669 39.1518 48.3941 39.2685 48.5598C39.3852 48.7255 39.5989 48.901 39.9045 49.0817C40.2101 49.2617 40.5558 49.3521 40.9431 49.3521C41.8161 49.3521 42.4711 49.1977 42.9072 48.8889L43.9363 51.1497C43.0633 51.7161 41.9846 52 40.6995 52L40.6987 51.9992ZM39.4078 45.9714H42.3828V45.9134C42.3828 45.7078 42.2654 45.4766 42.0371 45.2273C41.8081 44.9781 41.4602 44.8508 40.9985 44.8508C40.5996 44.8508 40.2531 44.9736 39.9606 45.2183C39.6674 45.4631 39.4837 45.7139 39.4085 45.9714H39.4078ZM50.3743 51.7673H47.0069L48.335 45.4495H45.9216L46.5765 42.4356H54.7336L54.0786 45.4495H51.7024L50.3735 51.7673H50.3743ZM59.0564 42.2037C60.2416 42.2037 61.1146 42.6096 61.6762 43.4207L61.8819 42.4356H65.25L63.2479 51.7673H59.8798L60.1045 50.7815C59.3809 51.5933 58.5641 51.9992 57.6539 51.9992C56.6182 51.9992 55.7962 51.6588 55.193 50.9848C54.5899 50.31 54.2857 49.3521 54.2857 48.1155C54.2857 47.446 54.3871 46.7705 54.5848 46.0964C54.7824 45.4217 55.0764 44.7838 55.4549 44.1933C55.8334 43.6029 56.3381 43.1209 56.961 42.7542C57.5838 42.3874 58.2833 42.2037 59.0564 42.2037ZM59.6552 45.2755C59.1184 45.2755 58.6676 45.4796 58.3081 45.8841C57.9478 46.2877 57.7654 46.7885 57.7654 47.3812C57.7654 47.8323 57.9142 48.2044 58.2052 48.4921C58.4963 48.7797 58.8507 48.9266 59.2628 48.9266C59.7617 48.9266 60.2168 48.7142 60.6281 48.2887L61.1518 45.9127C60.7776 45.4879 60.2788 45.2755 59.6552 45.2755Z" fill="white"/>
<defs>
<linearGradient id="paint0_linear_11_3" x1="0" y1="24.4928" x2="37.5" y2="24.4928" gradientUnits="userSpaceOnUse">
<stop stop-color="#FF732D"/>
<stop offset="1" stop-color="#F32F2F"/>
</linearGradient>
</defs>
</svg>
